<svg width="48" height="47" viewBox="0 0 48 47" fill="none" xmlns="http://www.w3.org/2000/svg">
<path d="M23.7647 17.3818C20.3958 17.3818 17.6465 20.1311 17.6465 23.5C17.6465 26.869 20.3958 29.6183 23.7647 29.6183C27.1337 29.6183 29.883 26.869 29.883 23.5C29.883 20.1311 27.1337 17.3818 23.7647 17.3818ZM42.1149 23.5C42.1149 20.9665 42.1379 18.4558 41.9956 15.9268C41.8533 12.9893 41.1832 10.3823 39.0351 8.23423C36.8825 6.08159 34.2801 5.41606 31.3426 5.27378C28.809 5.13149 26.2983 5.15444 23.7693 5.15444C21.2357 5.15444 18.7251 5.13149 16.1961 5.27378C13.2586 5.41606 10.6516 6.08618 8.50351 8.23423C6.35088 10.3869 5.68535 12.9893 5.54306 15.9268C5.40078 18.4604 5.42373 20.971 5.42373 23.5C5.42373 26.0291 5.40078 28.5443 5.54306 31.0733C5.68535 34.0108 6.35547 36.6178 8.50351 38.7659C10.6561 40.9185 13.2586 41.584 16.1961 41.7263C18.7297 41.8686 21.2403 41.8457 23.7693 41.8457C26.3029 41.8457 28.8136 41.8686 31.3426 41.7263C34.2801 41.584 36.8871 40.9139 39.0351 38.7659C41.1878 36.6132 41.8533 34.0108 41.9956 31.0733C42.1425 28.5443 42.1149 26.0336 42.1149 23.5ZM23.7647 32.9138C18.5553 32.9138 14.351 28.7095 14.351 23.5C14.351 18.2906 18.5553 14.0863 23.7647 14.0863C28.9742 14.0863 33.1785 18.2906 33.1785 23.5C33.1785 28.7095 28.9742 32.9138 23.7647 32.9138ZM33.5641 15.8993C32.3477 15.8993 31.3655 14.917 31.3655 13.7007C31.3655 12.4844 32.3477 11.5022 33.5641 11.5022C34.7804 11.5022 35.7626 12.4844 35.7626 13.7007C35.763 13.9895 35.7063 14.2756 35.596 14.5425C35.4856 14.8094 35.3237 15.0519 35.1195 15.2561C34.9152 15.4604 34.6727 15.6223 34.4058 15.7327C34.1389 15.843 33.8529 15.8996 33.5641 15.8993Z" fill="white"/>
</svg>
