<svg width="1548" height="1543" viewBox="0 0 1548 1543" fill="none" xmlns="http://www.w3.org/2000/svg">
<path d="M132.796 585.42C131.732 585.268 130.973 584.812 130.365 583.901C129.758 582.99 129.758 581.623 130.365 580.712L379.756 142.987C380.516 141.772 381.883 141.164 383.25 141.468C384.616 141.772 385.68 142.987 385.68 144.354L415.449 567.194C415.449 568.105 415.145 568.865 414.689 569.472C414.082 570.08 413.322 570.535 412.563 570.535L133.403 585.42C133.099 585.42 132.947 585.42 132.796 585.42ZM379.908 155.137L138.567 578.737L408.766 564.308L379.908 155.137Z" fill="white"/>
<path d="M411.955 570.386C411.651 570.386 411.348 570.234 411.196 570.234C409.981 569.778 409.221 568.715 409.069 567.5L379.301 144.66C379.149 143.293 379.908 142.078 381.123 141.622C382.338 141.014 383.705 141.318 384.616 142.229L611.073 365.193C612.288 366.408 612.288 368.382 611.073 369.597L414.385 569.474C413.778 570.082 412.867 570.386 411.955 570.386ZM386.135 152.557L414.841 560.058L604.39 367.471L386.135 152.557Z" fill="white"/>
<path d="M620.641 742.467C620.034 742.467 619.426 742.163 618.819 741.707L410.132 569.625C409.525 569.017 409.069 568.258 408.917 567.346C408.917 566.435 409.221 565.676 409.829 564.916L606.516 365.191C607.428 364.28 608.794 363.976 609.858 364.432C611.073 364.887 611.832 365.95 611.832 367.317L623.983 739.125C623.983 740.34 623.375 741.555 622.16 742.011C621.704 742.315 621.097 742.467 620.641 742.467ZM416.815 567.043L617.452 732.442L605.909 374.912L416.815 567.043Z" fill="white"/>
<path d="M542.877 816.283C542.725 816.283 542.725 816.283 542.573 816.283C541.661 816.131 540.75 815.524 540.294 814.612L409.372 568.715C408.612 567.348 408.916 565.677 410.131 564.766C411.346 563.855 413.017 563.855 414.08 564.766L622.918 736.849C623.678 737.456 623.982 738.216 624.134 739.127C624.134 740.038 623.83 740.949 623.07 741.557L545.307 815.524C544.547 816.131 543.636 816.435 542.877 816.283ZM422.434 579.802L543.94 808.082L616.084 739.431L422.434 579.802Z" fill="white"/>
<path d="M1269.78 481.838C1269.02 481.838 1268.26 481.383 1267.66 480.775L1104.54 295.479C1103.93 294.719 1103.62 293.808 1103.78 292.897C1103.93 291.985 1104.38 291.226 1105.14 290.618L1267.81 187.187C1268.72 186.579 1270.09 186.579 1271 187.035C1272.06 187.642 1272.67 188.705 1272.67 189.769L1272.97 478.497C1272.97 479.864 1272.21 480.927 1271 481.383C1270.69 481.838 1270.24 481.838 1269.78 481.838ZM1111.83 294.112L1266.9 470.295L1266.59 195.692L1111.83 294.112Z" fill="white"/>
<path d="M840.263 386.758C840.111 386.758 839.959 386.758 839.807 386.758C838.896 386.454 837.984 385.846 837.681 384.935L755.968 190.222C755.512 189.007 755.816 187.64 756.727 186.729C757.639 185.817 759.006 185.514 760.221 186.121L963.895 282.111C964.806 282.567 965.565 283.478 965.717 284.541C965.869 285.604 965.414 286.667 964.654 287.427L842.693 386.15C841.933 386.454 841.022 386.758 840.263 386.758ZM764.929 195.234L841.781 378.556L956.604 285.604L764.929 195.234Z" fill="white"/>
<path d="M1135.37 1538.64C1134.61 1538.64 1133.85 1538.18 1133.24 1537.73L1098.16 1500.52C1097.25 1499.6 1097.09 1498.39 1097.4 1497.33C1097.7 1496.26 1098.76 1495.35 1099.98 1495.2L1201.44 1482.14C1203.11 1481.99 1204.63 1483.05 1204.93 1484.72C1209.33 1510.24 1212.68 1526.03 1212.68 1526.18C1212.83 1527.09 1212.68 1528.01 1212.22 1528.77C1211.76 1529.52 1210.85 1529.98 1210.09 1530.13L1135.82 1538.79C1135.82 1538.64 1135.52 1538.79 1135.37 1538.64ZM1107.12 1500.67L1136.89 1532.26L1206.15 1524.21C1204.93 1518.59 1202.5 1506.13 1199.61 1488.97L1107.12 1500.67Z" fill="white"/>
<path d="M382.185 147.549C382.034 147.549 381.882 147.549 381.578 147.397L336.013 135.398C334.95 135.095 334.039 134.183 333.735 133.12C333.431 132.057 333.887 130.842 334.646 130.082C343.911 121.881 353.935 114.287 364.263 107.604C365.023 107.148 365.934 106.996 366.845 107.3C367.757 107.604 368.516 108.211 368.82 108.971L385.071 143.144C385.527 144.208 385.375 145.574 384.616 146.486C384.16 147.245 383.097 147.701 382.185 147.549ZM343.455 130.842L376.566 139.651L364.719 114.894C357.429 119.754 350.29 125.222 343.455 130.842Z" fill="white"/>
<path d="M1269.79 481.841C1269.03 481.841 1268.42 481.537 1267.81 480.93C1267.21 480.322 1266.9 479.563 1266.9 478.651L1266.6 189.923C1266.6 188.556 1267.36 187.341 1268.57 186.885C1269.79 186.43 1271.15 186.734 1272.07 187.797L1473.61 417.595C1473.92 418.05 1474.22 418.506 1474.37 418.962C1475.44 423.822 1476.35 428.378 1476.8 432.783C1477.87 441.44 1477.87 450.249 1477.11 458.907C1483.33 463.311 1489.11 468.779 1494.27 474.854C1495.03 475.766 1495.18 477.133 1494.72 478.196C1494.27 479.259 1493.05 480.018 1491.84 480.018L1270.24 481.689C1269.94 481.841 1269.79 481.841 1269.79 481.841ZM1272.82 198.429L1273.13 475.614L1484.7 474.095C1480.75 469.994 1476.5 466.501 1471.94 463.463C1471.03 462.856 1470.42 461.641 1470.58 460.426C1471.49 451.616 1471.49 442.503 1470.58 433.846C1470.12 429.897 1469.36 425.796 1468.45 421.544L1272.82 198.429Z" fill="white"/>
<path d="M527.842 957.532L443.547 946.9C442.636 946.748 441.877 946.292 441.269 945.533C425.625 922.903 413.626 897.994 405.88 871.566C405.425 870.048 406.184 868.377 407.703 867.769L541.815 810.206C542.878 809.75 544.093 809.902 545.005 810.51C545.916 811.117 546.372 812.18 546.22 813.395L531.335 954.646C531.183 955.557 530.88 956.317 530.12 956.772C529.513 957.38 528.753 957.532 527.842 957.532ZM445.674 940.825L525.26 950.849L539.233 818.256L412.563 872.63C420.309 896.931 431.397 919.865 445.674 940.825Z" fill="white"/>
<path d="M1099.37 1502.18C1098.92 1502.18 1098.61 1502.03 1098.16 1501.88C1097.1 1501.42 1096.34 1500.21 1096.34 1499.14H1099.37L1096.34 1498.69C1096.34 1497.78 1096.64 1496.71 1097.4 1496.11C1098.16 1495.5 1099.07 1495.19 1099.98 1495.19L1100.89 1495.35C1102.11 1495.5 1103.17 1496.56 1103.47 1497.78C1103.78 1498.99 1103.32 1500.36 1102.26 1501.12L1101.35 1501.72C1100.89 1502.03 1100.13 1502.18 1099.37 1502.18Z" fill="white"/>
<path d="M608.492 370.508C607.732 370.508 607.125 370.204 606.517 369.597L380.213 146.633C379.15 145.57 378.998 143.748 379.909 142.533C380.82 141.318 382.491 140.862 383.858 141.621L670.004 286.973C670.764 287.428 671.371 288.188 671.675 289.099C671.827 290.01 671.675 290.922 671.067 291.681L611.378 369.445C610.77 370.204 610.011 370.66 609.099 370.66C608.796 370.66 608.644 370.66 608.492 370.508ZM399.046 156.506L608.34 362.762L663.473 290.922L399.046 156.506Z" fill="white"/>
<path d="M608.489 370.506C607.274 370.354 606.362 369.746 605.907 368.683C605.451 367.62 605.603 366.405 606.211 365.493L665.9 287.882C666.812 286.666 668.634 286.211 669.849 286.97L841.932 380.834C843.299 381.593 843.906 383.112 843.451 384.479C842.995 385.846 841.628 386.909 840.261 386.757L608.489 370.506C608.489 370.506 608.641 370.506 608.489 370.506ZM669.393 293.805L615.02 364.734L826.44 379.467L669.393 293.805Z" fill="white"/>
<path d="M668.181 292.897C667.877 292.897 667.422 292.745 667.118 292.593C665.903 291.986 665.143 290.619 665.295 289.252L687.47 143.293C687.622 142.23 688.381 141.318 689.293 140.863C690.356 140.407 691.419 140.559 692.33 141.166L760.525 186.275C761.285 186.731 761.74 187.642 761.892 188.554C762.044 189.465 761.74 190.376 761.133 191.136L670.763 291.985C670.155 292.593 669.244 292.897 668.181 292.897ZM693.09 149.064L673.193 279.683L753.994 189.313L693.09 149.064Z" fill="white"/>
<path d="M840.264 386.762C839.808 386.762 839.353 386.61 839.049 386.458L666.966 292.443C666.055 291.987 665.599 291.228 665.295 290.165C665.144 289.253 665.447 288.19 666.055 287.583L756.425 186.733C757.184 185.973 758.247 185.518 759.311 185.67C760.374 185.821 761.285 186.581 761.741 187.492L843.453 382.205C843.909 383.42 843.605 384.939 842.694 385.699C841.935 386.458 841.175 386.762 840.264 386.762ZM673.497 288.95L834.037 376.586L757.792 194.783L673.497 288.95Z" fill="white"/>
<path d="M595.126 1050.03C594.974 1050.03 594.823 1050.03 594.671 1049.88C589.659 1048.66 584.798 1047.3 579.938 1045.93C579.179 1045.78 578.571 1045.17 578.116 1044.56L525.412 956.014C524.805 954.951 524.805 953.432 525.716 952.369C526.475 951.305 527.842 951.002 529.209 951.305L631.274 984.568C632.186 984.871 632.945 985.631 633.249 986.39C633.553 987.302 633.553 988.365 632.945 989.124L598.012 1048.36C597.556 1049.57 596.341 1050.18 595.126 1050.03ZM582.824 1040.31C586.469 1041.37 590.114 1042.43 593.759 1043.19L625.503 989.428L535.133 959.963L582.824 1040.31Z" fill="white"/>
<path d="M1506.27 572.056C1505.96 572.056 1505.66 571.904 1505.36 571.904L1268.88 481.686C1267.51 481.079 1266.6 479.712 1266.9 478.193C1267.2 476.674 1268.42 475.611 1269.94 475.611L1491.53 473.94C1492.45 473.94 1493.36 474.396 1493.96 475.155C1504.6 488.065 1511.28 503.557 1513.1 519.961C1514.17 528.466 1513.86 537.123 1512.19 545.629C1512.65 546.388 1512.95 547.148 1512.8 547.907L1509.3 569.474C1509.15 570.385 1508.55 571.297 1507.79 571.752C1507.48 571.904 1506.87 572.056 1506.27 572.056ZM1286.8 481.686L1503.99 564.462L1506.57 548.059C1506.12 547.299 1505.81 546.54 1505.96 545.932C1507.63 537.579 1508.09 528.922 1507.03 520.568C1505.36 505.836 1499.43 491.862 1490.17 480.167L1286.8 481.686Z" fill="white"/>
<path d="M1524.04 589.675C1523.28 589.675 1522.67 589.372 1522.06 588.764L1504.29 571.146C1503.53 570.386 1503.23 569.475 1503.38 568.412L1506.88 546.693C1507.03 545.629 1507.79 544.718 1508.85 544.262C1509.91 543.807 1510.98 543.959 1511.89 544.566C1516.9 548.211 1521.76 552.464 1526.01 557.324C1526.47 557.932 1526.77 558.539 1526.77 559.299L1527.53 586.182C1527.53 587.397 1526.77 588.612 1525.56 589.22C1524.95 589.523 1524.49 589.675 1524.04 589.675ZM1509.91 567.804L1520.85 578.74L1520.39 560.818C1517.81 558.084 1515.08 555.502 1512.19 553.072L1509.91 567.804Z" fill="white"/>
<path d="M108.494 814.157C107.582 814.157 106.823 813.702 106.215 812.942L3.54285 684.45C3.23909 683.994 2.93531 683.539 2.93531 682.931L2.63154 680.957C2.47965 679.742 2.32779 678.678 2.17591 677.463C-0.709856 653.162 0.20141 628.557 4.75788 604.408C5.06164 603.193 5.97297 602.13 7.33991 601.826L132.491 579.044C133.402 578.892 134.465 579.195 135.225 579.803C135.984 580.562 136.288 581.474 136.136 582.537L111.835 811.272C111.683 812.487 110.772 813.55 109.557 814.006C109.253 814.006 108.797 814.157 108.494 814.157ZM9.01062 681.109L106.367 802.918L129.453 586.03L10.5294 607.749C6.4286 630.532 5.6692 653.77 8.40308 676.704C8.55496 677.767 8.70683 678.982 8.85871 680.045L9.01062 681.109Z" fill="white"/>
<path d="M1098.92 1542.89C1098.16 1542.89 1097.55 1542.58 1097.09 1542.13C1096.33 1541.52 1096.03 1540.61 1096.03 1539.7C1096.33 1526.33 1096.49 1513.12 1096.49 1498.99C1096.49 1497.93 1096.94 1497.02 1097.7 1496.41L1098.61 1495.8C1099.37 1495.2 1100.44 1495.04 1101.35 1495.2C1102.26 1495.5 1103.02 1496.11 1103.47 1497.02L1121.09 1536.2C1121.55 1537.11 1121.39 1538.18 1120.94 1539.09C1120.48 1540 1119.57 1540.61 1118.51 1540.76L1099.52 1542.89C1099.37 1543.04 1099.22 1543.04 1098.92 1542.89ZM1102.87 1511.14C1102.87 1519.65 1102.71 1527.85 1102.56 1536.2L1113.65 1534.84L1102.87 1511.14Z" fill="white"/>
<path d="M1117.9 1540.76C1116.69 1540.61 1115.77 1540 1115.32 1538.94L1097.7 1499.75C1097.09 1498.39 1097.55 1496.72 1098.76 1495.81C1099.98 1494.89 1101.8 1495.2 1102.86 1496.26L1137.95 1533.47C1138.71 1534.38 1139.01 1535.6 1138.56 1536.66C1138.1 1537.72 1137.19 1538.64 1135.97 1538.64L1118.51 1540.76C1118.36 1540.76 1118.2 1540.76 1117.9 1540.76ZM1111.07 1514.18L1120.03 1534.23L1128.84 1533.17L1111.07 1514.18Z" fill="white"/>
<path d="M1524.04 589.672C1523.58 589.672 1523.12 589.52 1522.82 589.217C1521.91 588.609 1521.3 587.698 1521.15 586.483L1520.39 559.6C1520.39 558.233 1521.15 557.018 1522.36 556.562C1523.58 556.106 1524.95 556.41 1525.86 557.473C1531.63 563.852 1536.19 570.839 1539.68 578.129C1540.44 579.648 1539.83 581.471 1538.31 582.23L1525.71 589.217C1525.25 589.52 1524.64 589.672 1524.04 589.672ZM1526.92 568.864L1527.22 581.167L1532.54 578.129C1531.02 574.94 1529.05 571.902 1526.92 568.864Z" fill="white"/>
<path d="M668.178 292.894C667.722 292.894 667.418 292.742 666.963 292.59L380.968 147.238C379.753 146.631 379.146 145.416 379.298 144.201C379.449 142.986 380.209 141.771 381.576 141.467L601.35 72.5124C602.109 72.2086 603.02 72.3605 603.78 72.6643C604.539 73.1199 605.147 73.7274 605.298 74.4868L671.671 288.793C671.975 290.008 671.671 291.375 670.76 292.134C669.849 292.742 669.089 292.894 668.178 292.894ZM390.689 145.112L663.166 283.477L600.135 79.499L390.689 145.112Z" fill="white"/>
<path d="M668.178 292.897C666.963 292.745 665.748 291.985 665.444 290.619L599.072 76.3126C598.616 74.9457 599.224 73.5787 600.287 72.8193C601.502 72.0599 602.869 72.0599 604.084 72.9712L692.631 141.166C693.543 141.926 693.998 142.989 693.846 144.204L671.672 290.163C671.52 291.682 670.305 292.745 668.786 292.897C668.482 292.897 668.33 292.897 668.178 292.897ZM608.185 84.0586L667.419 275.582L687.315 144.963L608.185 84.0586Z" fill="white"/>
<path d="M527.839 957.534C527.08 957.534 526.472 957.23 526.017 956.774C525.257 956.167 524.802 955.104 524.954 954.041L539.838 812.79C539.99 811.575 540.749 810.664 541.813 810.208C542.876 809.752 544.091 809.904 545.002 810.664L679.418 918.652C680.329 919.411 680.785 920.626 680.481 921.841C680.177 923.057 679.266 923.968 678.051 924.12L528.751 957.23C528.599 957.534 528.143 957.534 527.839 957.534ZM545.61 819.321L531.788 950.395L670.457 919.563L545.61 819.321Z" fill="white"/>
<path d="M630.058 990.793C629.906 990.793 629.602 990.793 629.298 990.641L527.233 957.379C525.866 956.923 524.955 955.708 525.107 954.189C525.259 952.822 526.17 951.607 527.537 951.304L676.837 918.193C678.204 917.889 679.419 918.497 680.179 919.56C680.938 920.623 680.938 922.142 680.179 923.205L632.944 989.578C632.184 990.337 631.121 990.793 630.058 990.793ZM540.143 954.949L628.995 983.958L670.155 926.091L540.143 954.949Z" fill="white"/>
<path d="M677.293 924.42C676.686 924.42 676.078 924.116 675.623 923.661L541.207 815.672C540.447 815.065 539.992 814.306 539.992 813.394C539.992 812.483 540.295 811.572 540.903 810.964L618.667 736.997C619.426 736.238 620.641 735.934 621.552 736.238C622.616 736.542 623.527 737.301 623.831 738.364L680.483 920.319C680.938 921.686 680.331 923.053 679.268 923.965C678.66 924.268 677.901 924.42 677.293 924.42ZM547.889 812.939L671.37 912.27L619.274 745.047L547.889 812.939Z" fill="white"/>
<path d="M677.295 924.425C676.079 924.273 674.864 923.514 674.561 922.147L617.909 740.192C617.605 738.977 617.909 737.762 618.82 736.851C619.731 736.091 621.098 735.787 622.161 736.243L963.593 884.936C964.96 885.543 965.719 886.91 965.415 888.277C965.263 889.644 964.048 890.859 962.681 891.011L677.75 924.274C677.598 924.425 677.446 924.425 677.295 924.425ZM625.958 744.9L679.725 917.743L950.379 885.999L625.958 744.9Z" fill="white"/>
<path d="M132.796 585.42C132.492 585.42 132.036 585.269 131.733 585.117L31.3384 538.489C30.5789 538.185 29.9714 537.426 29.6676 536.666C29.3639 535.907 29.5158 534.995 29.8196 534.236C34.0723 526.338 38.6287 518.896 43.4889 512.061C46.3747 438.246 84.0415 368.684 144.187 325.398C154.515 287.427 174.26 252.191 201.447 223.181C201.75 222.877 202.054 222.574 202.51 222.422L381.123 141.772C382.338 141.165 383.857 141.468 384.768 142.532C385.68 143.595 385.832 145.114 385.224 146.177L135.833 583.75C135.074 584.813 134.011 585.42 132.796 585.42ZM36.958 534.236L131.733 578.13L374.896 151.341L205.699 227.738C179.12 256.14 159.983 290.769 150.11 327.98C149.958 328.739 149.503 329.347 148.895 329.802C89.5093 372.026 52.45 440.525 49.868 513.124C49.868 513.732 49.7161 514.339 49.2605 514.795C44.8559 520.719 40.755 527.249 36.958 534.236Z" fill="white"/>
<path d="M7.49073 608.205C6.73132 608.205 5.97189 607.902 5.51625 607.294C4.75684 606.535 4.45311 605.472 4.60499 604.56C9.31334 579.955 17.6668 556.262 29.6655 534.239C30.425 532.72 32.2475 532.112 33.7664 532.872L134.161 579.5C135.376 580.107 136.135 581.322 135.983 582.841C135.831 584.208 134.768 585.271 133.401 585.575L8.25013 608.357C8.09825 608.206 7.7945 608.205 7.49073 608.205ZM33.9183 539.707C23.7422 558.996 16.2999 579.652 11.7434 601.067L122.618 580.867L33.9183 539.707Z" fill="white"/>
<path d="M1213.28 1158.32C1212.37 1158.32 1211.61 1157.72 1211.01 1156.96L1016.6 889.036C1015.99 888.124 1015.84 887.061 1016.29 885.998C1016.75 884.935 1017.66 884.327 1018.72 884.024L1109.4 869.443C1110.92 869.291 1112.28 870.05 1112.89 871.417L1216.63 1153.92C1217.23 1155.44 1216.47 1157.11 1215.11 1157.87C1214.5 1158.17 1213.89 1158.32 1213.28 1158.32ZM1024.8 889.491L1202.8 1134.93L1107.88 876.278L1024.8 889.491Z" fill="white"/>
<path d="M1213.29 1158.32C1212.07 1158.17 1211.01 1157.41 1210.55 1156.19L1106.82 873.692C1106.36 872.629 1106.67 871.262 1107.58 870.502C1108.34 869.591 1109.7 869.287 1110.77 869.591L1208.58 899.36C1209.95 899.816 1210.86 900.879 1210.86 902.246L1216.78 1154.98C1216.78 1156.5 1215.72 1157.86 1214.2 1158.17C1213.9 1158.32 1213.59 1158.32 1213.29 1158.32ZM1115.02 877.489L1209.95 1136.14L1204.48 904.828L1115.02 877.489Z" fill="white"/>
<path d="M690.357 146.937C689.75 146.937 689.142 146.633 688.687 146.329L600.139 78.1341C599.38 77.5266 598.924 76.4634 598.924 75.4002C598.924 74.3371 599.532 73.4258 600.443 72.8182L717.544 2.3448C717.848 2.19292 718.304 2.04105 718.759 1.88917L720.278 1.5854C721.493 1.43352 722.708 1.12977 723.923 0.977886C744.427 -1.45223 765.387 0.674116 784.98 7.05317C785.891 7.35694 786.651 8.11634 786.954 9.02763C787.258 9.93893 787.106 11.0021 786.499 11.9134L693.243 145.418C692.787 146.177 692.028 146.633 691.117 146.785C690.965 146.937 690.661 146.937 690.357 146.937ZM607.733 75.8559L689.902 139.191L778.753 11.9134C761.286 6.7494 742.757 5.23059 724.531 7.35695C723.468 7.50883 722.253 7.66069 721.189 7.81257L720.278 7.96446L607.733 75.8559Z" fill="white"/>
<path d="M632.639 1055.95C619.881 1054.89 607.122 1052.91 594.668 1050.03C593.757 1049.88 592.846 1049.12 592.542 1048.21C592.086 1047.29 592.238 1046.23 592.694 1045.32L627.627 986.086C628.082 985.175 628.994 984.719 630.057 984.568C631.12 984.416 632.031 984.871 632.791 985.479L691.417 1048.97C692.177 1049.88 692.48 1051.09 692.025 1052.16C691.569 1053.22 690.658 1054.13 689.443 1054.28L687.924 1054.59C686.557 1054.74 685.19 1055.04 683.823 1055.19C666.812 1057.02 649.498 1057.32 632.639 1055.95ZM600.288 1044.71C627.171 1050.48 654.965 1051.85 682.456 1048.66L630.816 992.769L600.288 1044.71Z" fill="white"/>
<path d="M688.685 1054.28C687.925 1054.28 687.166 1053.83 686.559 1053.22L627.932 989.733C626.869 988.669 626.869 986.999 627.628 985.784L674.864 919.411C675.471 918.5 676.382 918.044 677.446 918.044C678.509 917.892 679.42 918.652 680.028 919.563L752.02 1033.32C752.475 1034.08 752.627 1035.15 752.323 1035.9C752.02 1036.82 751.412 1037.58 750.501 1037.88C730.908 1045.78 710.252 1051.24 689.141 1054.28C688.989 1054.28 688.837 1054.28 688.685 1054.28ZM634.311 987.302L690.052 1047.6C708.885 1044.87 727.263 1040.01 744.729 1033.32L677.294 926.853L634.311 987.302Z" fill="white"/>
<path d="M941.567 1062.03C941.264 1062.03 940.96 1062.03 940.656 1061.87C897.673 1045.62 863.803 1012.21 846.793 969.986C820.517 999.603 787.255 1023.14 750.499 1037.88C749.132 1038.48 747.462 1037.88 746.702 1036.66L674.71 922.902C674.103 921.991 674.103 920.776 674.558 919.865C675.014 918.953 675.925 918.194 676.988 918.042L961.768 884.78C962.679 884.628 963.742 884.932 964.35 885.691C965.109 886.299 965.413 887.362 965.261 888.273L944.757 1059.29C944.605 1060.2 944.149 1061.12 943.238 1061.57C942.934 1061.87 942.175 1062.03 941.567 1062.03ZM848.311 960.721C848.463 960.721 848.463 960.721 848.615 960.721C849.678 960.873 850.59 961.632 851.045 962.695C866.082 1004.46 898.129 1037.57 939.289 1054.43L958.882 891.463L683.064 923.813L750.955 1031.04C787.407 1015.85 820.213 992.009 845.881 961.936C846.185 961.025 847.248 960.569 848.311 960.721Z" fill="white"/>
<path d="M1100.28 1501.58C1100.13 1501.58 1100.13 1501.58 1099.98 1501.58L1099.07 1501.42C1097.55 1501.12 1096.33 1499.75 1096.49 1498.24C1096.49 1497.02 1097.4 1495.35 1098.61 1494.89C1099.83 1494.44 1101.19 1494.29 1102.11 1495.35L1103.02 1496.26C1103.93 1497.32 1104.08 1498.69 1103.47 1499.91C1102.71 1500.97 1101.5 1501.58 1100.28 1501.58Z" fill="white"/>
<path d="M967.845 1087.54C966.782 1087.39 965.719 1086.78 965.263 1085.72C962.074 1079.19 959.492 1072.96 957.365 1067.04C951.898 1065.67 946.278 1063.85 940.81 1061.72C939.443 1061.27 938.684 1059.75 938.836 1058.38L959.34 887.362C959.492 885.692 960.859 884.628 962.378 884.628L1019.33 883.869C1020.24 883.869 1021.31 884.325 1021.92 885.084C1022.52 885.843 1022.67 886.907 1022.52 887.818L971.339 1085.11C971.035 1086.33 969.972 1087.39 968.605 1087.39C968.149 1087.54 967.997 1087.54 967.845 1087.54ZM945.215 1056.86C950.379 1058.69 955.391 1060.2 960.403 1061.57C961.466 1061.87 962.378 1062.63 962.681 1063.7C963.896 1067.49 965.415 1071.29 967.086 1075.39L1015.08 890.704L965.111 891.311L945.215 1056.86Z" fill="white"/>
<path d="M1230.14 529.681C1229.08 529.529 1228.02 528.922 1227.56 528.011L1104.08 295.023C1103.32 293.656 1103.78 291.834 1105.14 290.922C1106.51 290.011 1108.18 290.163 1109.4 291.378L1272.52 476.674C1273.58 477.889 1273.58 479.56 1272.52 480.775L1232.88 528.618C1232.27 529.378 1231.21 529.833 1230.14 529.681ZM1122.31 315.679L1231.05 520.872L1265.84 478.801L1122.31 315.679Z" fill="white"/>
<path d="M1315.81 1166.83L1213.44 1158.32C1211.77 1158.17 1210.55 1156.8 1210.55 1155.28L1204.63 902.551C1204.63 901.184 1205.54 899.817 1206.91 899.513C1208.27 899.057 1209.79 899.665 1210.55 900.88L1363.8 1137.51C1364.71 1138.88 1364.41 1140.7 1363.04 1141.77C1349.22 1152.55 1333.73 1161.05 1317.33 1166.83C1316.72 1166.83 1316.26 1166.83 1315.81 1166.83ZM1216.63 1152.25L1315.5 1160.45C1330.24 1155.13 1343.9 1147.84 1356.51 1138.27L1211.01 913.486L1216.63 1152.25Z" fill="white"/>
<path d="M1360.61 1142.22C1360.46 1142.22 1360.46 1142.22 1360.31 1142.22C1359.4 1142.07 1358.64 1141.61 1358.18 1140.85L1204.93 904.222C1204.48 903.462 1204.33 902.551 1204.63 901.64C1204.93 900.728 1205.54 899.969 1206.3 899.665L1312.16 848.025C1313.07 847.57 1314.14 847.57 1314.9 848.025C1315.81 848.481 1316.41 849.24 1316.57 850.304L1375.04 1129.16C1375.19 1130.22 1374.89 1131.29 1374.13 1132.05C1370.48 1135.39 1366.69 1138.73 1362.74 1141.77C1362.13 1142.07 1361.37 1142.37 1360.61 1142.22ZM1212.22 903.766L1361.68 1134.48C1364.11 1132.5 1366.38 1130.53 1368.51 1128.55L1311.25 855.468L1212.22 903.766Z" fill="white"/>
<path d="M1371.7 1132.8C1371.39 1132.8 1371.24 1132.65 1370.94 1132.65C1369.88 1132.35 1368.96 1131.44 1368.81 1130.22L1310.34 851.366C1310.19 850.455 1310.34 849.392 1311.1 848.633C1311.7 847.873 1312.77 847.418 1313.68 847.569L1493.66 857.897C1494.57 857.746 1495.63 858.505 1496.09 859.264C1496.7 860.024 1496.7 861.087 1496.39 862.15L1439.59 1016.77C1439.29 1017.53 1438.83 1017.98 1438.22 1018.44C1435.18 1020.11 1432.15 1021.78 1428.96 1023.45C1427.74 1024.06 1426.38 1024.66 1425.16 1025.12C1422.12 1065.82 1404.05 1103.64 1374.13 1131.89C1373.52 1132.5 1372.61 1132.8 1371.7 1132.8ZM1317.48 854.1L1373.82 1123.24C1400.71 1096.2 1416.66 1060.66 1419.09 1022.69C1419.09 1021.47 1419.84 1020.56 1420.91 1019.96L1421.82 1019.5C1423.19 1018.89 1424.71 1018.13 1426.07 1017.53C1428.81 1016.16 1431.39 1014.79 1433.97 1013.27L1488.95 863.821L1317.48 854.1Z" fill="white"/>
<path d="M1436.4 1018.89C1435.79 1018.89 1435.18 1018.59 1434.58 1018.13C1433.51 1017.22 1433.21 1015.85 1433.67 1014.64L1490.47 860.024C1490.93 858.809 1492.14 857.897 1493.51 857.897C1495.03 858.049 1496.09 858.809 1496.39 860.175L1513.71 920.473C1513.86 921.08 1513.86 921.688 1513.71 922.295C1501.86 963.152 1474.98 997.325 1438.07 1018.44C1437.61 1018.74 1437.01 1018.89 1436.4 1018.89ZM1493.2 871.263L1442.78 1008.26C1474.07 987.908 1496.85 957.532 1507.63 921.384L1493.2 871.263Z" fill="white"/>
<path d="M620.643 742.468C620.491 742.468 620.187 742.468 620.035 742.316C618.669 741.86 617.757 740.797 617.757 739.43L605.607 367.47C605.607 366.255 606.214 365.192 607.125 364.585C608.189 363.977 609.404 363.977 610.315 364.585L802.902 483.509C803.661 483.964 804.117 484.724 804.269 485.635C804.421 486.546 804.269 487.306 803.813 488.065L623.377 741.101C622.769 742.012 621.706 742.468 620.643 742.468ZM612.138 373.242L623.681 729.862L796.826 487.306L612.138 373.242Z" fill="white"/>
<path d="M801.23 489.432C800.775 489.432 800.319 489.28 799.864 488.976L607.125 370.053C605.91 369.293 605.302 367.774 605.758 366.407C606.214 365.041 607.581 364.129 608.947 364.281L840.72 380.381C841.935 380.229 842.542 380.988 843.15 381.748C843.606 382.659 843.757 383.57 843.454 384.633L804.42 487.458C804.116 488.369 803.357 488.977 802.446 489.28C801.99 489.432 801.686 489.584 801.23 489.432ZM621.402 371.42L799.864 481.534L836.012 386.304L621.402 371.42Z" fill="white"/>
<path d="M620.643 742.468C619.732 742.468 618.973 742.013 618.365 741.253C617.454 740.19 617.454 738.519 618.213 737.456L798.801 484.572C799.713 483.357 801.231 482.901 802.598 483.509L1013.41 572.816C1014.63 573.271 1015.39 574.487 1015.39 575.702C1015.39 576.917 1014.63 578.132 1013.41 578.587L622.01 742.165C621.555 742.317 621.099 742.468 620.643 742.468ZM802.598 490.192L629.908 731.989L1004.15 575.55L802.598 490.192Z" fill="white"/>
<path d="M962.073 891.006C961.77 891.006 961.314 890.854 961.01 890.703L619.579 742.01C618.364 741.554 617.604 740.339 617.756 739.124C617.756 737.909 618.516 736.694 619.731 736.238L1011.13 572.661C1012.19 572.205 1013.41 572.357 1014.32 573.117C1015.23 573.876 1015.69 574.939 1015.54 576.154L965.415 888.424C965.263 889.336 964.655 890.247 963.744 890.703C963.288 891.006 962.681 891.158 962.073 891.006ZM628.844 739.276L959.795 883.26L1008.09 580.559L628.844 739.276Z" fill="white"/>
<path d="M1012.04 578.735C1011.74 578.735 1011.43 578.583 1011.13 578.431L800.319 489.125C798.8 488.517 798.04 486.695 798.648 485.024L837.682 382.2C838.137 381.136 839.049 380.377 840.112 380.225C841.175 379.921 842.238 380.377 842.997 381.288L1014.78 573.419C1015.84 574.483 1015.84 576.153 1014.93 577.368C1014.17 578.431 1013.11 578.887 1012.04 578.735ZM805.482 484.568L1000.5 567.192L841.631 389.49L805.482 484.568Z" fill="white"/>
<path d="M1012.04 578.737C1011.28 578.737 1010.52 578.281 1009.91 577.673L838.135 385.694C837.528 385.087 837.224 384.175 837.376 383.264C837.376 382.353 837.831 381.593 838.591 380.986L960.552 282.262C961.464 281.503 962.679 281.351 963.59 281.807C964.653 282.262 965.413 283.174 965.565 284.237L1015.23 575.091C1015.53 576.458 1014.77 577.825 1013.41 578.433C1013.1 578.737 1012.5 578.888 1012.04 578.737ZM845.122 383.872L1007.33 565.219L960.401 290.616L845.122 383.872Z" fill="white"/>
<path d="M962.07 891.008C961.158 891.008 960.399 890.553 959.943 889.945C959.336 889.186 959.032 888.275 959.184 887.363L1009.15 575.093C1009.46 573.422 1010.82 572.359 1012.49 572.359C1014.17 572.511 1015.38 573.878 1015.38 575.397L1022.37 886.908C1022.37 887.667 1022.06 888.578 1021.46 889.186C1020.85 889.793 1020.09 890.097 1019.18 890.097L962.221 890.857C962.221 891.008 962.221 891.008 962.07 891.008ZM1009.91 610.482L966.018 884.629L1015.99 884.022L1009.91 610.482Z" fill="white"/>
<path d="M1019.03 890.254C1018.42 890.254 1017.81 889.95 1017.2 889.494C1016.45 888.887 1016.14 887.975 1016.14 887.216L1009.16 575.705C1009.16 574.186 1010.22 572.819 1011.74 572.516C1013.26 572.212 1014.77 573.123 1015.23 574.642L1112.89 871.572C1113.19 872.483 1113.04 873.395 1112.59 874.154C1112.13 874.913 1111.37 875.521 1110.31 875.673L1019.64 890.254C1019.48 890.254 1019.18 890.254 1019.03 890.254ZM1015.84 596.817L1022.22 883.419L1105.6 870.053L1015.84 596.817Z" fill="white"/>
<path d="M1012.04 578.741C1010.52 578.589 1009.46 577.526 1009.15 576.159L959.336 285.304C959.184 284.393 959.488 283.33 960.096 282.722C960.703 281.963 961.615 281.659 962.678 281.659L1107.12 290.316C1108.03 290.164 1108.94 290.924 1109.55 291.683C1110 292.443 1110.31 293.506 1109.85 294.417L1015.08 576.614C1014.77 577.981 1013.56 578.893 1012.04 578.741ZM966.323 288.19L1013.25 562.641L1102.56 296.24L966.323 288.19Z" fill="white"/>
<path d="M1012.04 578.739C1011.28 578.739 1010.52 578.283 1009.92 577.676C1009.16 576.765 1008.85 575.701 1009.31 574.486L1104.08 292.289C1104.54 291.074 1105.6 290.315 1106.82 290.163C1108.03 290.011 1109.25 290.77 1109.85 291.833L1233.33 524.821C1233.79 525.732 1233.79 526.795 1233.49 527.555C1233.03 528.466 1232.27 529.074 1231.36 529.377L1013.11 578.435C1012.65 578.739 1012.35 578.739 1012.04 578.739ZM1107.58 301.402L1017.05 571.297L1225.74 524.365L1107.58 301.402Z" fill="white"/>
<path d="M382.187 147.541H382.035C380.972 147.39 380.061 146.782 379.605 145.719L363.353 111.545C362.746 110.178 363.202 108.356 364.569 107.445C387.047 93.1676 411.5 82.8396 437.624 76.7643C438.991 76.4605 440.358 77.068 440.965 78.2831C441.725 79.4982 441.573 81.017 440.662 81.9283L384.921 146.326C384.161 147.238 383.098 147.693 382.187 147.541ZM370.188 111.545L383.25 138.732L429.27 85.5735C408.311 91.345 388.566 100.002 370.188 111.545Z" fill="white"/>
<path d="M382.185 147.541C381.274 147.389 380.363 146.934 379.755 146.174C378.996 144.959 379.147 143.44 380.059 142.377L435.8 77.9792C436.255 77.5235 436.863 77.0679 437.47 76.916C446.128 74.9415 454.785 73.4227 463.138 72.3595C467.847 71.752 472.403 71.4482 476.96 71.1445C509.918 46.5395 548.952 31.0475 589.808 26.1873C595.58 25.5798 601.351 25.1241 606.971 24.8204C607.882 24.6685 608.794 25.1241 609.401 25.8835C610.009 26.4911 610.312 27.4024 610.312 28.3136L605.3 75.5491C605.148 76.7641 604.237 77.8273 603.174 78.2829L383.4 147.238C382.945 147.541 382.489 147.693 382.185 147.541ZM439.9 82.9913L392.057 138.125L599.225 73.1189L603.63 31.5032C599.377 31.8069 594.972 32.1107 590.568 32.7182C550.471 37.4266 512.196 52.7667 479.997 76.916C479.542 77.2198 478.934 77.5235 478.327 77.5235C473.466 77.8273 468.758 78.131 463.898 78.7386C456.152 79.6499 447.95 81.0168 439.9 82.9913Z" fill="white"/>
<path d="M601.961 78.5923C601.505 78.5923 600.898 78.4405 600.594 78.1367C599.531 77.5292 599.075 76.3141 599.075 75.0991L604.087 27.8636C604.239 26.3448 605.454 25.1298 607.125 25.1298C623.225 24.3704 639.628 25.4335 655.576 28.0155C674.105 14.498 695.824 5.38508 718.759 1.89179C720.277 1.58802 721.644 2.4993 722.252 3.86624C722.708 5.23318 722.252 6.90389 720.885 7.6633L603.784 78.1367C603.176 78.5924 602.569 78.7442 601.961 78.5923ZM610.011 31.2051L605.91 69.4794L700.685 12.3717C685.345 16.9281 670.916 24.2185 658.158 33.7871C657.398 34.2427 656.639 34.5465 655.727 34.3946C640.843 31.8126 625.351 30.7494 610.011 31.2051Z" fill="white"/>
<path d="M212.684 889.341C212.532 889.341 212.532 889.341 212.684 889.341C169.246 884.025 128.237 866.862 93.6083 839.979C92.3932 839.068 92.0894 837.397 92.6969 836.03L105.911 809.451C106.67 807.932 108.493 807.325 110.012 807.932L265.539 878.102C266.906 878.709 267.514 880.076 267.362 881.443C267.21 882.81 265.995 883.873 264.628 884.025L213.291 889.037C212.988 889.341 212.836 889.341 212.684 889.341ZM99.5317 836.486C132.642 861.698 171.828 877.798 212.988 882.962L252.173 879.165L110.163 815.071L99.5317 836.486Z" fill="white"/>
<path d="M222.407 890.248C219.066 889.944 215.724 889.64 212.535 889.185C211.016 889.033 209.801 887.666 209.801 885.995C209.801 884.324 211.016 882.957 212.686 882.806L264.023 877.793C265.086 877.642 266.149 878.097 266.757 879.009C267.364 879.92 267.668 880.983 267.212 882.046L265.086 887.97C264.63 889.185 263.567 889.944 262.352 890.096C248.986 891.311 235.621 891.311 222.407 890.248Z" fill="white"/>
<path d="M264.019 884.321C263.715 884.321 263.259 884.169 262.955 884.017L107.428 813.848C106.213 813.24 105.454 812.025 105.605 810.658L129.907 581.923C130.059 580.556 131.122 579.341 132.641 579.19C134.159 579.038 135.374 579.645 135.982 581.012L267.208 879.916C267.664 881.131 267.512 882.498 266.601 883.41C265.841 884.017 264.93 884.321 264.019 884.321ZM112.136 808.987L258.095 874.904L134.919 594.378L112.136 808.987Z" fill="white"/>
<path d="M264.022 884.324C262.806 884.173 261.895 883.565 261.44 882.502L130.213 583.597C129.758 582.686 129.909 581.623 130.365 580.712C130.973 579.8 131.884 579.193 132.947 579.193L412.107 564.156C413.17 564.156 414.233 564.612 414.841 565.523C415.448 566.435 415.6 567.65 415.144 568.713L267.211 882.654C266.755 883.717 265.54 884.476 264.325 884.476C264.173 884.324 264.022 884.324 264.022 884.324ZM137.807 585.116L264.325 873.541L407.095 570.687L137.807 585.116Z" fill="white"/>
<path d="M262.501 890.096C261.589 889.944 260.526 889.641 259.919 888.881C259.311 887.97 258.704 886.907 259.159 885.843L261.286 879.92C261.741 878.705 262.805 877.946 264.171 877.794C265.387 877.794 266.602 878.401 267.209 879.616L269.791 885.084C270.247 885.995 270.247 887.058 269.639 887.97C269.184 888.881 268.272 889.489 267.209 889.489L263.108 889.944C262.805 890.096 262.653 890.096 262.501 890.096Z" fill="white"/>
<path d="M408.613 873.848C408.157 873.848 407.853 873.696 407.549 873.544C406.79 873.24 406.182 872.481 405.879 871.57C403.6 863.824 401.626 855.926 400.107 847.876C399.803 846.205 400.867 844.535 402.537 844.231L542.421 810.209C544.091 809.754 545.61 810.665 546.218 812.336C546.673 813.854 545.914 815.525 544.395 816.284L410.283 873.848C409.676 873.848 409.22 873.848 408.613 873.848ZM406.942 849.547C408.157 855.166 409.524 860.786 411.043 866.406L507.032 825.245L406.942 849.547Z" fill="white"/>
<path d="M266.602 889.792C265.539 889.64 264.476 889.033 264.02 887.97L261.287 882.502C260.831 881.591 260.831 880.679 261.287 879.768C261.742 878.857 262.502 878.249 263.413 878.097L356.365 855.467C357.884 855.163 359.554 855.923 360.01 857.441C360.618 858.96 360.01 860.631 358.643 861.39C331.304 876.427 301.535 885.995 270.248 889.64L267.058 889.944C267.058 889.792 266.754 889.792 266.602 889.792ZM326.748 869.136L268.729 883.261L269.488 883.109C289.385 880.831 308.522 876.123 326.748 869.136Z" fill="white"/>
<path d="M264.021 884.325C263.11 884.325 262.351 883.87 261.895 883.11C261.136 882.199 260.984 880.832 261.439 879.769L409.373 565.828C409.828 564.765 410.891 564.006 412.107 564.006C413.322 564.006 414.385 564.613 414.992 565.676L545.915 811.574C546.371 812.485 546.371 813.396 546.067 814.308C545.611 815.219 544.852 815.827 543.941 816.13L404.057 850.152C403.297 850.304 402.386 850.304 401.627 849.696C400.867 849.241 400.412 848.481 400.26 847.722C399.348 842.862 398.589 838.457 397.981 834.204C385.831 844.38 372.769 853.493 358.948 861.087C358.644 861.239 358.492 861.391 358.188 861.391L265.236 884.022C264.629 884.326 264.325 884.325 264.021 884.325ZM412.41 574.334L269.945 876.579L356.062 855.62C371.098 847.266 385.223 837.394 398.133 826.003C399.045 825.243 400.26 824.94 401.323 825.395C402.386 825.851 403.146 826.762 403.297 827.977C403.905 832.837 404.664 837.849 405.728 843.469L538.473 811.118L412.41 574.334Z" fill="white"/>
<path d="M758.55 191.897C758.095 191.897 757.487 191.745 757.032 191.441L688.836 146.332C688.077 145.877 687.621 145.117 687.469 144.206C687.318 143.295 687.621 142.383 688.229 141.776L796.977 14.3464C797.888 13.2833 799.407 12.9795 800.622 13.587L801.533 14.0427C801.685 14.0427 801.685 14.1946 801.837 14.1946C812.013 9.4862 822.797 5.84104 833.884 3.56281C835.099 3.41093 836.162 3.71469 836.922 4.62598C837.681 5.53727 837.833 6.75232 837.377 7.8155L761.588 190.226C761.284 191.138 760.525 191.745 759.614 192.049C759.31 191.897 759.006 192.049 758.55 191.897ZM695.367 143.143L757.335 184.151L829.328 10.8532C820.366 13.1314 811.709 16.3209 803.356 20.2698C802.444 20.7255 801.533 20.7255 800.622 20.2698C800.47 20.2698 800.47 20.118 800.318 20.118L695.367 143.143Z" fill="white"/>
<path d="M690.354 146.937C689.746 146.937 689.139 146.633 688.683 146.33C687.316 145.267 687.012 143.444 688.076 142.077L781.331 8.57246C782.091 7.3574 783.61 6.90175 784.825 7.3574C789.989 9.02811 795.152 11.0026 800.62 13.5846C801.532 14.0402 802.139 14.7996 802.443 15.7109C802.595 16.6222 802.443 17.6854 801.835 18.4448L693.088 145.874C692.328 146.633 691.417 146.937 690.354 146.937ZM785.128 13.8883L730.754 91.804L794.241 17.3816C791.204 16.1666 788.166 14.9515 785.128 13.8883Z" fill="white"/>
<path d="M1335.86 220.448C1335.55 220.448 1335.25 220.296 1334.95 220.144L1268.42 192.806C1267.66 192.502 1266.9 191.742 1266.6 190.983C1266.29 190.224 1266.29 189.16 1266.75 188.401L1279.51 164.555C1280.27 163.189 1281.94 162.581 1283.46 163.037C1308.21 172.453 1328.41 191.742 1338.89 215.892C1339.35 217.107 1339.2 218.474 1338.29 219.385C1337.68 220.144 1336.77 220.6 1335.86 220.448ZM1274.04 188.401L1329.63 211.183C1319.61 192.806 1303.35 178.073 1283.91 170.023L1274.04 188.401Z" fill="white"/>
<path d="M1470.88 422.904C1470.12 422.904 1469.36 422.448 1468.75 421.841L1267.2 192.043C1266.14 190.98 1266.14 189.309 1267.05 188.094C1267.96 186.879 1269.48 186.423 1270.85 187.031L1337.22 214.37C1337.98 214.673 1338.59 215.281 1338.89 216.04C1341.17 221.204 1342.84 226.368 1344.21 231.532C1383.09 250.214 1409.21 286.666 1414.23 329.648C1414.53 332.838 1414.83 336.027 1414.99 339.065C1444.91 356.38 1466.47 385.389 1474.37 418.955C1474.68 420.322 1474.07 421.841 1472.7 422.448C1472.09 422.904 1471.49 422.904 1470.88 422.904ZM1280.87 197.966L1464.04 406.804C1454.32 380.225 1435.34 357.746 1410.28 343.773C1409.37 343.166 1408.76 342.254 1408.61 341.039C1408.45 337.546 1408.3 333.901 1407.85 330.408C1402.99 289.248 1377.77 254.163 1340.11 236.696C1339.2 236.241 1338.59 235.481 1338.44 234.57C1337.37 229.558 1335.7 224.698 1333.73 219.837L1280.87 197.966Z" fill="white"/>
<path d="M95.2765 840.583C94.669 840.583 94.0615 840.279 93.6059 839.975C66.5708 818.864 43.7885 791.677 27.9927 761.3C27.3852 760.085 27.5371 758.415 28.7521 757.503C29.8153 756.592 31.3341 756.44 32.5492 757.2L110.465 808.232C111.832 809.143 112.287 810.814 111.528 812.333L98.3142 838.912C97.8585 839.824 97.0991 840.431 96.1878 840.583C95.8841 840.583 95.5803 840.583 95.2765 840.583ZM39.8395 769.502C54.1165 793.499 72.798 814.915 94.3653 832.533L104.541 812.029L39.8395 769.502Z" fill="white"/>
<path d="M108.491 814.16C108.035 814.16 107.428 814.008 106.972 813.705L29.0566 762.672C28.601 762.368 28.2972 761.913 27.9934 761.457C15.2353 737.004 6.72989 710.577 2.93283 683.086C2.78095 681.719 3.54035 680.352 4.7554 679.745C6.12234 679.137 7.64119 679.593 8.4006 680.656L111.073 809.148C111.984 810.363 111.984 812.034 110.921 813.249C110.314 813.857 109.402 814.16 108.491 814.16ZM33.1574 757.66L93.7584 797.453L10.9826 693.87C15.3872 716.196 22.8294 737.612 33.1574 757.66Z" fill="white"/>
<path d="M1106.66 296.694C1106.06 296.694 1105.45 296.391 1104.99 296.087C1103.93 295.327 1103.47 293.96 1103.93 292.594L1142.2 166.379C1142.66 164.861 1144.18 163.949 1145.85 164.253L1270.24 187.035C1271.46 187.339 1272.52 188.25 1272.82 189.617C1273.13 190.832 1272.52 192.199 1271.46 192.807L1108.79 296.239C1108.03 296.543 1107.42 296.694 1106.66 296.694ZM1147.37 170.784L1112.43 286.215L1261.13 191.592L1147.37 170.784Z" fill="white"/>
<path d="M1144.94 170.324C1144.48 170.324 1143.87 170.172 1143.57 169.869C1142.81 169.413 1142.2 168.502 1142.05 167.59L1131.87 80.4098C1131.72 79.0429 1132.48 77.6759 1133.85 77.0684C1135.22 76.6128 1136.73 76.9166 1137.49 78.1316L1137.95 78.7391C1177.14 79.4985 1211.61 103.192 1226.8 139.036C1227.1 139.796 1227.1 140.707 1226.8 141.618C1226.5 142.378 1225.74 142.985 1224.98 143.289L1146.3 170.324C1145.85 170.324 1145.39 170.324 1144.94 170.324ZM1138.71 84.9663L1147.82 162.882L1219.51 138.277C1204.93 106.685 1173.95 85.8776 1138.71 84.9663Z" fill="white"/>
<path d="M1269.33 193.108C1269.18 193.108 1269.18 193.108 1269.03 193.108L1144.64 170.326C1143.12 170.022 1141.9 168.655 1142.05 166.984C1142.21 165.314 1143.42 164.099 1145.09 164.099L1272.98 159.998C1273.28 159.998 1273.58 159.998 1273.89 160.15C1276.93 160.909 1280.11 161.972 1283.46 163.339C1284.37 163.643 1284.97 164.25 1285.28 165.162C1285.58 165.921 1285.58 166.984 1285.13 167.744L1272.37 191.589C1271.91 192.5 1270.7 193.26 1269.33 193.108ZM1174.86 169.414L1267.96 186.425L1277.84 167.744C1276.17 167.136 1274.49 166.681 1272.82 166.225L1174.86 169.414Z" fill="white"/>
<path d="M1144.94 170.328C1143.57 170.176 1142.36 169.113 1142.05 167.746C1141.75 166.227 1142.66 164.708 1144.18 164.101L1222.85 137.066C1224.37 136.458 1226.19 137.37 1226.8 138.888C1229.54 145.116 1231.51 151.646 1232.73 158.026C1234.09 157.722 1235.61 157.57 1237.13 157.418C1249.58 156.051 1262.04 156.81 1274.04 160.152C1275.56 160.608 1276.47 161.974 1276.32 163.493C1276.16 165.012 1274.8 166.227 1273.28 166.227L1145.39 170.328C1145.24 170.328 1145.09 170.328 1144.94 170.328ZM1222.09 144.052L1166.05 163.341L1226.8 161.367C1225.89 155.595 1224.22 149.824 1222.09 144.052Z" fill="white"/>
<path d="M758.548 191.893C757.637 191.893 756.877 191.437 756.27 190.678C755.662 189.766 755.511 188.551 755.814 187.64L831.604 5.22933C832.059 4.31804 832.819 3.55864 833.882 3.40676C838.135 2.49547 842.387 1.88792 846.336 1.43227C876.105 -2.06102 905.874 3.71051 931.998 18.1393C932.453 18.2912 932.909 18.595 933.213 18.8987L1061.71 155.593C1062.62 156.504 1062.77 157.719 1062.31 158.782C1061.86 159.846 1060.79 160.757 1059.73 160.757L758.852 192.045C759.004 192.045 758.7 192.045 758.548 191.893ZM836.768 9.17827L763.712 185.21L1052.9 155.137L929.264 23.6071C904.203 9.78581 875.649 4.16615 847.096 7.50756C843.754 7.96321 840.413 8.41886 836.768 9.17827Z" fill="white"/>
<path d="M962.224 288.034C961.92 288.034 961.464 287.882 961.16 287.73L757.486 191.74C756.271 191.133 755.512 189.766 755.664 188.399C755.967 187.032 757.031 185.969 758.398 185.817L1059.28 154.529C1060.49 154.377 1061.71 154.985 1062.31 156.2C1062.92 157.263 1062.92 158.63 1062.16 159.693L965.109 286.971C964.35 287.578 963.287 288.034 962.224 288.034ZM770.396 190.829L961.616 280.895L1052.75 161.516L770.396 190.829Z" fill="white"/>
<path d="M1059.43 160.761C1058.67 160.761 1057.91 160.305 1057.3 159.697L928.812 23.0033C928.052 22.2439 927.749 21.1808 928.052 20.1176C928.356 19.0544 929.116 18.295 930.027 17.8393C937.014 15.4092 944 13.7385 950.987 12.9791C973.161 10.3971 995.64 15.5611 1014.47 27.2561L1015.08 27.1042C1033.91 24.9778 1052.9 28.1673 1070.06 36.6727C1071.28 37.2803 1071.88 38.4953 1071.88 39.7104L1062.77 157.723C1062.62 158.938 1061.86 160.001 1060.65 160.457C1060.34 160.609 1059.89 160.761 1059.43 160.761ZM936.862 22.3958L1057 150.281L1065.51 41.533C1050.01 34.2427 1033 31.5088 1015.99 33.4832L1014.47 33.787C1013.71 33.9389 1012.95 33.6351 1012.35 33.3313C994.577 21.9402 973.01 16.9281 951.898 19.3582C946.886 19.8138 941.874 20.877 936.862 22.3958Z" fill="white"/>
<path d="M962.223 288.037C961.008 287.885 960.097 287.278 959.641 286.215C959.186 285.151 959.338 283.936 959.945 283.025L1057 155.748C1057.76 154.836 1058.82 154.229 1060.04 154.533C1061.25 154.685 1062.16 155.444 1062.47 156.659L1109.85 292.594C1110.16 293.657 1110.01 294.72 1109.4 295.479C1108.79 296.391 1107.73 296.846 1106.66 296.694L962.223 288.037C962.375 288.037 962.375 288.037 962.223 288.037ZM1058.52 164.101L968.603 281.962L1102.41 290.012L1058.52 164.101Z" fill="white"/>
<path d="M1106.66 296.693C1105.45 296.541 1104.38 295.782 1103.93 294.567L1056.54 158.632C1056.24 157.569 1056.39 156.506 1057 155.594C1057.76 154.683 1058.67 154.379 1059.88 154.379L1145.54 163.948C1146.46 164.1 1147.37 164.555 1147.82 165.315C1148.28 166.074 1148.43 167.137 1148.13 167.897L1109.85 294.111C1109.4 295.478 1108.33 296.389 1106.97 296.389C1106.81 296.693 1106.81 296.693 1106.66 296.693ZM1064.29 161.214L1106.81 283.175L1141.14 169.871L1064.29 161.214Z" fill="white"/>
<path d="M1144.94 170.324L1059.28 160.604C1057.61 160.452 1056.39 158.933 1056.54 157.263L1065.66 39.25C1065.81 38.1868 1066.42 37.2755 1067.33 36.668C1068.24 36.2123 1069.3 36.0604 1070.21 36.5161C1073.55 38.1868 1076.29 39.7056 1078.72 41.2245C1101.96 45.7809 1122.92 58.8428 1137.5 77.8281C1137.8 78.2837 1138.1 78.8913 1138.1 79.3469L1148.28 166.527C1148.43 167.439 1148.13 168.502 1147.37 169.109C1146.76 170.021 1145.85 170.476 1144.94 170.324ZM1063.07 154.832L1141.6 163.642L1132.03 81.3214C1118.21 63.703 1098.77 51.7043 1077.05 47.6035C1076.74 47.4516 1076.29 47.4516 1075.98 47.1479C1074.62 46.2366 1073.1 45.4772 1071.73 44.5659L1063.07 154.832Z" fill="white"/>
<path d="M1063.84 1251.73C1062.62 1251.58 1061.41 1250.82 1061.1 1249.45C1049.41 1212.24 1034.98 1177.92 1018.27 1147.54C995.794 1131.9 977.416 1110.48 965.266 1085.72C964.962 1084.96 964.81 1084.21 965.114 1083.6L1016.3 886.303C1016.6 885.088 1017.67 884.176 1019.03 884.024C1020.4 883.873 1021.61 884.48 1022.22 885.695L1188.08 1206.77C1188.38 1207.23 1188.53 1207.84 1188.38 1208.45L1188.08 1212.09C1187.93 1213.46 1187.17 1214.52 1185.8 1214.82L1065.05 1251.58C1064.75 1251.73 1064.29 1251.73 1063.84 1251.73ZM971.341 1084.05C983.188 1107.6 1000.81 1127.95 1022.37 1142.83C1022.83 1143.14 1023.13 1143.44 1023.28 1143.9C1039.99 1173.97 1054.42 1207.84 1066.12 1244.59L1181.85 1209.51V1208.9L1020.1 896.023L971.341 1084.05Z" fill="white"/>
<path d="M1100.28 1501.57C1099.52 1501.57 1098.76 1501.12 1098.16 1500.51L1097.24 1499.6C1096.79 1498.99 1096.33 1498.23 1096.33 1497.47C1095.57 1405.58 1083.73 1322.2 1060.95 1249.6C1060.64 1248.84 1060.79 1247.93 1061.25 1247.17C1061.55 1246.41 1062.31 1245.8 1063.07 1245.65L1183.82 1208.9C1184.88 1208.59 1185.94 1208.74 1186.7 1209.5C1187.46 1210.11 1187.92 1211.17 1187.92 1212.24C1187.77 1214.67 1187.61 1217.25 1187.46 1219.68L1103.47 1499.45C1103.17 1500.51 1102.26 1501.27 1101.19 1501.57C1100.89 1501.57 1100.59 1501.57 1100.28 1501.57ZM1068.08 1250.66C1089.04 1318.86 1100.59 1396.17 1102.56 1480.76L1181.39 1218.46C1181.39 1217.86 1181.39 1217.1 1181.54 1216.19L1068.08 1250.66Z" fill="white"/>
<path d="M1184.88 1211.33C1183.82 1211.18 1182.76 1210.57 1182.3 1209.66L1016.29 888.583C1015.53 887.065 1015.99 885.394 1017.36 884.483C1018.72 883.571 1020.55 884.027 1021.61 885.242L1216.02 1153.31C1216.63 1154.23 1216.78 1155.44 1216.32 1156.5L1212.22 1165.01C1211.46 1166.53 1209.79 1167.14 1208.27 1166.68C1203.11 1164.86 1198.25 1162.88 1193.84 1160.76C1191.41 1175.34 1189.59 1191.13 1188.22 1207.54C1188.22 1207.84 1188.38 1208.14 1188.38 1208.6C1188.38 1210.27 1186.7 1211.18 1184.88 1211.33C1184.88 1211.33 1185.03 1211.33 1184.88 1211.33ZM1041.35 922.909L1183.06 1197.06C1184.43 1182.48 1186.25 1168.5 1188.53 1155.44C1188.68 1154.53 1189.29 1153.62 1190.2 1153.16C1191.11 1152.71 1192.17 1152.71 1193.08 1153.16C1197.79 1155.44 1202.65 1157.57 1207.97 1159.54L1209.94 1155.44L1041.35 922.909Z" fill="white"/>
<path d="M1100.28 1501.58C1099.52 1501.58 1098.61 1501.12 1098.16 1500.51C1097.4 1499.75 1097.25 1498.54 1097.55 1497.63L1181.39 1218.62C1181.84 1217.1 1183.36 1216.19 1185.03 1216.34C1186.55 1216.65 1187.77 1218.01 1187.61 1219.68C1181.08 1321.6 1195.82 1429.58 1205.23 1484.87C1205.39 1485.78 1205.23 1486.54 1204.63 1487.3C1204.17 1488.06 1203.41 1488.51 1202.5 1488.51L1101.04 1501.58C1100.74 1501.58 1100.43 1501.58 1100.28 1501.58ZM1180.02 1244.9L1104.99 1494.59L1198.4 1482.59C1189.74 1430.95 1177.14 1337.39 1180.02 1244.9Z" fill="white"/>
<path d="M1249.89 1175.48C1235.92 1174.27 1221.94 1171.38 1208.58 1166.52C1207.67 1166.22 1207.06 1165.61 1206.76 1164.7C1206.45 1163.79 1206.45 1162.88 1206.91 1162.12L1211.01 1153.61C1211.62 1152.4 1212.83 1151.79 1214.05 1151.79L1316.42 1160.3C1317.93 1160.45 1319.15 1161.51 1319.3 1163.03C1319.45 1164.55 1318.54 1165.92 1317.18 1166.37C1305.78 1170.47 1293.79 1173.21 1281.63 1174.57C1271 1176.09 1260.37 1176.24 1249.89 1175.48ZM1213.9 1161.82C1225.74 1165.76 1238.04 1168.19 1250.35 1169.26C1260.52 1170.02 1270.7 1169.87 1280.88 1168.65C1286.95 1167.89 1293.03 1166.83 1298.95 1165.46L1215.57 1158.47L1213.9 1161.82Z" fill="white"/>
<path d="M477.414 986.24C476.655 986.24 476.048 985.936 475.44 985.328C462.834 973.33 451.291 959.964 441.418 945.687C440.659 944.624 440.659 943.257 441.266 942.194C441.874 941.131 443.241 940.675 444.304 940.675L528.447 951.307C529.814 951.459 530.877 952.522 531.181 953.889C531.485 955.256 530.877 956.623 529.662 957.23L479.085 985.936C478.629 986.088 478.022 986.24 477.414 986.24ZM450.683 947.814C458.885 959.053 468.15 969.533 478.022 979.101L518.271 956.319L450.683 947.814Z" fill="white"/>
<path d="M580.542 1046.08C580.391 1046.08 580.087 1046.08 579.935 1045.93C541.053 1034.38 504.905 1013.42 475.44 985.326C474.68 984.719 474.377 983.656 474.529 982.744C474.681 981.681 475.288 980.922 476.199 980.314L526.776 951.608C528.295 950.697 530.117 951.305 531.029 952.672L583.732 1041.22C584.339 1042.28 584.34 1043.8 583.428 1044.71C582.669 1045.78 581.606 1046.23 580.542 1046.08ZM482.882 983.656C509.006 1007.65 540.294 1026.18 573.86 1037.42L527.08 958.595L482.882 983.656Z" fill="white"/>
<path d="M1109.55 875.821C1109.4 875.821 1109.09 875.82 1108.94 875.669C1107.88 875.365 1107.12 874.605 1106.82 873.694L1009.16 576.764C1008.85 575.549 1009.16 574.334 1010.07 573.423C1010.98 572.511 1012.34 572.36 1013.41 572.815L1313.22 700.852C1314.29 701.308 1314.89 702.219 1315.05 703.282C1315.2 704.345 1314.74 705.409 1313.98 706.168L1111.83 875.213C1111.22 875.517 1110.46 875.821 1109.55 875.821ZM1017.51 581.321L1111.52 867.315L1306.24 704.649L1017.51 581.321Z" fill="white"/>
<path d="M1311.86 706.776C1311.55 706.776 1311.25 706.624 1310.79 706.472L1010.98 578.435C1009.76 577.828 1009 576.612 1009 575.246C1009.16 573.879 1010.07 572.815 1011.43 572.512L1229.69 523.454C1231.21 523.15 1232.57 523.909 1233.18 525.276L1314.74 702.371C1315.35 703.586 1315.05 704.953 1314.14 705.864C1313.68 706.472 1312.77 706.776 1311.86 706.776ZM1022.52 576.612L1305.78 697.511L1228.63 530.136L1022.52 576.612Z" fill="white"/>
<path d="M1207.37 905.584C1207.21 905.584 1206.91 905.584 1206.76 905.432L1108.95 875.663C1107.88 875.36 1106.97 874.448 1106.82 873.233C1106.67 872.17 1106.97 870.955 1107.88 870.195L1310.04 701.151C1311.25 700.239 1312.92 700.239 1313.99 701.151C1315.2 702.062 1315.51 703.733 1314.75 705.099L1210.4 903.913C1209.8 904.977 1208.58 905.736 1207.37 905.584ZM1116.39 871.259L1206.15 898.598L1301.99 716.187L1116.39 871.259Z" fill="white"/>
<path d="M1207.36 905.591C1206.6 905.591 1205.84 905.287 1205.39 904.679C1204.48 903.768 1204.17 902.249 1204.78 901.034L1309.12 702.22C1309.88 701.005 1311.25 700.246 1312.62 700.55C1313.98 700.853 1315.05 702.22 1315.05 703.587L1316.57 850.761C1316.57 851.976 1315.81 853.039 1314.74 853.647L1208.88 905.287C1208.43 905.591 1207.97 905.591 1207.36 905.591ZM1308.97 716.194L1214.8 895.415L1310.19 848.787L1308.97 716.194Z" fill="white"/>
<path d="M1311.86 706.777C1310.79 706.625 1309.73 706.018 1309.27 704.955L1227.71 527.86C1227.26 526.797 1227.41 525.43 1228.17 524.518L1267.81 476.675C1268.57 475.764 1269.78 475.309 1271 475.612C1272.21 475.916 1273.13 476.827 1273.28 478.042L1315.35 702.98C1315.65 704.499 1314.74 706.018 1313.22 706.625C1312.62 706.777 1312.16 706.777 1311.86 706.777ZM1234.09 526.949L1304.26 679.134L1268.11 485.94L1234.09 526.949Z" fill="white"/>
<path d="M1311.86 706.774C1311.56 706.774 1311.25 706.622 1310.95 706.471C1310.04 706.015 1309.28 705.256 1309.13 704.192L1267.06 479.255C1266.9 478.191 1267.21 476.976 1268.12 476.217C1269.03 475.458 1270.24 475.306 1271.31 475.609L1507.79 565.828C1508.85 566.283 1509.61 567.195 1509.76 568.41C1509.92 569.625 1509.46 570.688 1508.4 571.447L1313.99 706.167C1313.23 706.623 1312.47 706.774 1311.86 706.774ZM1274.19 483.659L1314.29 698.269L1499.74 569.777L1274.19 483.659Z" fill="white"/>
<path d="M1313.23 853.954C1311.56 853.802 1310.34 852.435 1310.34 850.765L1308.82 703.591C1308.82 702.376 1309.58 701.161 1310.64 700.705C1311.71 700.249 1313.07 700.401 1313.99 701.161L1495.48 858.663C1496.55 859.574 1496.85 860.941 1496.4 862.308C1495.94 863.523 1494.57 864.282 1493.21 864.282L1313.23 853.954C1313.38 853.954 1313.38 853.954 1313.23 853.954ZM1315.35 710.577L1316.72 847.727L1484.55 857.448L1315.35 710.577Z" fill="white"/>
<path d="M1493.2 864.274C1492.6 864.274 1491.84 863.971 1491.38 863.515L1309.88 706.013C1309.12 705.405 1308.67 704.342 1308.82 703.279C1308.97 702.216 1309.58 701.304 1310.49 700.849L1522.67 583.748C1523.73 583.14 1524.95 583.292 1526.01 583.899C1526.92 584.507 1527.53 585.722 1527.38 586.937L1507.94 760.539C1507.78 761.45 1507.33 762.361 1506.57 762.817C1499.28 767.525 1491.38 770.867 1483.03 773.145C1490.62 782.258 1497.15 792.434 1502.77 803.218C1503.08 803.825 1503.23 804.433 1503.08 805.04L1496.7 861.54C1496.54 862.755 1495.79 863.667 1494.72 864.122C1494.27 864.274 1493.66 864.274 1493.2 864.274ZM1317.48 704.19L1490.92 854.858L1496.54 805.344C1490.62 793.801 1483.33 783.017 1474.83 773.449C1474.07 772.689 1473.91 771.474 1474.22 770.411C1474.52 769.348 1475.43 768.588 1476.5 768.285C1485.46 766.462 1493.96 763.121 1501.71 758.412L1520.24 592.405L1317.48 704.19Z" fill="white"/>
<path d="M1311.86 706.777C1310.95 706.625 1310.04 706.169 1309.43 705.258C1308.52 703.891 1308.97 701.917 1310.34 701.005L1504.75 566.286C1505.96 565.375 1507.63 565.526 1508.85 566.59L1526.62 584.208C1527.38 584.967 1527.68 585.879 1527.53 586.942C1527.38 587.853 1526.77 588.764 1525.86 589.22L1313.68 706.321C1313.07 706.625 1312.47 706.777 1311.86 706.777ZM1506.12 572.969L1365.02 670.781L1519.03 585.727L1506.12 572.969Z" fill="white"/>
<path d="M1504.6 763.278C1504.14 763.278 1503.68 763.126 1503.23 762.822C1502.17 762.214 1501.71 760.999 1501.71 759.784L1521.15 586.183C1521.3 584.968 1522.06 584.056 1523.12 583.601L1536.49 578.589C1538.01 577.981 1539.83 578.74 1540.44 580.259C1543.93 588.309 1546.21 596.511 1547.27 605.016C1549.25 621.723 1546.36 638.43 1538.92 653.315C1542.87 661.668 1545.3 670.477 1546.36 679.59C1550.16 712.549 1534.52 745.204 1506.42 762.974C1505.96 763.126 1505.2 763.278 1504.6 763.278ZM1527.23 588.765L1508.85 753.557C1531.33 736.546 1543.48 708.448 1540.29 680.198C1539.22 671.389 1536.79 662.731 1532.69 654.53C1532.24 653.619 1532.24 652.555 1532.69 651.644C1539.98 637.367 1542.87 621.419 1541.05 605.472C1540.29 598.637 1538.46 591.954 1535.88 585.423L1527.23 588.765Z" fill="white"/>
<path d="M1493.21 864.278C1492.91 864.278 1492.6 864.278 1492.45 864.126C1491.08 863.67 1490.17 862.304 1490.33 860.785L1496.7 804.285C1496.86 802.918 1497.92 801.703 1499.29 801.551C1500.65 801.247 1502.02 802.006 1502.63 803.221L1503.69 805.196C1507.94 813.853 1511.44 822.966 1514.17 832.383C1514.47 833.294 1514.32 834.205 1513.87 834.965L1496.25 862.759C1495.49 863.822 1494.43 864.43 1493.21 864.278ZM1501.72 816.131L1498.22 847.875L1507.64 832.838C1505.97 827.219 1503.99 821.599 1501.72 816.131Z" fill="white"/>
<path d="M1510.67 924.577C1509.3 924.425 1508.24 923.514 1507.94 922.299L1490.62 862.002C1490.32 861.09 1490.47 860.179 1490.92 859.42L1508.54 831.625C1509.15 830.562 1510.52 829.955 1511.73 830.258C1512.95 830.41 1514.01 831.322 1514.31 832.537C1522.67 862.002 1522.52 892.986 1514.16 922.299C1513.71 923.666 1512.49 924.577 1511.12 924.577C1510.82 924.577 1510.67 924.577 1510.67 924.577ZM1496.85 861.698L1510.52 909.389C1515.23 886.91 1515.07 863.672 1509.76 841.346L1496.85 861.698Z" fill="white"/>
<path d="M1524.04 589.673C1522.97 589.521 1521.91 588.913 1521.45 587.85C1520.7 586.331 1521.3 584.509 1522.82 583.749L1535.43 576.763C1536.19 576.307 1537.1 576.307 1538.01 576.459C1538.77 576.763 1539.53 577.37 1539.83 578.13C1539.98 578.585 1540.14 578.889 1540.29 579.345C1540.59 580.104 1540.74 581.471 1540.44 582.231C1540.14 582.99 1539.68 584.053 1538.77 584.357L1525.4 589.369C1524.95 589.521 1524.49 589.673 1524.04 589.673Z" fill="white"/>
<path d="M304.723 164.407C303.508 164.255 302.293 163.343 301.989 162.128C301.533 160.458 302.445 158.787 304.115 158.331L306.394 157.572C307.305 157.268 308.368 156.964 309.279 156.661C316.874 147.396 325.379 138.587 334.796 130.233C335.555 129.474 336.618 129.322 337.681 129.474L383.246 141.472C384.613 141.776 385.676 143.143 385.524 144.662C385.524 146.181 384.461 147.396 383.094 147.699L305.786 164.407C305.33 164.407 305.027 164.407 304.723 164.407ZM337.681 136.005C330.999 142.08 324.62 148.459 318.848 154.99L368.817 144.206L337.681 136.005Z" fill="white"/>
<path d="M203.417 228.35C202.506 228.35 201.595 227.894 201.139 226.983C200.228 225.768 200.38 224.097 201.443 223.034C229.541 193.113 265.082 170.634 304.115 158.332L381.727 141.473C383.398 141.169 384.917 142.081 385.372 143.599C385.828 145.118 385.069 146.789 383.702 147.548L205.088 228.198C204.481 228.198 204.025 228.35 203.417 228.35ZM353.781 153.927L305.634 164.407C273.435 174.735 243.514 192.05 218.454 215.136L353.781 153.927Z" fill="white"/>
<path d="M628.08 365.496C627.017 377.647 616.385 386.76 604.235 385.697C592.084 384.785 582.971 374.002 584.034 361.851C585.097 349.701 595.729 340.588 607.88 341.651C620.03 342.714 629.143 353.346 628.08 365.496Z" fill="white"/>
<path d="M603.78 392.074C588.136 390.859 576.441 377.038 577.808 361.394C579.023 345.75 592.844 334.055 608.488 335.27C624.132 336.485 635.827 350.307 634.46 365.951C633.093 381.746 619.423 393.441 603.78 392.074ZM607.273 348.028C598.616 347.269 591.021 353.8 590.262 362.457C589.503 371.115 596.034 378.709 604.691 379.468C613.348 380.227 621.094 373.697 621.702 365.039C622.461 356.382 616.082 348.636 607.273 348.028Z" fill="white"/>
<path d="M780.88 190.525C779.968 202.676 769.185 211.789 757.034 210.726C744.883 209.815 735.771 199.031 736.834 186.88C737.745 174.73 748.529 165.617 760.679 166.68C772.83 167.743 781.791 178.375 780.88 190.525Z" fill="white"/>
<path d="M756.576 217.109C740.932 215.894 729.237 202.073 730.604 186.429C731.819 170.785 745.64 159.09 761.284 160.457C776.928 161.672 788.623 175.493 787.408 191.137C785.889 206.781 772.068 218.476 756.576 217.109ZM760.069 173.063C751.412 172.304 743.666 178.835 743.058 187.492C742.299 196.149 748.83 203.895 757.487 204.503C766.144 205.262 773.738 198.731 774.498 190.074C775.257 181.417 768.726 173.823 760.069 173.063Z" fill="white"/>
<path d="M707.211 148.153C706.603 156.051 699.769 161.822 691.871 161.215C684.125 160.607 678.201 153.772 678.809 145.874C679.416 137.977 686.251 132.205 694.149 132.813C701.895 133.42 707.818 140.407 707.211 148.153Z" fill="white"/>
<path d="M691.265 167.437C680.025 166.526 671.52 156.654 672.431 145.263C673.343 134.023 683.215 125.518 694.606 126.429C705.845 127.34 714.351 137.213 713.439 148.604C712.528 159.995 702.656 168.349 691.265 167.437ZM693.543 139.187C689.138 138.883 685.341 142.073 685.037 146.478C684.734 150.882 687.923 154.679 692.328 154.983C696.732 155.287 700.529 152.097 700.833 147.693C701.137 143.288 697.948 139.491 693.543 139.187Z" fill="white"/>
<path d="M1162.1 167.593C1161.34 177.161 1152.99 184.3 1143.42 183.54C1133.85 182.781 1126.71 174.427 1127.47 164.859C1128.23 155.29 1136.59 148.152 1146.15 148.911C1155.72 149.671 1162.86 158.024 1162.1 167.593Z" fill="white"/>
<path d="M1142.81 189.923C1129.75 188.86 1120.03 177.469 1121.09 164.407C1122.16 151.345 1133.55 141.625 1146.61 142.688C1159.67 143.751 1169.39 155.142 1168.33 168.204C1167.42 181.114 1155.88 190.987 1142.81 189.923ZM1145.7 155.142C1139.62 154.687 1134.31 159.243 1133.85 165.318C1133.4 171.394 1137.95 176.71 1144.03 177.165C1150.1 177.621 1155.42 173.064 1156.03 166.989C1156.33 161.066 1151.77 155.75 1145.7 155.142Z" fill="white"/>
<path d="M1081.6 159.391C1080.69 171.542 1069.91 180.655 1057.76 179.592C1045.61 178.68 1036.49 167.897 1037.4 155.746C1038.47 143.595 1049.1 134.482 1061.25 135.546C1073.55 136.457 1082.66 147.241 1081.6 159.391Z" fill="white"/>
<path d="M1057.3 185.972C1041.65 184.757 1029.96 170.936 1031.17 155.292C1032.39 139.648 1046.21 127.953 1061.85 129.168C1077.5 130.383 1089.19 144.205 1087.83 159.848C1086.76 175.492 1072.94 187.187 1057.3 185.972ZM1060.94 141.774C1052.29 141.015 1044.54 147.546 1043.93 156.203C1043.17 164.861 1049.7 172.606 1058.36 173.214C1067.02 173.973 1074.61 167.443 1075.37 158.785C1076.13 150.128 1069.6 142.534 1060.94 141.774Z" fill="white"/>
<path d="M984.55 286.671C983.487 298.822 972.856 307.935 960.705 306.872C948.554 305.809 939.442 295.177 940.505 283.026C941.568 270.876 952.2 261.763 964.35 262.826C976.501 263.737 985.614 274.369 984.55 286.671Z" fill="white"/>
<path d="M960.251 313.098C944.607 311.883 932.912 298.062 934.127 282.418C935.342 266.774 949.163 255.079 964.807 256.446C980.451 257.661 992.146 271.483 990.779 287.126C989.564 302.77 975.895 314.465 960.251 313.098ZM963.744 269.052C955.087 268.293 947.493 274.824 946.733 283.481C945.974 292.139 952.505 299.733 961.162 300.492C969.819 301.251 977.413 294.721 978.173 286.063C978.932 277.406 972.553 269.812 963.744 269.052Z" fill="white"/>
<path d="M1034.22 571.291C1033.16 583.442 1022.52 592.555 1010.37 591.492C998.224 590.58 989.111 579.797 990.174 567.646C991.237 555.495 1001.87 546.383 1014.02 547.446C1026.17 548.357 1035.13 559.141 1034.22 571.291Z" fill="white"/>
<path d="M1009.76 597.877C994.12 596.662 982.425 582.841 983.64 567.197C984.855 551.553 998.677 539.858 1014.32 541.073C1029.96 542.288 1041.66 556.109 1040.29 571.753C1039.23 587.397 1025.41 599.092 1009.76 597.877ZM1013.41 553.679C1004.75 552.92 997.158 559.451 996.398 568.108C995.639 576.765 1002.17 584.36 1010.83 585.119C1019.48 585.878 1027.23 579.347 1027.84 570.69C1028.6 562.033 1022.07 554.439 1013.41 553.679Z" fill="white"/>
<path d="M1331 703.132C1329.93 715.282 1319.3 724.395 1307.15 723.332C1295 722.421 1285.89 711.637 1286.95 699.486C1288.02 687.336 1298.65 678.223 1310.8 679.286C1322.95 680.349 1332.06 690.981 1331 703.132Z" fill="white"/>
<path d="M1306.69 729.707C1291.05 728.492 1279.35 714.671 1280.57 699.027C1281.78 683.383 1295.61 671.688 1311.25 672.903C1326.89 674.118 1338.59 687.939 1337.22 703.583C1336.01 719.379 1322.34 731.074 1306.69 729.707ZM1310.19 685.661C1301.53 684.902 1293.78 691.433 1293.18 700.09C1292.42 708.747 1298.95 716.341 1307.6 717.101C1316.26 717.86 1323.86 711.329 1324.62 702.672C1325.37 694.015 1319 686.421 1310.19 685.661Z" fill="white"/>
<path d="M1292.27 484.418C1291.2 496.568 1280.57 505.681 1268.42 504.618C1256.27 503.707 1247.16 492.923 1248.22 480.772C1249.13 468.622 1259.91 459.509 1272.06 460.572C1284.22 461.635 1293.18 472.267 1292.27 484.418Z" fill="white"/>
<path d="M1267.81 510.998C1252.17 509.783 1240.47 495.962 1241.69 480.318C1242.9 464.674 1256.72 452.979 1272.37 454.346C1288.01 455.561 1299.71 469.382 1298.49 485.026C1297.28 500.518 1283.46 512.213 1267.81 510.998ZM1271.46 466.952C1262.8 466.193 1255.05 472.724 1254.45 481.381C1253.69 490.038 1260.22 497.784 1268.88 498.392C1277.53 499.151 1285.13 492.62 1285.89 483.963C1286.65 475.306 1280.11 467.56 1271.46 466.952Z" fill="white"/>
<path d="M823.554 488.068C822.643 500.218 811.859 509.331 799.709 508.268C787.558 507.357 778.445 496.573 779.508 484.423C780.572 472.272 791.203 463.159 803.354 464.222C815.505 465.285 824.466 475.917 823.554 488.068Z" fill="white"/>
<path d="M799.101 514.643C783.457 513.428 771.762 499.607 772.978 483.963C774.193 468.319 788.014 456.624 803.658 457.991C819.302 459.206 830.997 473.027 829.782 488.671C828.567 504.315 814.745 516.01 799.101 514.643ZM802.746 470.597C794.089 469.838 786.343 476.369 785.736 485.026C784.976 493.683 791.507 501.429 800.164 502.037C808.822 502.796 816.416 496.265 817.175 487.608C817.935 478.951 811.404 471.357 802.746 470.597Z" fill="white"/>
<path d="M1130.82 295.932C1129.75 308.083 1119.12 317.196 1106.97 316.133C1094.82 315.07 1085.71 304.438 1086.77 292.287C1087.83 280.137 1098.46 271.024 1110.61 272.087C1122.77 272.998 1131.88 283.63 1130.82 295.932Z" fill="white"/>
<path d="M1106.51 322.362C1090.87 321.147 1079.18 307.326 1080.54 291.682C1081.76 276.038 1095.58 264.343 1111.22 265.558C1126.87 266.773 1138.56 280.594 1137.19 296.238C1135.83 312.034 1122.16 323.729 1106.51 322.362ZM1110.01 278.316C1101.35 277.557 1093.6 284.088 1093 292.745C1092.24 301.402 1098.77 309.148 1107.43 309.756C1116.08 310.515 1123.83 303.984 1124.44 295.327C1125.2 286.67 1118.67 279.076 1110.01 278.316Z" fill="white"/>
<path d="M1290.3 195.535C1289.39 206.014 1280.27 213.76 1269.79 212.849C1259.31 211.938 1251.57 202.825 1252.48 192.345C1253.39 181.865 1262.5 174.119 1272.98 175.03C1283.46 175.942 1291.21 185.055 1290.3 195.535Z" fill="white"/>
<path d="M1269.48 219.079C1255.66 218.016 1245.18 205.713 1246.39 191.892C1247.46 178.071 1259.76 167.591 1273.58 168.806C1287.55 169.869 1297.88 182.171 1296.67 195.993C1295.6 209.814 1283.3 220.294 1269.48 219.079ZM1272.52 181.412C1265.53 180.804 1259.46 186.12 1258.85 192.955C1258.24 199.942 1263.41 206.017 1270.39 206.624C1277.38 207.232 1283.45 201.916 1284.06 195.081C1284.67 188.095 1279.35 181.868 1272.52 181.412Z" fill="white"/>
<path d="M625.654 74.186C624.591 86.3366 613.959 95.4495 601.809 94.3863C589.658 93.3232 580.545 82.6914 581.608 70.5408C582.519 58.3902 593.303 49.2773 605.454 50.3405C617.604 51.2518 626.717 62.0354 625.654 74.186Z" fill="white"/>
<path d="M601.354 100.764C585.71 99.5491 574.015 85.7278 575.382 70.0839C576.597 54.4401 590.418 42.7451 606.062 44.112C621.706 45.3271 633.401 59.1484 632.186 74.7923C630.667 90.2843 616.997 101.979 601.354 100.764ZM604.847 56.5664C596.189 55.807 588.595 62.3379 587.836 70.9952C587.077 79.6525 593.607 87.3985 602.265 88.0061C610.922 88.7655 618.516 82.2345 619.276 73.5772C620.035 64.9199 613.504 57.3258 604.847 56.5664Z" fill="white"/>
<path d="M689.139 288.491C688.076 300.642 677.445 309.755 665.294 308.692C653.143 307.78 644.03 296.997 645.094 284.846C646.157 272.696 656.789 263.583 668.939 264.646C681.09 265.709 690.051 276.341 689.139 288.491Z" fill="white"/>
<path d="M664.689 315.072C649.045 313.857 637.35 300.036 638.565 284.392C639.78 268.748 653.602 257.053 669.246 258.42C684.889 259.635 696.584 273.456 695.217 289.1C694.154 304.744 680.333 316.439 664.689 315.072ZM668.334 271.026C659.677 270.267 652.083 276.798 651.323 285.455C650.564 294.112 657.095 301.858 665.752 302.466C674.41 303.225 682.004 296.694 682.763 288.037C683.523 279.38 676.992 271.786 668.334 271.026Z" fill="white"/>
<path d="M1131.87 874.452C1130.96 886.602 1120.18 895.715 1108.03 894.652C1095.88 893.589 1086.76 882.957 1087.83 870.806C1088.74 858.656 1099.52 849.543 1111.67 850.606C1123.82 851.517 1132.93 862.149 1131.87 874.452Z" fill="white"/>
<path d="M1107.57 900.881C1091.93 899.666 1080.23 885.845 1081.45 870.201C1082.66 854.557 1096.49 842.862 1112.13 844.077C1127.77 845.292 1139.47 859.114 1138.25 874.757C1136.89 890.553 1123.22 902.248 1107.57 900.881ZM1111.07 856.835C1102.41 856.076 1094.66 862.607 1094.06 871.264C1093.3 879.921 1099.83 887.667 1108.48 888.275C1117.14 889.034 1124.74 882.503 1125.5 873.846C1126.25 865.189 1119.72 857.595 1111.07 856.835Z" fill="white"/>
<path d="M981.819 887.669C980.908 899.819 970.124 908.932 957.974 907.869C945.823 906.806 936.71 896.174 937.774 884.023C938.837 871.873 949.468 862.76 961.619 863.671C973.77 864.734 982.731 875.366 981.819 887.669Z" fill="white"/>
<path d="M957.518 914.098C941.874 912.883 930.179 899.062 931.394 883.418C932.609 867.774 946.43 856.079 962.074 857.294C977.718 858.509 989.413 872.331 988.046 887.974C986.831 903.77 973.162 915.465 957.518 914.098ZM961.011 870.052C952.354 869.293 944.608 875.824 944 884.481C943.241 893.138 949.772 900.733 958.429 901.492C967.086 902.251 974.68 895.72 975.44 887.063C976.199 878.406 969.668 870.812 961.011 870.052Z" fill="white"/>
<path d="M699.467 923.058C698.556 935.209 687.772 944.322 675.622 943.258C663.471 942.195 654.358 931.563 655.421 919.413C656.484 907.262 667.116 898.149 679.267 899.213C691.417 900.124 700.53 910.756 699.467 923.058Z" fill="white"/>
<path d="M675.164 949.636C659.52 948.421 647.825 934.6 649.04 918.956C650.255 903.312 664.077 891.617 679.72 892.984C695.364 894.199 707.059 908.021 705.844 923.664C704.629 939.156 690.808 950.851 675.164 949.636ZM678.809 905.438C670.152 904.679 662.558 911.21 661.798 919.867C661.039 928.525 667.57 936.119 676.227 936.878C684.884 937.638 692.63 931.107 693.238 922.449C693.997 913.792 687.466 906.198 678.809 905.438Z" fill="white"/>
<path d="M1336.16 852.581C1335.24 864.732 1324.46 873.845 1312.31 872.933C1300.16 871.87 1291.05 861.238 1292.11 849.088C1293.17 836.937 1303.8 827.824 1315.96 828.887C1328.11 829.799 1337.22 840.43 1336.16 852.581Z" fill="white"/>
<path d="M1311.85 879.162C1296.21 877.947 1284.52 864.126 1285.73 848.482C1286.95 832.838 1300.77 821.143 1316.41 822.51C1332.05 823.725 1343.75 837.546 1342.38 853.19C1341.17 868.834 1327.5 880.377 1311.85 879.162ZM1315.5 835.116C1306.84 834.357 1299.1 840.888 1298.49 849.545C1297.73 858.202 1304.26 865.948 1312.92 866.556C1321.57 867.315 1329.32 860.784 1329.93 852.127C1330.54 843.47 1324.16 835.724 1315.5 835.116Z" fill="white"/>
<path d="M562.316 816.738C561.404 828.889 550.621 838.002 538.47 836.939C526.32 836.027 517.207 825.244 518.27 813.093C519.181 800.942 529.965 791.83 542.115 792.893C554.266 793.956 563.227 804.588 562.316 816.738Z" fill="white"/>
<path d="M538.017 843.319C522.373 842.104 510.678 828.282 511.893 812.639C513.108 796.995 526.929 785.3 542.573 786.667C558.217 787.882 569.912 801.703 568.545 817.347C567.33 832.839 553.66 844.534 538.017 843.319ZM541.51 799.273C532.852 798.514 525.258 805.044 524.499 813.702C523.739 822.359 530.271 830.105 538.928 830.713C547.585 831.472 555.179 824.941 555.939 816.284C556.698 807.627 550.167 799.881 541.51 799.273Z" fill="white"/>
<path d="M644.488 736.242C643.425 748.392 632.793 757.505 620.643 756.442C608.492 755.379 599.379 744.747 600.442 732.597C601.505 720.446 612.137 711.333 624.288 712.396C636.438 713.46 645.551 724.091 644.488 736.242Z" fill="white"/>
<path d="M620.186 762.82C604.542 761.605 592.847 747.784 594.214 732.14C595.429 716.496 609.25 704.801 624.894 706.168C640.538 707.383 652.233 721.204 651.018 736.848C649.499 752.34 635.829 764.035 620.186 762.82ZM623.831 718.774C615.173 718.015 607.579 724.546 606.82 733.203C606.061 741.86 612.591 749.454 621.249 750.214C629.906 750.973 637.5 744.442 638.26 735.785C638.867 726.976 632.488 719.382 623.831 718.774Z" fill="white"/>
<path d="M432.157 566.89C431.245 579.041 420.462 588.154 408.311 587.09C396.161 586.179 387.048 575.395 388.111 563.245C389.174 551.094 399.806 541.981 411.956 543.045C424.107 543.956 433.068 554.588 432.157 566.89Z" fill="white"/>
<path d="M407.702 593.319C392.059 592.104 380.364 578.283 381.579 562.639C382.794 546.995 396.615 535.3 412.259 536.667C427.903 537.882 439.598 551.704 438.383 567.347C437.168 582.991 423.346 594.686 407.702 593.319ZM411.348 549.273C402.69 548.514 395.096 555.045 394.337 563.702C393.577 572.36 400.108 579.954 408.766 580.713C417.423 581.473 425.017 574.942 425.776 566.284C426.536 557.627 420.005 550.033 411.348 549.273Z" fill="white"/>
<path d="M153.755 584.362C152.692 596.512 142.061 605.625 129.91 604.562C117.759 603.499 108.646 592.867 109.71 580.717C110.621 568.566 121.405 559.453 133.555 560.516C145.706 561.579 154.819 572.211 153.755 584.362Z" fill="white"/>
<path d="M129.454 610.935C113.81 609.719 102.115 595.898 103.33 580.254C104.545 564.61 118.367 552.916 134.011 554.282C149.654 555.498 161.349 569.319 160.134 584.963C158.767 600.455 145.098 612.15 129.454 610.935ZM132.947 566.889C124.29 566.129 116.696 572.66 115.937 581.318C115.177 589.975 121.708 597.569 130.365 598.328C139.023 599.088 146.769 592.557 147.376 583.9C148.136 575.242 141.757 567.496 132.947 566.889Z" fill="white"/>
<path d="M402.84 145.875C401.777 158.026 391.145 167.139 378.995 166.075C366.844 165.164 357.731 154.38 358.795 142.23C359.858 130.079 370.489 120.966 382.64 122.03C394.791 123.093 403.904 133.724 402.84 145.875Z" fill="white"/>
<path d="M378.54 172.453C362.896 171.238 351.201 157.417 352.568 141.773C353.783 126.129 367.604 114.434 383.248 115.649C398.892 116.864 410.587 130.685 409.372 146.329C407.853 162.125 394.184 173.82 378.54 172.453ZM382.033 128.407C373.376 127.648 365.782 134.179 365.022 142.836C364.263 151.493 370.794 159.087 379.451 159.847C388.109 160.606 395.703 154.075 396.462 145.418C397.222 136.761 390.842 129.167 382.033 128.407Z" fill="white"/>
</svg>
