<svg width="33" height="33" viewBox="0 0 33 33" fill="none" xmlns="http://www.w3.org/2000/svg">
<path d="M16.4998 11.1627C13.561 11.1627 11.1626 13.5611 11.1626 16.4999C11.1626 19.4388 13.561 21.8371 16.4998 21.8371C19.4387 21.8371 21.837 19.4388 21.837 16.4999C21.837 13.5611 19.4387 11.1627 16.4998 11.1627ZM32.5074 16.4999C32.5074 14.2898 32.5275 12.0996 32.4033 9.89347C32.2792 7.33097 31.6946 5.05676 29.8208 3.18293C27.943 1.3051 25.6728 0.724531 23.1103 0.60041C20.9001 0.476289 18.71 0.496308 16.5038 0.496308C14.2937 0.496308 12.1035 0.476289 9.89738 0.60041C7.33488 0.724531 5.06066 1.3091 3.18684 3.18293C1.309 5.06076 0.728437 7.33097 0.604316 9.89347C0.480195 12.1036 0.500214 14.2938 0.500214 16.4999C0.500214 18.7061 0.480195 20.9002 0.604316 23.1064C0.728437 25.6689 1.31301 27.9431 3.18684 29.8169C5.06467 31.6947 7.33488 32.2753 9.89738 32.3994C12.1075 32.5236 14.2977 32.5035 16.5038 32.5035C18.714 32.5035 20.9041 32.5236 23.1103 32.3994C25.6728 32.2753 27.947 31.6907 29.8208 29.8169C31.6986 27.9391 32.2792 25.6689 32.4033 23.1064C32.5315 20.9002 32.5074 18.7101 32.5074 16.4999ZM16.4998 24.7119C11.9554 24.7119 8.28781 21.0444 8.28781 16.4999C8.28781 11.9555 11.9554 8.28791 16.4998 8.28791C21.0443 8.28791 24.7118 11.9555 24.7118 16.4999C24.7118 21.0444 21.0443 24.7119 16.4998 24.7119ZM25.0482 9.86945C23.9871 9.86945 23.1303 9.01262 23.1303 7.95158C23.1303 6.89055 23.9871 6.03371 25.0482 6.03371C26.1092 6.03371 26.966 6.89055 26.966 7.95158C26.9664 8.20353 26.917 8.45306 26.8207 8.68589C26.7244 8.91872 26.5832 9.13027 26.405 9.30842C26.2269 9.48658 26.0153 9.62784 25.7825 9.72411C25.5496 9.82038 25.3001 9.86977 25.0482 9.86945Z" fill="#1C2C46"/>
</svg>
