<svg width="441" height="440" viewBox="0 0 441 440" fill="none" xmlns="http://www.w3.org/2000/svg">
<circle cx="220.4" cy="220" r="220" fill="#002356"/>
<path d="M270.267 157.667C270.267 150.782 275.848 145.2 282.733 145.2C289.618 145.2 295.2 150.782 295.2 157.667C295.2 164.552 289.618 170.133 282.733 170.133C275.848 170.133 270.267 164.552 270.267 157.667Z" fill="white"/>
<path fill-rule="evenodd" clip-rule="evenodd" d="M220.4 160.783C187.695 160.783 161.183 187.296 161.183 220C161.183 252.704 187.695 279.217 220.4 279.217C253.104 279.217 279.617 252.704 279.617 220C279.617 187.296 253.104 160.783 220.4 160.783ZM179.883 220C179.883 197.623 198.023 179.483 220.4 179.483C242.777 179.483 260.917 197.623 260.917 220C260.917 242.377 242.777 260.517 220.4 260.517C198.023 260.517 179.883 242.377 179.883 220Z" fill="white"/>
<path fill-rule="evenodd" clip-rule="evenodd" d="M285.953 105.718C242.736 100.888 198.064 100.888 154.847 105.718C129.764 108.522 109.514 128.282 106.565 153.496C101.397 197.681 101.397 242.319 106.565 286.504C109.514 311.718 129.764 331.478 154.847 334.282C198.064 339.112 242.736 339.112 285.953 334.282C311.036 331.478 331.287 311.718 334.236 286.504C339.403 242.319 339.403 197.681 334.236 153.496C331.287 128.282 311.036 108.522 285.953 105.718ZM156.924 124.303C198.761 119.627 242.04 119.627 283.876 124.303C300.458 126.156 313.741 139.241 315.662 155.668C320.661 198.41 320.661 241.59 315.662 284.332C313.741 300.759 300.458 313.844 283.876 315.697C242.04 320.373 198.761 320.373 156.924 315.697C140.342 313.844 127.059 300.759 125.138 284.332C120.139 241.59 120.139 198.41 125.138 155.668C127.059 139.241 140.342 126.156 156.924 124.303Z" fill="white"/>
</svg>
