<svg width="279" height="278" viewBox="0 0 279 278" fill="none" xmlns="http://www.w3.org/2000/svg">
<path d="M23.8314 105.475C23.6399 105.447 23.5031 105.365 23.3936 105.201C23.2842 105.037 23.2842 104.79 23.3936 104.626L68.326 25.7621C68.4628 25.5432 68.7091 25.4337 68.9553 25.4884C69.2016 25.5432 69.3932 25.7621 69.3932 26.0084L74.7566 102.191C74.7566 102.355 74.7019 102.492 74.6198 102.601C74.5103 102.711 74.3735 102.793 74.2367 102.793L23.9409 105.475C23.8862 105.475 23.8588 105.475 23.8314 105.475ZM68.3533 27.9512L24.8713 104.271L73.5526 101.671L68.3533 27.9512Z" fill="#4D6C9C"/>
<path d="M74.1268 102.765C74.0721 102.765 74.0174 102.738 73.99 102.738C73.7711 102.656 73.6342 102.464 73.6069 102.245L68.2435 26.063C68.2161 25.8167 68.3529 25.5978 68.5718 25.5157C68.7908 25.4062 69.037 25.461 69.2012 25.6251L110.002 65.7961C110.22 66.015 110.22 66.3707 110.002 66.5897L74.5646 102.601C74.4552 102.711 74.291 102.765 74.1268 102.765ZM69.4749 27.4859L74.6467 100.905L108.797 66.2066L69.4749 27.4859Z" fill="#4D6C9C"/>
<path d="M111.726 133.769C111.616 133.769 111.507 133.715 111.397 133.632L73.7986 102.629C73.6892 102.519 73.6071 102.382 73.5797 102.218C73.5797 102.054 73.6344 101.917 73.7439 101.78L109.181 65.7961C109.345 65.6319 109.591 65.5772 109.783 65.6593C110.002 65.7414 110.139 65.9329 110.139 66.1792L112.328 133.167C112.328 133.386 112.218 133.605 111.999 133.687C111.917 133.742 111.808 133.769 111.726 133.769ZM75.0027 102.163L111.151 131.963L109.071 67.5474L75.0027 102.163Z" fill="#4D6C9C"/>
<path d="M97.7151 147.068C97.6877 147.068 97.6877 147.068 97.6603 147.068C97.4961 147.041 97.332 146.932 97.2499 146.767L73.6617 102.464C73.5249 102.218 73.5797 101.917 73.7986 101.753C74.0175 101.589 74.3185 101.589 74.5101 101.753L112.136 132.757C112.273 132.866 112.328 133.003 112.355 133.167C112.355 133.332 112.3 133.496 112.163 133.605L98.1529 146.932C98.0161 147.041 97.8519 147.096 97.7151 147.068ZM76.0151 104.462L97.9066 145.591L110.905 133.222L76.0151 104.462Z" fill="#4D6C9C"/>
<path d="M228.681 86.812C228.544 86.812 228.407 86.7299 228.297 86.6204L198.908 53.2359C198.799 53.099 198.744 52.9348 198.771 52.7707C198.799 52.6065 198.881 52.4697 199.018 52.3602L228.325 33.725C228.489 33.6156 228.735 33.6156 228.899 33.6977C229.091 33.8071 229.2 33.9987 229.2 34.1902L229.255 86.21C229.255 86.4562 229.118 86.6478 228.899 86.7299C228.845 86.812 228.763 86.812 228.681 86.812ZM200.222 52.9896L228.161 84.7323L228.106 35.2574L200.222 52.9896Z" fill="#4D6C9C"/>
<path d="M151.295 69.6819C151.267 69.6819 151.24 69.6819 151.212 69.6819C151.048 69.6271 150.884 69.5177 150.829 69.3535L136.107 34.2724C136.025 34.0534 136.08 33.8071 136.244 33.643C136.408 33.4788 136.655 33.4241 136.873 33.5335L173.569 50.8278C173.733 50.9099 173.87 51.0741 173.898 51.2656C173.925 51.4572 173.843 51.6487 173.706 51.7856L151.732 69.5724C151.596 69.6271 151.431 69.6819 151.295 69.6819ZM137.722 35.1754L151.568 68.2042L172.256 51.4572L137.722 35.1754Z" fill="#4D6C9C"/>
<path d="M204.463 277.214C204.327 277.214 204.19 277.131 204.08 277.049L197.759 270.345C197.595 270.181 197.568 269.962 197.622 269.77C197.677 269.579 197.869 269.415 198.088 269.387L216.367 267.034C216.668 267.007 216.942 267.198 216.996 267.499C217.79 272.096 218.392 274.942 218.392 274.97C218.419 275.134 218.392 275.298 218.31 275.435C218.228 275.572 218.064 275.654 217.927 275.681L204.545 277.241C204.545 277.214 204.491 277.241 204.463 277.214ZM199.374 270.372L204.737 276.064L217.215 274.614C216.996 273.601 216.558 271.358 216.039 268.265L199.374 270.372Z" fill="#4D6C9C"/>
<path d="M68.7636 26.583C68.7362 26.583 68.7089 26.583 68.6541 26.5557L60.4448 24.3939C60.2533 24.3391 60.0891 24.1749 60.0344 23.9834C59.9796 23.7918 60.0617 23.5729 60.1985 23.4361C61.8678 21.9584 63.6738 20.5902 65.5346 19.3862C65.6714 19.3041 65.8356 19.2767 65.9998 19.3315C66.164 19.3862 66.3008 19.4956 66.3555 19.6325L69.2835 25.7894C69.3656 25.981 69.3383 26.2273 69.2014 26.3915C69.1193 26.5283 68.9278 26.6104 68.7636 26.583ZM61.7857 23.5729L67.7511 25.1601L65.6167 20.6997C64.3032 21.5753 63.0171 22.5604 61.7857 23.5729Z" fill="#4D6C9C"/>
<path d="M228.681 86.812C228.545 86.812 228.435 86.7573 228.326 86.6479C228.216 86.5384 228.162 86.4016 228.162 86.2374L228.107 34.2177C228.107 33.9714 228.244 33.7525 228.463 33.6704C228.681 33.5883 228.928 33.643 229.092 33.8345L265.404 75.2369C265.459 75.319 265.514 75.4011 265.541 75.4832C265.733 76.3588 265.897 77.1798 265.979 77.9733C266.171 79.5331 266.171 81.1202 266.034 82.68C267.156 83.4736 268.196 84.4587 269.126 85.5533C269.263 85.7175 269.29 85.9637 269.208 86.1553C269.126 86.3468 268.907 86.4837 268.688 86.4837L228.764 86.7847C228.709 86.812 228.681 86.812 228.681 86.812ZM229.229 35.7501L229.283 85.6901L267.402 85.4165C266.691 84.6776 265.924 84.0482 265.103 83.5009C264.939 83.3915 264.83 83.1726 264.857 82.9537C265.021 81.3665 265.021 79.7247 264.857 78.1649C264.775 77.4534 264.638 76.7146 264.474 75.9484L229.229 35.7501Z" fill="#4D6C9C"/>
<path d="M95.0063 172.517L79.8191 170.602C79.6549 170.574 79.5181 170.492 79.4086 170.356C76.5901 166.278 74.4283 161.791 73.0327 157.029C72.9506 156.755 73.0874 156.454 73.3611 156.345L97.5238 145.974C97.7154 145.892 97.9343 145.919 98.0985 146.029C98.2627 146.138 98.3448 146.33 98.3174 146.549L95.6357 171.997C95.6083 172.162 95.5536 172.298 95.4168 172.381C95.3073 172.49 95.1705 172.517 95.0063 172.517ZM80.2022 169.507L94.5411 171.313L97.0586 147.424L74.2367 157.221C75.6323 161.599 77.6299 165.731 80.2022 169.507Z" fill="#4D6C9C"/>
<path d="M197.978 270.646C197.896 270.646 197.842 270.619 197.76 270.591C197.568 270.509 197.431 270.29 197.431 270.099H197.978L197.431 270.017C197.431 269.852 197.486 269.661 197.623 269.551C197.76 269.442 197.924 269.387 198.088 269.387L198.252 269.415C198.471 269.442 198.663 269.633 198.717 269.852C198.772 270.071 198.69 270.318 198.498 270.454L198.334 270.564C198.252 270.619 198.115 270.646 197.978 270.646Z" fill="#4D6C9C"/>
<path d="M109.537 66.7539C109.4 66.7539 109.29 66.6992 109.181 66.5897L68.4079 26.4188C68.2163 26.2272 68.189 25.8988 68.3532 25.6799C68.5174 25.461 68.8184 25.3789 69.0646 25.5157L120.619 51.7035C120.756 51.7856 120.865 51.9224 120.92 52.0866C120.948 52.2508 120.92 52.4149 120.811 52.5518L110.057 66.5623C109.947 66.6992 109.81 66.7813 109.646 66.7813C109.591 66.7813 109.564 66.7813 109.537 66.7539ZM71.8011 28.1975L109.509 65.3583L119.442 52.4149L71.8011 28.1975Z" fill="#4D6C9C"/>
<path d="M109.536 66.7539C109.317 66.7265 109.153 66.6171 109.071 66.4255C108.989 66.234 109.016 66.0151 109.125 65.8509L119.88 51.8677C120.044 51.6488 120.372 51.5667 120.591 51.7035L151.595 68.6147C151.841 68.7515 151.951 69.0252 151.869 69.2714C151.786 69.5177 151.54 69.7093 151.294 69.6819L109.536 66.7539C109.563 66.7539 109.536 66.7539 109.536 66.7539ZM120.509 52.9349L110.713 65.7141L148.804 68.3684L120.509 52.9349Z" fill="#4D6C9C"/>
<path d="M120.291 52.7707C120.236 52.7707 120.154 52.7433 120.099 52.7159C119.88 52.6065 119.743 52.3602 119.771 52.1139L123.766 25.8167C123.793 25.6252 123.93 25.461 124.094 25.3789C124.286 25.2968 124.477 25.3242 124.642 25.4336L136.928 33.5609C137.065 33.643 137.147 33.8071 137.175 33.9713C137.202 34.1355 137.147 34.2997 137.038 34.4365L120.756 52.6065C120.646 52.7159 120.482 52.7707 120.291 52.7707ZM124.778 26.8566L121.194 50.39L135.752 34.1082L124.778 26.8566Z" fill="#4D6C9C"/>
<path d="M151.295 69.6818C151.213 69.6818 151.131 69.6544 151.076 69.627L120.072 52.6885C119.908 52.6064 119.826 52.4696 119.771 52.278C119.744 52.1138 119.798 51.9223 119.908 51.8128L136.19 33.6428C136.326 33.506 136.518 33.4239 136.71 33.4513C136.901 33.4787 137.065 33.6155 137.147 33.7797L151.869 68.8608C151.952 69.0798 151.897 69.3534 151.733 69.4902C151.596 69.627 151.459 69.6818 151.295 69.6818ZM121.249 52.0591L150.173 67.8483L136.436 35.0932L121.249 52.0591Z" fill="#4D6C9C"/>
<path d="M107.129 189.182C107.101 189.182 107.074 189.182 107.047 189.155C106.143 188.936 105.268 188.69 104.392 188.443C104.255 188.416 104.146 188.306 104.064 188.197L94.5684 172.244C94.4589 172.052 94.4589 171.778 94.6231 171.587C94.7599 171.395 95.0062 171.341 95.2525 171.395L113.641 177.388C113.806 177.443 113.942 177.58 113.997 177.716C114.052 177.881 114.052 178.072 113.942 178.209L107.649 188.881C107.566 189.1 107.348 189.209 107.129 189.182ZM104.912 187.431C105.569 187.622 106.226 187.814 106.882 187.951L112.601 178.264L96.3197 172.955L104.912 187.431Z" fill="#4D6C9C"/>
<path d="M271.288 103.066C271.233 103.066 271.178 103.039 271.124 103.039L228.517 86.7846C228.271 86.6752 228.107 86.4289 228.161 86.1552C228.216 85.8816 228.435 85.69 228.709 85.69L268.633 85.389C268.798 85.389 268.962 85.4711 269.071 85.608C270.987 87.9339 272.191 90.7251 272.519 93.6805C272.711 95.2129 272.656 96.7726 272.355 98.305C272.437 98.4419 272.492 98.5787 272.464 98.7155L271.835 102.601C271.808 102.765 271.698 102.93 271.561 103.012C271.507 103.039 271.397 103.066 271.288 103.066ZM231.746 86.7846L270.877 101.698L271.342 98.7429C271.26 98.606 271.206 98.4692 271.233 98.3598C271.534 96.8547 271.616 95.295 271.425 93.7899C271.124 91.1356 270.056 88.618 268.387 86.511L231.746 86.7846Z" fill="#4D6C9C"/>
<path d="M274.489 106.241C274.352 106.241 274.243 106.186 274.133 106.076L270.932 102.902C270.795 102.765 270.74 102.601 270.768 102.41L271.397 98.4965C271.424 98.305 271.561 98.1408 271.753 98.0587C271.944 97.9766 272.136 98.004 272.3 98.1134C273.203 98.7702 274.079 99.5364 274.845 100.412C274.927 100.522 274.982 100.631 274.982 100.768L275.119 105.611C275.119 105.83 274.982 106.049 274.763 106.159C274.653 106.213 274.571 106.241 274.489 106.241ZM271.944 102.3L273.914 104.27L273.832 101.041C273.367 100.549 272.875 100.084 272.355 99.6459L271.944 102.3Z" fill="#4D6C9C"/>
<path d="M19.453 146.685C19.2888 146.685 19.1519 146.603 19.0425 146.466L0.544157 123.316C0.489428 123.234 0.434697 123.152 0.434697 123.042L0.379967 122.687C0.352602 122.468 0.325241 122.276 0.297877 122.057C-0.222047 117.679 -0.0578652 113.246 0.763067 108.895C0.817796 108.676 0.981987 108.485 1.22827 108.43L23.7765 104.325C23.9407 104.298 24.1323 104.353 24.2691 104.462C24.4059 104.599 24.4606 104.763 24.4333 104.955L20.055 146.165C20.0276 146.384 19.8634 146.576 19.6445 146.658C19.5898 146.658 19.5077 146.685 19.453 146.685ZM1.52928 122.714L19.0699 144.66L23.2292 105.584L1.80292 109.497C1.06408 113.602 0.927258 117.788 1.41982 121.921C1.44718 122.112 1.47454 122.331 1.50191 122.523L1.52928 122.714Z" fill="#4D6C9C"/>
<path d="M197.896 277.979C197.76 277.979 197.65 277.925 197.568 277.843C197.431 277.733 197.377 277.569 197.377 277.405C197.431 274.997 197.459 272.616 197.459 270.071C197.459 269.88 197.541 269.715 197.678 269.606L197.842 269.497C197.979 269.387 198.17 269.36 198.334 269.387C198.499 269.442 198.635 269.551 198.717 269.715L201.892 276.775C201.974 276.94 201.946 277.131 201.864 277.295C201.782 277.46 201.618 277.569 201.427 277.596L198.006 277.979C197.979 278.007 197.951 278.007 197.896 277.979ZM198.608 272.26C198.608 273.793 198.581 275.27 198.553 276.775L200.551 276.529L198.608 272.26Z" fill="#4D6C9C"/>
<path d="M201.316 277.596C201.097 277.569 200.933 277.46 200.851 277.268L197.677 270.208C197.567 269.962 197.65 269.661 197.868 269.497C198.087 269.332 198.416 269.387 198.607 269.579L204.929 276.283C205.065 276.447 205.12 276.666 205.038 276.858C204.956 277.049 204.792 277.213 204.573 277.213L201.426 277.596C201.398 277.596 201.371 277.596 201.316 277.596ZM200.085 272.808L201.7 276.42L203.287 276.228L200.085 272.808Z" fill="#4D6C9C"/>
<path d="M274.489 106.241C274.407 106.241 274.325 106.213 274.27 106.158C274.106 106.049 273.996 105.885 273.969 105.666L273.832 100.822C273.832 100.576 273.969 100.357 274.188 100.275C274.407 100.193 274.653 100.248 274.817 100.439C275.857 101.589 276.678 102.847 277.308 104.161C277.444 104.434 277.335 104.763 277.061 104.9L274.79 106.158C274.708 106.213 274.598 106.241 274.489 106.241ZM275.009 102.492L275.064 104.708L276.021 104.161C275.748 103.586 275.392 103.039 275.009 102.492Z" fill="#4D6C9C"/>
<path d="M120.29 52.7705C120.208 52.7705 120.154 52.7431 120.071 52.7158L68.5443 26.528C68.3254 26.4186 68.2159 26.1997 68.2433 25.9807C68.2706 25.7618 68.4075 25.5429 68.6537 25.4882L108.25 13.0647C108.387 13.01 108.551 13.0374 108.688 13.0921C108.825 13.1742 108.934 13.2837 108.961 13.4205L120.92 52.0316C120.974 52.2506 120.92 52.4968 120.756 52.6337C120.591 52.7431 120.455 52.7705 120.29 52.7705ZM70.2956 26.1449L119.387 51.0739L108.031 14.3235L70.2956 26.1449Z" fill="#4D6C9C"/>
<path d="M120.29 52.7706C120.071 52.7432 119.853 52.6064 119.798 52.3601L107.84 13.749C107.757 13.5027 107.867 13.2564 108.059 13.1196C108.277 12.9827 108.524 12.9827 108.743 13.1469L124.696 25.4336C124.86 25.5704 124.942 25.7619 124.915 25.9808L120.92 52.278C120.892 52.5517 120.673 52.7432 120.4 52.7706C120.345 52.7706 120.318 52.7706 120.29 52.7706ZM109.481 15.1445L120.154 49.651L123.738 26.1177L109.481 15.1445Z" fill="#4D6C9C"/>
<path d="M95.0057 172.517C94.8689 172.517 94.7595 172.462 94.6774 172.38C94.5406 172.271 94.4585 172.079 94.4858 171.888L97.1675 146.439C97.1949 146.22 97.3317 146.056 97.5233 145.974C97.7148 145.892 97.9337 145.919 98.0979 146.056L122.315 165.512C122.48 165.649 122.562 165.868 122.507 166.087C122.452 166.305 122.288 166.47 122.069 166.497L95.1699 172.462C95.1426 172.517 95.0605 172.517 95.0057 172.517ZM98.2074 147.616L95.7172 171.231L120.701 165.676L98.2074 147.616Z" fill="#4D6C9C"/>
<path d="M113.423 178.51C113.395 178.51 113.341 178.51 113.286 178.483L94.8969 172.49C94.6507 172.408 94.4865 172.189 94.5138 171.915C94.5412 171.669 94.7054 171.45 94.9517 171.395L121.851 165.43C122.097 165.375 122.316 165.485 122.453 165.676C122.59 165.868 122.59 166.141 122.453 166.333L113.943 178.291C113.806 178.428 113.614 178.51 113.423 178.51ZM97.2229 172.052L113.231 177.279L120.647 166.853L97.2229 172.052Z" fill="#4D6C9C"/>
<path d="M121.933 166.552C121.823 166.552 121.714 166.497 121.632 166.415L97.4141 146.959C97.2773 146.849 97.1952 146.712 97.1952 146.548C97.1952 146.384 97.2499 146.22 97.3594 146.11L111.37 132.784C111.507 132.647 111.726 132.592 111.89 132.647C112.081 132.702 112.246 132.839 112.3 133.03L122.507 165.813C122.589 166.059 122.48 166.305 122.288 166.47C122.179 166.524 122.042 166.552 121.933 166.552ZM98.6181 146.466L120.865 164.363L111.479 134.234L98.6181 146.466Z" fill="#4D6C9C"/>
<path d="M121.933 166.552C121.714 166.524 121.495 166.388 121.44 166.141L111.233 133.359C111.179 133.14 111.233 132.921 111.397 132.757C111.562 132.62 111.808 132.565 111.999 132.647L173.515 159.437C173.761 159.547 173.898 159.793 173.843 160.039C173.816 160.285 173.597 160.504 173.35 160.532L122.015 166.524C121.988 166.552 121.96 166.552 121.933 166.552ZM112.684 134.207L122.371 165.348L171.134 159.629L112.684 134.207Z" fill="#4D6C9C"/>
<path d="M23.8312 105.474C23.7765 105.474 23.6944 105.447 23.6397 105.42L5.55179 97.0188C5.41497 96.9641 5.30551 96.8272 5.25078 96.6904C5.19605 96.5536 5.22342 96.3894 5.27815 96.2526C6.04435 94.8296 6.86528 93.4888 7.74094 92.2574C8.26086 78.9583 15.0472 66.4254 25.8835 58.6265C27.7443 51.7854 31.3017 45.4369 36.1999 40.2103C36.2546 40.1556 36.3094 40.1008 36.3915 40.0735L68.572 25.543C68.7909 25.4335 69.0646 25.4882 69.2287 25.6798C69.3929 25.8713 69.4203 26.145 69.3108 26.3365L24.3785 105.173C24.2417 105.365 24.0501 105.474 23.8312 105.474ZM6.56427 96.2526L23.6397 104.161L67.4501 27.2669L36.9661 41.0312C32.1773 46.1484 28.7294 52.3875 26.9507 59.0917C26.9234 59.2285 26.8413 59.338 26.7318 59.4201C16.0324 67.0274 9.35544 79.3687 8.89025 92.4489C8.89025 92.5584 8.86288 92.6678 8.78079 92.7499C7.98722 93.8171 7.24838 94.9938 6.56427 96.2526Z" fill="#4D6C9C"/>
<path d="M1.25552 109.579C1.1187 109.579 0.981874 109.524 0.899781 109.415C0.762959 109.278 0.708237 109.087 0.735601 108.922C1.5839 104.489 3.08893 100.221 5.25072 96.2527C5.38754 95.979 5.71592 95.8696 5.98956 96.0064L24.0774 104.407C24.2964 104.517 24.4332 104.736 24.4058 105.009C24.3784 105.256 24.1869 105.447 23.9406 105.502L1.39234 109.607C1.36498 109.579 1.31025 109.579 1.25552 109.579ZM6.01693 97.2378C4.18352 100.713 2.84265 104.435 2.02172 108.293L21.9977 104.654L6.01693 97.2378Z" fill="#4D6C9C"/>
<path d="M218.501 208.693C218.337 208.693 218.2 208.584 218.091 208.447L183.064 160.176C182.955 160.012 182.928 159.82 183.01 159.629C183.092 159.437 183.256 159.328 183.447 159.273L199.784 156.646C200.058 156.619 200.304 156.755 200.413 157.002L219.103 207.899C219.213 208.173 219.076 208.474 218.83 208.611C218.72 208.666 218.611 208.693 218.501 208.693ZM184.542 160.258L216.613 204.479L199.51 157.877L184.542 160.258Z" fill="#4D6C9C"/>
<path d="M218.502 208.693C218.283 208.666 218.091 208.529 218.009 208.31L199.319 157.412C199.237 157.221 199.292 156.974 199.456 156.837C199.593 156.673 199.839 156.619 200.031 156.673L217.653 162.037C217.9 162.119 218.064 162.31 218.064 162.557L219.131 208.091C219.131 208.365 218.939 208.611 218.666 208.666C218.611 208.693 218.556 208.693 218.502 208.693ZM200.797 158.096L217.9 204.698L216.915 163.022L200.797 158.096Z" fill="#4D6C9C"/>
<path d="M124.286 26.4734C124.177 26.4734 124.067 26.4186 123.985 26.3639L108.032 14.0773C107.895 13.9678 107.813 13.7763 107.813 13.5847C107.813 13.3932 107.922 13.229 108.086 13.1195L129.184 0.422459C129.239 0.395095 129.321 0.367734 129.403 0.340369L129.677 0.285639C129.896 0.258275 130.115 0.203549 130.334 0.176184C134.028 -0.261646 137.804 0.121454 141.334 1.27076C141.498 1.32549 141.635 1.46231 141.69 1.62649C141.745 1.79068 141.717 1.98223 141.608 2.14642L124.806 26.1997C124.724 26.3365 124.587 26.4186 124.423 26.446C124.396 26.4734 124.341 26.4734 124.286 26.4734ZM109.4 13.6668L124.204 25.0778L140.212 2.14642C137.065 1.21603 133.727 0.942388 130.443 1.32549C130.252 1.35285 130.033 1.38021 129.841 1.40758L129.677 1.43494L109.4 13.6668Z" fill="#4D6C9C"/>
<path d="M113.887 190.249C111.589 190.058 109.29 189.702 107.046 189.182C106.882 189.155 106.718 189.018 106.663 188.854C106.581 188.69 106.608 188.498 106.69 188.334L112.984 177.662C113.066 177.498 113.23 177.415 113.422 177.388C113.614 177.361 113.778 177.443 113.915 177.552L124.477 188.991C124.614 189.155 124.669 189.374 124.587 189.565C124.505 189.757 124.34 189.921 124.121 189.948L123.848 190.003C123.602 190.03 123.355 190.085 123.109 190.113C120.044 190.441 116.925 190.496 113.887 190.249ZM108.059 188.224C112.902 189.264 117.91 189.511 122.863 188.936L113.559 178.866L108.059 188.224Z" fill="#4D6C9C"/>
<path d="M123.985 189.948C123.848 189.948 123.711 189.866 123.602 189.757L113.039 178.318C112.848 178.127 112.848 177.826 112.985 177.607L121.495 165.649C121.604 165.485 121.769 165.402 121.96 165.402C122.152 165.375 122.316 165.512 122.425 165.676L135.396 186.172C135.478 186.309 135.505 186.5 135.451 186.637C135.396 186.801 135.287 186.938 135.122 186.993C131.592 188.416 127.871 189.401 124.067 189.948C124.04 189.948 124.012 189.948 123.985 189.948ZM114.189 177.881L124.231 188.744C127.625 188.252 130.936 187.376 134.083 186.172L121.933 166.99L114.189 177.881Z" fill="#4D6C9C"/>
<path d="M169.547 191.344C169.492 191.344 169.437 191.344 169.383 191.317C161.638 188.389 155.536 182.368 152.471 174.761C147.737 180.097 141.744 184.339 135.122 186.993C134.876 187.102 134.575 186.993 134.438 186.774L121.467 166.278C121.358 166.114 121.358 165.895 121.44 165.731C121.522 165.567 121.686 165.43 121.878 165.402L173.186 159.41C173.35 159.382 173.542 159.437 173.651 159.574C173.788 159.683 173.843 159.875 173.816 160.039L170.121 190.851C170.094 191.016 170.012 191.18 169.848 191.262C169.793 191.317 169.656 191.344 169.547 191.344ZM152.745 173.092C152.772 173.092 152.772 173.092 152.8 173.092C152.991 173.119 153.155 173.256 153.238 173.448C155.947 180.973 161.721 186.938 169.136 189.976L172.666 160.614L122.973 166.442L135.204 185.762C141.772 183.025 147.683 178.729 152.307 173.311C152.362 173.147 152.553 173.065 152.745 173.092Z" fill="#4D6C9C"/>
<path d="M198.142 270.536C198.115 270.536 198.115 270.536 198.088 270.536L197.923 270.509C197.65 270.454 197.431 270.208 197.458 269.934C197.458 269.715 197.622 269.414 197.841 269.332C198.06 269.25 198.306 269.223 198.471 269.414L198.635 269.579C198.799 269.77 198.826 270.016 198.717 270.235C198.58 270.427 198.361 270.536 198.142 270.536Z" fill="#4D6C9C"/>
<path d="M174.281 195.941C174.089 195.914 173.898 195.804 173.816 195.613C173.241 194.436 172.776 193.314 172.393 192.247C171.408 192.001 170.395 191.672 169.41 191.289C169.164 191.207 169.027 190.933 169.054 190.687L172.748 159.875C172.776 159.574 173.022 159.382 173.296 159.382L183.557 159.245C183.722 159.245 183.913 159.327 184.023 159.464C184.132 159.601 184.159 159.793 184.132 159.957L174.91 195.503C174.855 195.722 174.664 195.914 174.418 195.914C174.336 195.941 174.308 195.941 174.281 195.941ZM170.204 190.413C171.134 190.742 172.037 191.015 172.94 191.262C173.132 191.316 173.296 191.453 173.35 191.645C173.569 192.329 173.843 193.013 174.144 193.752L182.791 160.477L173.788 160.586L170.204 190.413Z" fill="#4D6C9C"/>
<path d="M221.539 95.4318C221.347 95.4045 221.156 95.295 221.074 95.1308L198.826 53.1538C198.69 52.9076 198.772 52.5792 199.018 52.415C199.264 52.2508 199.565 52.2782 199.784 52.4971L229.174 85.8817C229.365 86.1006 229.365 86.4016 229.174 86.6205L222.031 95.2403C221.922 95.3771 221.73 95.4592 221.539 95.4318ZM202.11 56.8754L221.703 93.8447L227.97 86.2648L202.11 56.8754Z" fill="#4D6C9C"/>
<path d="M236.973 210.225L218.529 208.693C218.228 208.666 218.009 208.419 218.009 208.146L216.942 162.611C216.942 162.365 217.106 162.119 217.352 162.064C217.599 161.982 217.872 162.091 218.009 162.31L245.62 204.944C245.784 205.19 245.729 205.519 245.483 205.71C242.993 207.653 240.202 209.185 237.246 210.225C237.137 210.225 237.055 210.225 236.973 210.225ZM219.104 207.598L236.918 209.076C239.572 208.118 242.035 206.805 244.306 205.081L218.091 164.582L219.104 207.598Z" fill="#4D6C9C"/>
<path d="M245.045 205.792C245.018 205.792 245.018 205.792 244.991 205.792C244.826 205.765 244.69 205.683 244.608 205.546L216.997 162.912C216.915 162.776 216.887 162.611 216.942 162.447C216.997 162.283 217.106 162.146 217.243 162.092L236.316 152.788C236.48 152.706 236.672 152.706 236.809 152.788C236.973 152.87 237.082 153.007 237.11 153.198L247.645 203.439C247.672 203.631 247.618 203.822 247.481 203.959C246.824 204.561 246.14 205.163 245.428 205.71C245.319 205.765 245.182 205.82 245.045 205.792ZM218.31 162.83L245.237 204.397C245.675 204.041 246.085 203.685 246.468 203.33L236.152 154.128L218.31 162.83Z" fill="#4D6C9C"/>
<path d="M247.042 204.096C246.988 204.096 246.96 204.068 246.906 204.068C246.714 204.014 246.55 203.849 246.522 203.63L235.987 153.389C235.96 153.225 235.987 153.034 236.124 152.897C236.233 152.76 236.425 152.678 236.589 152.705L269.016 154.566C269.18 154.539 269.372 154.676 269.454 154.812C269.563 154.949 269.563 155.141 269.509 155.332L259.274 183.189C259.22 183.326 259.137 183.408 259.028 183.49C258.481 183.791 257.933 184.092 257.359 184.393C257.14 184.503 256.894 184.612 256.675 184.694C256.127 192.028 252.871 198.842 247.48 203.931C247.371 204.041 247.207 204.096 247.042 204.096ZM237.273 153.882L247.426 202.372C252.269 197.501 255.142 191.098 255.58 184.256C255.58 184.038 255.717 183.873 255.908 183.764L256.073 183.682C256.319 183.572 256.593 183.436 256.839 183.326C257.331 183.08 257.797 182.834 258.262 182.56L268.168 155.633L237.273 153.882Z" fill="#4D6C9C"/>
<path d="M258.7 183.572C258.59 183.572 258.481 183.518 258.372 183.436C258.18 183.271 258.125 183.025 258.207 182.806L268.442 154.949C268.524 154.73 268.743 154.566 268.989 154.566C269.263 154.594 269.454 154.73 269.509 154.977L272.628 165.84C272.656 165.95 272.656 166.059 272.628 166.169C270.494 173.53 265.65 179.687 259.001 183.49C258.919 183.545 258.809 183.572 258.7 183.572ZM268.934 156.974L259.849 181.657C265.486 177.99 269.591 172.517 271.534 166.004L268.934 156.974Z" fill="#4D6C9C"/>
<path d="M111.726 133.769C111.698 133.769 111.644 133.769 111.616 133.742C111.37 133.66 111.206 133.468 111.206 133.222L109.017 66.2065C109.017 65.9876 109.126 65.796 109.29 65.6866C109.482 65.5771 109.701 65.5771 109.865 65.6866L144.563 87.1129C144.7 87.195 144.782 87.3318 144.809 87.496C144.837 87.6602 144.809 87.797 144.727 87.9338L112.218 133.523C112.109 133.687 111.917 133.769 111.726 133.769ZM110.193 67.2464L112.273 131.498L143.468 87.797L110.193 67.2464Z" fill="#4D6C9C"/>
<path d="M144.262 88.1803C144.18 88.1803 144.098 88.1529 144.016 88.0982L109.29 66.6718C109.071 66.535 108.962 66.2614 109.044 66.0151C109.126 65.7688 109.372 65.6046 109.619 65.632L151.377 68.5326C151.596 68.5053 151.705 68.6421 151.815 68.7789C151.897 68.9431 151.924 69.1073 151.869 69.2988L144.837 87.8245C144.782 87.9887 144.645 88.0982 144.481 88.1529C144.399 88.1803 144.344 88.2076 144.262 88.1803ZM111.863 66.9181L144.016 86.7573L150.528 69.5998L111.863 66.9181Z" fill="#4D6C9C"/>
<path d="M111.726 133.769C111.562 133.769 111.425 133.687 111.315 133.55C111.151 133.359 111.151 133.058 111.288 132.866L143.824 87.3045C143.988 87.0856 144.262 87.0035 144.508 87.113L182.49 103.203C182.709 103.285 182.846 103.504 182.846 103.723C182.846 103.942 182.709 104.161 182.49 104.243L111.972 133.715C111.89 133.742 111.808 133.769 111.726 133.769ZM144.508 88.317L113.395 131.881L180.821 103.696L144.508 88.317Z" fill="#4D6C9C"/>
<path d="M173.241 160.532C173.186 160.532 173.104 160.504 173.05 160.477L111.534 133.687C111.315 133.605 111.179 133.386 111.206 133.167C111.206 132.948 111.343 132.729 111.562 132.647L182.08 103.176C182.271 103.094 182.49 103.121 182.654 103.258C182.819 103.395 182.901 103.586 182.873 103.805L173.843 160.067C173.816 160.231 173.706 160.395 173.542 160.477C173.46 160.532 173.351 160.559 173.241 160.532ZM113.204 133.195L172.831 159.136L181.532 104.599L113.204 133.195Z" fill="#4D6C9C"/>
<path d="M182.244 104.27C182.189 104.27 182.134 104.243 182.08 104.216L144.098 88.1254C143.824 88.016 143.687 87.6876 143.797 87.3866L150.829 68.8609C150.912 68.6694 151.076 68.5325 151.267 68.5052C151.459 68.4504 151.65 68.5325 151.787 68.6967L182.736 103.313C182.928 103.504 182.928 103.805 182.764 104.024C182.627 104.216 182.435 104.298 182.244 104.27ZM145.028 87.3045L180.164 102.191L151.541 70.1744L145.028 87.3045Z" fill="#4D6C9C"/>
<path d="M182.243 104.271C182.107 104.271 181.97 104.188 181.86 104.079L150.911 69.4904C150.802 69.3809 150.747 69.2167 150.774 69.0525C150.774 68.8883 150.857 68.7515 150.993 68.6421L172.967 50.8552C173.131 50.7184 173.35 50.691 173.514 50.7731C173.706 50.8552 173.843 51.0194 173.87 51.2109L182.818 103.614C182.873 103.86 182.736 104.106 182.49 104.216C182.435 104.27 182.326 104.298 182.243 104.271ZM152.17 69.162L181.395 101.835L172.94 52.3602L152.17 69.162Z" fill="#4D6C9C"/>
<path d="M173.241 160.531C173.076 160.531 172.94 160.449 172.858 160.34C172.748 160.203 172.693 160.039 172.721 159.875L181.724 103.614C181.778 103.313 182.025 103.121 182.326 103.121C182.627 103.148 182.846 103.395 182.846 103.668L184.104 159.793C184.104 159.929 184.05 160.094 183.94 160.203C183.831 160.313 183.694 160.367 183.53 160.367L173.268 160.504C173.268 160.531 173.268 160.531 173.241 160.531ZM181.86 109.989L173.952 159.382L182.955 159.273L181.86 109.989Z" fill="#4D6C9C"/>
<path d="M183.503 160.395C183.393 160.395 183.284 160.34 183.175 160.258C183.038 160.148 182.983 159.984 182.983 159.847L181.724 103.723C181.724 103.449 181.916 103.203 182.189 103.148C182.463 103.094 182.737 103.258 182.819 103.532L200.414 157.029C200.469 157.193 200.441 157.357 200.359 157.494C200.277 157.631 200.14 157.74 199.949 157.768L183.612 160.395C183.585 160.395 183.53 160.395 183.503 160.395ZM182.928 107.527L184.078 159.163L199.101 156.755L182.928 107.527Z" fill="#4D6C9C"/>
<path d="M182.243 104.271C181.97 104.243 181.778 104.052 181.723 103.805L172.748 51.4025C172.721 51.2383 172.775 51.0467 172.885 50.9373C172.994 50.8005 173.158 50.7457 173.35 50.7457L199.373 52.3055C199.538 52.2781 199.702 52.415 199.811 52.5518C199.893 52.6886 199.948 52.8802 199.866 53.0443L182.791 103.887C182.736 104.134 182.517 104.298 182.243 104.271ZM174.007 51.9224L182.462 101.37L198.553 53.3727L174.007 51.9224Z" fill="#4D6C9C"/>
<path d="M182.244 104.27C182.107 104.27 181.97 104.188 181.861 104.079C181.724 103.915 181.669 103.723 181.751 103.504L198.827 52.6611C198.909 52.4422 199.1 52.3054 199.319 52.278C199.538 52.2507 199.757 52.3875 199.867 52.579L222.114 94.556C222.196 94.7202 222.196 94.9118 222.141 95.0486C222.059 95.2128 221.922 95.3222 221.758 95.377L182.436 104.216C182.353 104.27 182.299 104.27 182.244 104.27ZM199.456 54.303L183.147 102.93L220.746 94.4739L199.456 54.303Z" fill="#4D6C9C"/>
<path d="M68.764 26.583H68.7366C68.5451 26.5557 68.3809 26.4462 68.2988 26.2546L65.3708 20.0977C65.2614 19.8514 65.3435 19.523 65.5897 19.3588C69.6397 16.7866 74.0453 14.9258 78.752 13.8312C78.9983 13.7765 79.2446 13.8859 79.354 14.1048C79.4908 14.3238 79.4635 14.5974 79.2993 14.7616L69.2566 26.3641C69.1197 26.5283 68.9282 26.6104 68.764 26.583ZM66.6022 20.0977L68.9556 24.9959L77.247 15.4183C73.4707 16.4582 69.9133 18.018 66.6022 20.0977Z" fill="#4D6C9C"/>
<path d="M68.7634 26.5828C68.5992 26.5555 68.435 26.4734 68.3255 26.3366C68.1887 26.1176 68.2161 25.844 68.3802 25.6525L78.423 14.0499C78.5051 13.9679 78.6145 13.8858 78.724 13.8584C80.2838 13.5027 81.8435 13.229 83.3486 13.0375C84.1969 12.928 85.0178 12.8733 85.8387 12.8185C91.7768 8.38551 98.8095 5.59435 106.17 4.71869C107.21 4.60923 108.25 4.52713 109.263 4.47241C109.427 4.44504 109.591 4.52713 109.7 4.66396C109.81 4.77341 109.865 4.9376 109.865 5.10179L108.962 13.6121C108.934 13.831 108.77 14.0226 108.579 14.1047L68.9823 26.5281C68.9002 26.5828 68.8181 26.6102 68.7634 26.5828ZM79.1618 14.953L70.542 24.8862L107.867 13.1743L108.661 5.67644C107.894 5.73116 107.101 5.78589 106.307 5.89535C99.0831 6.74365 92.1873 9.50746 86.386 13.8584C86.3039 13.9131 86.1945 13.9679 86.085 13.9679C85.2094 14.0226 84.3611 14.0773 83.4854 14.1868C82.0898 14.351 80.6121 14.5972 79.1618 14.953Z" fill="#4D6C9C"/>
<path d="M108.36 14.1596C108.278 14.1596 108.168 14.1323 108.114 14.0776C107.922 13.9681 107.84 13.7492 107.84 13.5303L108.743 5.01993C108.77 4.74629 108.989 4.52737 109.29 4.52737C112.191 4.39055 115.146 4.5821 118.02 5.0473C121.358 2.61187 125.271 0.970005 129.403 0.340624C129.677 0.285895 129.923 0.450079 130.032 0.696359C130.115 0.942639 130.032 1.24365 129.786 1.38047L108.688 14.0776C108.579 14.1596 108.469 14.187 108.36 14.1596ZM109.81 5.62195L109.071 12.5178L126.147 2.22877C123.383 3.0497 120.783 4.36319 118.485 6.08715C118.348 6.16924 118.211 6.22397 118.047 6.1966C115.365 5.73141 112.574 5.53986 109.81 5.62195Z" fill="#4D6C9C"/>
<path d="M38.2249 160.231C38.1975 160.231 38.1975 160.231 38.2249 160.231C30.3986 159.273 23.0102 156.181 16.7712 151.337C16.5522 151.173 16.4975 150.872 16.607 150.626L18.9877 145.837C19.1245 145.563 19.4529 145.454 19.7265 145.563L47.7477 158.206C47.9939 158.315 48.1034 158.562 48.076 158.808C48.0487 159.054 47.8298 159.246 47.5835 159.273L38.3343 160.176C38.2796 160.231 38.2522 160.231 38.2249 160.231ZM17.8384 150.708C23.8038 155.25 30.8638 158.151 38.2796 159.081L45.3396 158.397L19.7539 146.85L17.8384 150.708Z" fill="#4D6C9C"/>
<path d="M39.9762 160.395C39.3742 160.34 38.7722 160.285 38.1975 160.203C37.9239 160.176 37.705 159.93 37.705 159.628C37.705 159.327 37.9239 159.081 38.2249 159.054L47.474 158.151C47.6656 158.123 47.8571 158.206 47.9666 158.37C48.0761 158.534 48.1308 158.725 48.0487 158.917L47.6656 159.984C47.5835 160.203 47.392 160.34 47.173 160.367C44.765 160.586 42.3569 160.586 39.9762 160.395Z" fill="#4D6C9C"/>
<path d="M47.4736 159.328C47.4189 159.328 47.3368 159.3 47.2821 159.273L19.2609 146.63C19.042 146.521 18.9052 146.302 18.9325 146.056L23.3109 104.845C23.3382 104.599 23.5298 104.38 23.8034 104.352C24.0771 104.325 24.296 104.435 24.4054 104.681L48.0483 158.534C48.1304 158.753 48.103 158.999 47.9388 159.163C47.802 159.273 47.6378 159.328 47.4736 159.328ZM20.1092 145.755L46.4064 157.631L24.2139 107.089L20.1092 145.755Z" fill="#4D6C9C"/>
<path d="M47.474 159.328C47.2551 159.3 47.0909 159.191 47.0088 158.999L23.366 105.146C23.2839 104.982 23.3112 104.79 23.3933 104.626C23.5028 104.462 23.667 104.353 23.8585 104.353L74.1543 101.643C74.3458 101.643 74.5374 101.726 74.6469 101.89C74.7563 102.054 74.7837 102.273 74.7016 102.464L48.0487 159.027C47.9666 159.218 47.7477 159.355 47.5287 159.355C47.5014 159.328 47.474 159.328 47.474 159.328ZM24.7342 105.42L47.5287 157.385L73.2513 102.82L24.7342 105.42Z" fill="#4D6C9C"/>
<path d="M47.2001 160.367C47.036 160.34 46.8444 160.285 46.7349 160.148C46.6255 159.984 46.516 159.793 46.5981 159.601L46.9812 158.534C47.0633 158.315 47.2549 158.178 47.5012 158.151C47.7201 158.151 47.939 158.26 48.0484 158.479L48.5136 159.464C48.5957 159.629 48.5957 159.82 48.4863 159.984C48.4042 160.148 48.24 160.258 48.0484 160.258L47.3096 160.34C47.2549 160.367 47.2275 160.367 47.2001 160.367Z" fill="#4D6C9C"/>
<path d="M73.5248 157.439C73.4427 157.439 73.3879 157.412 73.3332 157.385C73.1964 157.33 73.0869 157.193 73.0322 157.029C72.6217 155.633 72.266 154.21 71.9924 152.76C71.9376 152.459 72.1292 152.158 72.4302 152.103L97.6328 145.974C97.9338 145.892 98.2074 146.056 98.3169 146.357C98.399 146.63 98.2622 146.931 97.9885 147.068L73.8258 157.439C73.7163 157.439 73.6342 157.439 73.5248 157.439ZM73.2237 153.061C73.4427 154.074 73.6889 155.086 73.9626 156.099L91.2569 148.683L73.2237 153.061Z" fill="#4D6C9C"/>
<path d="M47.9393 160.313C47.7477 160.285 47.5561 160.176 47.4741 159.984L46.9815 158.999C46.8994 158.835 46.8994 158.671 46.9815 158.507C47.0636 158.342 47.2004 158.233 47.3646 158.206L64.1116 154.128C64.3853 154.074 64.6863 154.21 64.7684 154.484C64.8778 154.758 64.7684 155.059 64.5221 155.196C59.5965 157.905 54.2331 159.629 48.596 160.285L48.0213 160.34C48.0213 160.313 47.9666 160.313 47.9393 160.313ZM58.7756 156.591L48.3224 159.136L48.4592 159.109C52.0439 158.698 55.4918 157.85 58.7756 156.591Z" fill="#4D6C9C"/>
<path d="M47.4738 159.327C47.3096 159.327 47.1728 159.245 47.0907 159.109C46.9538 158.944 46.9265 158.698 47.0086 158.507L73.6615 101.944C73.7436 101.753 73.9351 101.616 74.1541 101.616C74.373 101.616 74.5645 101.725 74.674 101.917L98.2621 146.22C98.3442 146.384 98.3442 146.548 98.2895 146.713C98.2074 146.877 98.0706 146.986 97.9064 147.041L72.7038 153.171C72.5669 153.198 72.4027 153.198 72.2659 153.088C72.1291 153.006 72.047 152.87 72.0196 152.733C71.8555 151.857 71.7186 151.063 71.6092 150.297C69.42 152.131 67.0667 153.773 64.5765 155.141C64.5218 155.168 64.4944 155.195 64.4397 155.195L47.6927 159.273C47.5832 159.328 47.5285 159.327 47.4738 159.327ZM74.2088 103.477L48.541 157.932L64.0566 154.156C66.7657 152.651 69.3106 150.872 71.6365 148.82C71.8007 148.683 72.0196 148.628 72.2112 148.71C72.4027 148.792 72.5396 148.956 72.5669 149.175C72.6764 150.051 72.8132 150.954 73.0048 151.966L96.9213 146.138L74.2088 103.477Z" fill="#4D6C9C"/>
<path d="M136.573 34.5733C136.49 34.5733 136.381 34.546 136.299 34.4912L124.012 26.364C123.875 26.2819 123.793 26.1451 123.766 25.9809C123.739 25.8167 123.793 25.6525 123.903 25.5431L143.496 2.58436C143.66 2.3928 143.934 2.33808 144.152 2.44754L144.317 2.52963C144.344 2.52963 144.344 2.55699 144.371 2.55699C146.205 1.70869 148.148 1.05195 150.145 0.641485C150.364 0.614121 150.556 0.668849 150.693 0.833035C150.829 0.997221 150.857 1.21613 150.775 1.40769L137.12 34.2723C137.065 34.4365 136.928 34.546 136.764 34.6007C136.709 34.5733 136.655 34.6007 136.573 34.5733ZM125.189 25.7894L136.354 33.1778L149.324 1.95498C147.71 2.36544 146.15 2.94009 144.645 3.65157C144.481 3.73366 144.317 3.73366 144.152 3.65157C144.125 3.65157 144.125 3.6242 144.098 3.6242L125.189 25.7894Z" fill="#4D6C9C"/>
<path d="M124.286 26.4733C124.176 26.4733 124.067 26.4186 123.985 26.3638C123.739 26.1723 123.684 25.8439 123.875 25.5976L140.677 1.54433C140.814 1.32542 141.088 1.24332 141.307 1.32542C142.237 1.62642 143.167 1.98216 144.152 2.44736C144.317 2.52945 144.426 2.66627 144.481 2.83046C144.508 2.99464 144.481 3.18619 144.371 3.32302L124.778 26.2817C124.642 26.4186 124.477 26.4733 124.286 26.4733ZM141.361 2.50208L131.565 16.54L143.003 3.13147C142.456 2.91255 141.909 2.69363 141.361 2.50208Z" fill="#4D6C9C"/>
<path d="M240.585 39.7177C240.53 39.7177 240.475 39.6904 240.421 39.663L228.435 34.7374C228.298 34.6827 228.161 34.5459 228.107 34.409C228.052 34.2722 228.052 34.0807 228.134 33.9438L230.433 29.6476C230.57 29.4014 230.871 29.2919 231.144 29.374C235.605 31.0706 239.244 34.5459 241.132 38.8968C241.214 39.1157 241.187 39.362 241.023 39.5262C240.913 39.663 240.749 39.7451 240.585 39.7177ZM229.448 33.9438L239.463 38.0485C237.657 34.7374 234.729 32.0831 231.226 30.6328L229.448 33.9438Z" fill="#4D6C9C"/>
<path d="M264.912 76.1946C264.775 76.1946 264.638 76.1125 264.528 76.0031L228.216 34.6007C228.024 34.4092 228.024 34.1082 228.189 33.8892C228.353 33.6703 228.626 33.5882 228.873 33.6977L240.831 38.6233C240.968 38.678 241.077 38.7875 241.132 38.9243C241.542 39.8547 241.843 40.7851 242.09 41.7155C249.095 45.0813 253.802 51.6487 254.705 59.3929C254.759 59.9675 254.814 60.5422 254.841 61.0895C260.232 64.209 264.118 69.4356 265.541 75.4831C265.596 75.7294 265.486 76.003 265.24 76.1125C265.13 76.1946 265.021 76.1946 264.912 76.1946ZM230.679 35.6679L263.68 73.294C261.929 68.5052 258.508 64.4553 253.993 61.9377C253.829 61.8283 253.72 61.6641 253.692 61.4452C253.665 60.8158 253.637 60.1591 253.555 59.5297C252.68 52.1139 248.137 45.7928 241.351 42.6458C241.187 42.5638 241.077 42.4269 241.05 42.2627C240.858 41.3597 240.557 40.4841 240.201 39.6084L230.679 35.6679Z" fill="#4D6C9C"/>
<path d="M17.0718 151.447C16.9623 151.447 16.8529 151.392 16.7708 151.337C11.8999 147.533 7.79527 142.635 4.94938 137.162C4.83992 136.943 4.86728 136.642 5.0862 136.478C5.27775 136.314 5.55139 136.287 5.77031 136.424L19.8082 145.618C20.0545 145.782 20.1366 146.083 19.9998 146.357L17.6191 151.146C17.537 151.31 17.4002 151.419 17.236 151.447C17.1813 151.447 17.1265 151.447 17.0718 151.447ZM7.0838 138.64C9.65605 142.964 13.0219 146.822 16.9076 149.996L18.741 146.302L7.0838 138.64Z" fill="#4D6C9C"/>
<path d="M19.4524 146.685C19.3703 146.685 19.2608 146.658 19.1787 146.603L5.14081 137.409C5.05872 137.354 5.00399 137.272 4.94926 137.19C2.65065 132.784 1.11824 128.023 0.434134 123.07C0.406769 122.824 0.543588 122.577 0.762504 122.468C1.00878 122.358 1.28243 122.44 1.41925 122.632L19.9176 145.782C20.0818 146.001 20.0818 146.302 19.8902 146.521C19.7808 146.631 19.6166 146.685 19.4524 146.685ZM5.87964 136.506L16.798 143.675L1.88444 125.013C2.67801 129.035 4.01886 132.894 5.87964 136.506Z" fill="#4D6C9C"/>
<path d="M199.292 53.4548C199.182 53.4548 199.073 53.4 198.991 53.3453C198.799 53.2085 198.717 52.9622 198.799 52.7159L205.695 29.9761C205.777 29.7025 206.051 29.5383 206.352 29.593L228.763 33.6977C228.982 33.7524 229.174 33.9166 229.228 34.1629C229.283 34.3818 229.174 34.6281 228.982 34.7375L199.675 53.3727C199.538 53.4274 199.429 53.4548 199.292 53.4548ZM206.625 30.7697L200.332 51.5666L227.121 34.5186L206.625 30.7697Z" fill="#4D6C9C"/>
<path d="M206.187 30.6873C206.105 30.6873 205.996 30.66 205.941 30.6052C205.804 30.5232 205.695 30.359 205.667 30.1948L203.834 14.4876C203.806 14.2413 203.943 13.9951 204.19 13.8856C204.436 13.8035 204.709 13.8582 204.846 14.0772L204.928 14.1866C211.988 14.3234 218.2 18.5923 220.937 25.0503C220.991 25.1871 220.991 25.3513 220.937 25.5155C220.882 25.6523 220.745 25.7617 220.608 25.8165L206.433 30.6873C206.351 30.6873 206.269 30.6873 206.187 30.6873ZM205.065 15.3085L206.707 29.3465L219.623 24.9135C216.996 19.2217 211.414 15.4727 205.065 15.3085Z" fill="#4D6C9C"/>
<path d="M228.599 34.7921C228.572 34.7921 228.572 34.7921 228.544 34.7921L206.133 30.6874C205.859 30.6327 205.64 30.3864 205.668 30.0854C205.695 29.7844 205.914 29.5655 206.215 29.5655L229.256 28.8267C229.311 28.8267 229.365 28.8267 229.42 28.854C229.967 28.9908 230.542 29.1824 231.144 29.4287C231.308 29.4834 231.418 29.5929 231.472 29.7571C231.527 29.8939 231.527 30.0854 231.445 30.2222L229.146 34.5185C229.064 34.6826 228.845 34.8195 228.599 34.7921ZM211.579 30.5233L228.353 33.5881L230.132 30.2222C229.831 30.1128 229.53 30.0307 229.229 29.9486L211.579 30.5233Z" fill="#4D6C9C"/>
<path d="M206.187 30.6876C205.941 30.6602 205.722 30.4687 205.667 30.2224C205.613 29.9488 205.777 29.6751 206.051 29.5657L220.225 24.6948C220.499 24.5854 220.827 24.7495 220.937 25.0232C221.429 26.1451 221.785 27.3218 222.004 28.4711C222.25 28.4164 222.524 28.389 222.798 28.3616C225.041 28.1154 227.285 28.2522 229.447 28.8542C229.721 28.9363 229.885 29.1826 229.858 29.4562C229.83 29.7299 229.584 29.9488 229.31 29.9488L206.269 30.6876C206.242 30.6876 206.215 30.6876 206.187 30.6876ZM220.088 25.9536L209.991 29.4288L220.937 29.0731C220.773 28.0333 220.472 26.9934 220.088 25.9536Z" fill="#4D6C9C"/>
<path d="M136.572 34.5734C136.408 34.5734 136.271 34.4913 136.162 34.3545C136.052 34.1903 136.025 33.9714 136.08 33.8072L149.735 0.942543C149.817 0.778356 149.953 0.641537 150.145 0.614173C150.911 0.449987 151.677 0.340526 152.389 0.258433C157.752 -0.370948 163.116 0.6689 167.822 3.26852C167.905 3.29588 167.987 3.35061 168.041 3.40534L191.192 28.0333C191.356 28.1975 191.383 28.4164 191.301 28.608C191.219 28.7995 191.027 28.9637 190.836 28.9637L136.627 34.6008C136.654 34.6008 136.6 34.6007 136.572 34.5734ZM150.665 1.65402L137.503 33.3694L189.604 27.9512L167.33 4.25364C162.815 1.76348 157.67 0.750991 152.526 1.35301C151.924 1.4351 151.322 1.5172 150.665 1.65402Z" fill="#4D6C9C"/>
<path d="M173.268 51.8948C173.213 51.8948 173.131 51.8675 173.077 51.8401L136.381 34.5458C136.162 34.4364 136.025 34.1901 136.053 33.9438C136.107 33.6975 136.299 33.506 136.545 33.4786L190.754 27.8415C190.973 27.8142 191.192 27.9236 191.301 28.1425C191.411 28.3341 191.411 28.5804 191.274 28.7719L173.788 51.7033C173.651 51.8127 173.46 51.8948 173.268 51.8948ZM138.707 34.3816L173.159 50.6087L189.577 29.1003L138.707 34.3816Z" fill="#4D6C9C"/>
<path d="M190.782 28.9636C190.645 28.9636 190.508 28.8815 190.399 28.772L167.248 4.14409C167.112 4.00726 167.057 3.81571 167.112 3.62416C167.166 3.43261 167.303 3.29579 167.467 3.2137C168.726 2.77587 169.985 2.47486 171.244 2.33804C175.239 1.87284 179.289 2.80323 182.682 4.91029L182.791 4.88293C186.185 4.49982 189.605 5.07447 192.697 6.60688C192.916 6.71634 193.026 6.93526 193.026 7.15417L191.384 28.4163C191.357 28.6352 191.22 28.8268 191.001 28.9089C190.946 28.9362 190.864 28.9636 190.782 28.9636ZM168.699 4.03463L190.344 27.0755L191.876 7.48255C189.085 6.16905 186.02 5.67649 182.956 6.03223L182.682 6.08696C182.545 6.11432 182.408 6.05959 182.299 6.00487C179.097 3.95254 175.212 3.04951 171.408 3.48734C170.505 3.56943 169.602 3.76099 168.699 4.03463Z" fill="#4D6C9C"/>
<path d="M173.268 51.8948C173.049 51.8675 172.885 51.758 172.803 51.5664C172.721 51.3749 172.748 51.156 172.858 50.9918L190.343 28.0604C190.48 27.8962 190.672 27.7868 190.891 27.8415C191.11 27.8689 191.274 28.0057 191.329 28.2246L199.866 52.7157C199.921 52.9073 199.894 53.0988 199.784 53.2357C199.675 53.3999 199.483 53.482 199.292 53.4546L173.268 51.8948C173.295 51.8948 173.295 51.8948 173.268 51.8948ZM190.617 29.5655L174.417 50.8002L198.525 52.2506L190.617 29.5655Z" fill="#4D6C9C"/>
<path d="M199.291 53.4547C199.073 53.4273 198.881 53.2905 198.799 53.0716L190.261 28.5804C190.207 28.3889 190.234 28.1973 190.343 28.0331C190.48 27.8689 190.644 27.8142 190.863 27.8142L206.297 29.5382C206.461 29.5655 206.625 29.6476 206.707 29.7844C206.789 29.9213 206.817 30.1128 206.762 30.2496L199.866 52.9895C199.784 53.2357 199.593 53.3999 199.346 53.3999C199.319 53.4547 199.319 53.4547 199.291 53.4547ZM191.657 29.0456L199.319 51.0192L205.503 30.6054L191.657 29.0456Z" fill="#4D6C9C"/>
<path d="M206.188 30.6876L190.754 28.9363C190.453 28.9089 190.234 28.6353 190.262 28.3343L191.903 7.07216C191.931 6.88061 192.04 6.71642 192.204 6.60696C192.369 6.52487 192.56 6.4975 192.724 6.5796C193.326 6.88061 193.819 7.15425 194.257 7.4279C198.444 8.24883 202.22 10.6022 204.847 14.0227C204.902 14.1048 204.956 14.2143 204.956 14.2964L206.79 30.0035C206.817 30.1677 206.762 30.3593 206.625 30.4687C206.516 30.6329 206.352 30.715 206.188 30.6876ZM191.438 27.8965L205.586 29.4836L203.862 14.6521C201.372 11.4778 197.869 9.31604 193.956 8.5772C193.901 8.54984 193.819 8.54984 193.764 8.49511C193.518 8.33092 193.244 8.1941 192.998 8.02991L191.438 27.8965Z" fill="#4D6C9C"/>
<path d="M191.575 225.522C191.357 225.495 191.138 225.358 191.083 225.112C188.976 218.407 186.376 212.223 183.366 206.75C179.316 203.932 176.005 200.073 173.816 195.613C173.761 195.476 173.734 195.339 173.789 195.23L183.01 159.683C183.065 159.464 183.257 159.3 183.503 159.273C183.749 159.246 183.968 159.355 184.078 159.574L213.96 217.422C214.014 217.504 214.042 217.614 214.014 217.723L213.96 218.38C213.932 218.626 213.795 218.818 213.549 218.873L191.794 225.495C191.74 225.522 191.658 225.522 191.575 225.522ZM174.911 195.312C177.045 199.553 180.219 203.22 184.105 205.902C184.187 205.957 184.242 206.011 184.269 206.093C187.279 211.512 189.879 217.614 191.986 224.236L212.838 217.915V217.805L183.695 161.435L174.911 195.312Z" fill="#4D6C9C"/>
<path d="M198.142 270.536C198.005 270.536 197.868 270.454 197.759 270.345L197.595 270.181C197.513 270.071 197.431 269.934 197.431 269.798C197.294 253.242 195.159 238.219 191.055 225.139C191 225.002 191.027 224.838 191.109 224.701C191.164 224.564 191.301 224.455 191.438 224.427L213.193 217.805C213.384 217.751 213.576 217.778 213.712 217.915C213.849 218.024 213.931 218.216 213.931 218.407C213.904 218.845 213.877 219.31 213.849 219.748L198.717 270.153C198.662 270.345 198.498 270.482 198.306 270.536C198.252 270.536 198.197 270.536 198.142 270.536ZM192.341 225.33C196.117 237.617 198.197 251.546 198.553 266.788L212.755 219.529C212.755 219.42 212.755 219.283 212.782 219.119L192.341 225.33Z" fill="#4D6C9C"/>
<path d="M213.384 218.243C213.193 218.216 213.001 218.106 212.919 217.942L183.01 160.094C182.873 159.82 182.955 159.519 183.201 159.355C183.448 159.191 183.776 159.273 183.968 159.492L218.994 207.79C219.104 207.954 219.131 208.173 219.049 208.365L218.31 209.897C218.173 210.171 217.872 210.28 217.598 210.198C216.668 209.87 215.792 209.514 214.999 209.131C214.561 211.758 214.233 214.604 213.986 217.559C213.986 217.614 214.014 217.669 214.014 217.751C214.014 218.052 213.713 218.216 213.384 218.243C213.412 218.243 213.384 218.243 213.384 218.243ZM187.525 166.278L213.056 215.671C213.302 213.044 213.631 210.527 214.041 208.173C214.068 208.009 214.178 207.845 214.342 207.763C214.506 207.681 214.698 207.681 214.862 207.763C215.71 208.173 216.586 208.556 217.544 208.912L217.899 208.173L187.525 166.278Z" fill="#4D6C9C"/>
<path d="M198.142 270.537C198.005 270.537 197.841 270.455 197.759 270.345C197.622 270.208 197.595 269.989 197.65 269.825L212.755 219.557C212.837 219.283 213.111 219.119 213.412 219.146C213.685 219.201 213.904 219.447 213.877 219.748C212.7 238.11 215.354 257.566 217.051 267.527C217.078 267.691 217.051 267.828 216.942 267.964C216.86 268.101 216.723 268.183 216.559 268.183L198.279 270.537C198.224 270.537 198.17 270.537 198.142 270.537ZM212.509 224.291L198.991 269.278L215.82 267.116C214.26 257.812 211.989 240.956 212.509 224.291Z" fill="#4D6C9C"/>
<path d="M225.097 211.785C222.579 211.566 220.062 211.046 217.653 210.171C217.489 210.116 217.38 210.007 217.325 209.842C217.27 209.678 217.27 209.514 217.352 209.377L218.091 207.845C218.201 207.626 218.42 207.516 218.639 207.516L237.082 209.049C237.356 209.076 237.575 209.268 237.602 209.541C237.63 209.815 237.465 210.061 237.219 210.143C235.167 210.882 233.005 211.375 230.816 211.621C228.9 211.895 226.985 211.922 225.097 211.785ZM218.611 209.322C220.746 210.034 222.962 210.472 225.179 210.663C227.012 210.8 228.846 210.773 230.679 210.554C231.774 210.417 232.868 210.225 233.935 209.979L218.912 208.72L218.611 209.322Z" fill="#4D6C9C"/>
<path d="M85.9209 177.689C85.7841 177.689 85.6746 177.634 85.5652 177.525C83.2939 175.363 81.2142 172.955 79.4355 170.383C79.2987 170.191 79.2987 169.945 79.4082 169.753C79.5176 169.562 79.7639 169.48 79.9555 169.48L95.1153 171.395C95.3616 171.423 95.5532 171.614 95.6079 171.861C95.6626 172.107 95.5532 172.353 95.3343 172.463L86.2219 177.634C86.1398 177.662 86.0304 177.689 85.9209 177.689ZM81.1048 170.766C82.5825 172.791 84.2517 174.679 86.0304 176.403L93.2819 172.298L81.1048 170.766Z" fill="#4D6C9C"/>
<path d="M104.501 188.471C104.474 188.471 104.419 188.471 104.392 188.443C97.3867 186.364 90.874 182.587 85.5653 177.525C85.4285 177.415 85.3738 177.224 85.4011 177.06C85.4285 176.868 85.5379 176.731 85.7021 176.622L94.8145 171.45C95.0881 171.286 95.4165 171.395 95.5807 171.642L105.076 187.595C105.186 187.787 105.186 188.06 105.021 188.224C104.885 188.416 104.693 188.498 104.501 188.471ZM86.9062 177.224C91.6128 181.547 97.2499 184.886 103.297 186.911L94.8692 172.709L86.9062 177.224Z" fill="#4D6C9C"/>
<path d="M199.812 157.795C199.784 157.795 199.73 157.795 199.702 157.768C199.511 157.713 199.374 157.576 199.319 157.412L181.724 103.915C181.669 103.696 181.724 103.477 181.888 103.313C182.052 103.149 182.299 103.121 182.49 103.203L236.507 126.271C236.699 126.354 236.808 126.518 236.836 126.709C236.863 126.901 236.781 127.092 236.644 127.229L200.222 157.686C200.113 157.741 199.976 157.795 199.812 157.795ZM183.229 104.736L200.167 156.263L235.249 126.956L183.229 104.736Z" fill="#4D6C9C"/>
<path d="M236.261 127.339C236.206 127.339 236.152 127.311 236.07 127.284L182.052 104.216C181.833 104.106 181.697 103.887 181.697 103.641C181.724 103.395 181.888 103.203 182.134 103.148L221.457 94.3097C221.731 94.255 221.977 94.3918 222.086 94.6381L236.781 126.545C236.891 126.764 236.836 127.01 236.672 127.174C236.59 127.284 236.425 127.339 236.261 127.339ZM184.132 103.887L235.167 125.669L221.265 95.5137L184.132 103.887Z" fill="#4D6C9C"/>
<path d="M217.435 163.159C217.407 163.159 217.353 163.158 217.325 163.131L199.703 157.768C199.511 157.713 199.347 157.549 199.319 157.33C199.292 157.138 199.347 156.919 199.511 156.783L235.933 126.326C236.152 126.162 236.453 126.162 236.645 126.326C236.863 126.49 236.918 126.791 236.781 127.038L217.982 162.857C217.873 163.049 217.654 163.186 217.435 163.159ZM201.043 156.974L217.216 161.9L234.483 129.035L201.043 156.974Z" fill="#4D6C9C"/>
<path d="M217.434 163.159C217.297 163.159 217.161 163.104 217.079 162.994C216.914 162.83 216.86 162.557 216.969 162.338L235.768 126.518C235.905 126.299 236.152 126.162 236.398 126.217C236.644 126.271 236.836 126.518 236.836 126.764L237.109 153.28C237.109 153.499 236.972 153.691 236.781 153.8L217.708 163.104C217.626 163.159 217.544 163.159 217.434 163.159ZM235.741 129.035L218.775 161.325L235.96 152.924L235.741 129.035Z" fill="#4D6C9C"/>
<path d="M236.261 127.338C236.069 127.311 235.878 127.202 235.796 127.01L221.101 95.1032C221.019 94.9117 221.046 94.6654 221.183 94.5012L228.325 85.8814C228.462 85.7172 228.681 85.6351 228.9 85.6899C229.119 85.7446 229.283 85.9088 229.31 86.1277L236.89 126.654C236.945 126.928 236.781 127.202 236.507 127.311C236.398 127.338 236.316 127.338 236.261 127.338ZM222.25 94.939L234.893 122.358L228.38 87.5506L222.25 94.939Z" fill="#4D6C9C"/>
<path d="M236.261 127.338C236.207 127.338 236.152 127.311 236.097 127.284C235.933 127.202 235.796 127.065 235.769 126.873L228.189 86.3466C228.161 86.1551 228.216 85.9362 228.38 85.7993C228.545 85.6625 228.763 85.6351 228.955 85.6899L271.561 101.944C271.753 102.026 271.89 102.191 271.917 102.41C271.945 102.628 271.862 102.82 271.671 102.957L236.644 127.229C236.508 127.311 236.371 127.338 236.261 127.338ZM229.475 87.1402L236.699 125.806L270.111 102.656L229.475 87.1402Z" fill="#4D6C9C"/>
<path d="M236.507 153.855C236.206 153.827 235.987 153.581 235.987 153.28L235.714 126.764C235.714 126.545 235.851 126.326 236.042 126.244C236.234 126.162 236.48 126.189 236.644 126.326L269.345 154.703C269.536 154.867 269.591 155.113 269.509 155.36C269.427 155.579 269.18 155.715 268.934 155.715L236.507 153.855C236.535 153.855 236.535 153.855 236.507 153.855ZM236.89 128.023L237.137 152.733L267.374 154.484L236.89 128.023Z" fill="#4D6C9C"/>
<path d="M268.934 155.715C268.825 155.715 268.688 155.661 268.606 155.579L235.905 127.202C235.768 127.092 235.686 126.901 235.714 126.709C235.741 126.518 235.851 126.353 236.015 126.271L274.243 105.173C274.434 105.064 274.653 105.091 274.845 105.201C275.009 105.31 275.118 105.529 275.091 105.748L271.588 137.026C271.561 137.19 271.479 137.354 271.342 137.436C270.029 138.284 268.606 138.886 267.101 139.297C268.469 140.939 269.646 142.772 270.658 144.715C270.713 144.824 270.74 144.934 270.713 145.043L269.563 155.223C269.536 155.442 269.399 155.606 269.208 155.688C269.126 155.715 269.016 155.715 268.934 155.715ZM237.274 126.873L268.524 154.019L269.536 145.098C268.469 143.018 267.155 141.076 265.623 139.352C265.486 139.215 265.459 138.996 265.514 138.804C265.568 138.613 265.732 138.476 265.924 138.421C267.539 138.093 269.071 137.491 270.467 136.642L273.805 106.733L237.274 126.873Z" fill="#4D6C9C"/>
<path d="M236.261 127.339C236.097 127.311 235.933 127.229 235.824 127.065C235.659 126.819 235.741 126.463 235.988 126.299L271.014 102.027C271.233 101.862 271.534 101.89 271.753 102.081L274.955 105.256C275.091 105.392 275.146 105.557 275.119 105.748C275.091 105.912 274.982 106.076 274.818 106.159L236.59 127.256C236.48 127.311 236.371 127.339 236.261 127.339ZM271.26 103.231L245.839 120.853L273.586 105.529L271.26 103.231Z" fill="#4D6C9C"/>
<path d="M270.987 137.518C270.905 137.518 270.823 137.491 270.74 137.436C270.549 137.327 270.467 137.108 270.467 136.889L273.969 105.611C273.997 105.392 274.134 105.228 274.325 105.146L276.733 104.243C277.007 104.134 277.335 104.27 277.445 104.544C278.074 105.994 278.485 107.472 278.676 109.005C279.032 112.015 278.512 115.025 277.171 117.706C277.883 119.211 278.32 120.799 278.512 122.44C279.196 128.379 276.378 134.262 271.315 137.463C271.233 137.491 271.096 137.518 270.987 137.518ZM275.064 106.077L271.753 135.767C275.803 132.702 277.992 127.64 277.417 122.55C277.226 120.963 276.788 119.403 276.049 117.925C275.967 117.761 275.967 117.57 276.049 117.405C277.363 114.833 277.883 111.96 277.554 109.087C277.417 107.855 277.089 106.651 276.624 105.474L275.064 106.077Z" fill="#4D6C9C"/>
<path d="M268.935 155.716C268.88 155.716 268.825 155.716 268.798 155.688C268.552 155.606 268.388 155.36 268.415 155.086L269.564 144.907C269.592 144.66 269.783 144.441 270.029 144.414C270.276 144.359 270.522 144.496 270.631 144.715L270.823 145.071C271.589 146.631 272.219 148.272 272.711 149.969C272.766 150.133 272.739 150.297 272.656 150.434L269.482 155.442C269.345 155.633 269.154 155.743 268.935 155.716ZM270.467 147.041L269.838 152.76L271.535 150.051C271.233 149.039 270.878 148.026 270.467 147.041Z" fill="#4D6C9C"/>
<path d="M272.081 166.579C271.835 166.552 271.643 166.388 271.588 166.169L268.469 155.305C268.414 155.141 268.441 154.977 268.523 154.84L271.698 149.832C271.807 149.641 272.054 149.531 272.272 149.586C272.491 149.613 272.683 149.777 272.738 149.996C274.243 155.305 274.215 160.887 272.71 166.169C272.628 166.415 272.409 166.579 272.163 166.579C272.108 166.579 272.081 166.579 272.081 166.579ZM269.591 155.25L272.054 163.843C272.902 159.793 272.874 155.606 271.917 151.583L269.591 155.25Z" fill="#4D6C9C"/>
<path d="M274.489 106.241C274.298 106.213 274.106 106.104 274.024 105.912C273.887 105.639 273.997 105.31 274.271 105.173L276.542 103.915C276.679 103.833 276.843 103.833 277.007 103.86C277.144 103.915 277.281 104.024 277.335 104.161C277.363 104.243 277.39 104.298 277.417 104.38C277.472 104.517 277.5 104.763 277.445 104.9C277.39 105.037 277.308 105.228 277.144 105.283L274.736 106.186C274.654 106.213 274.572 106.241 274.489 106.241Z" fill="#4D6C9C"/>
<path d="M54.8073 29.6201C54.5884 29.5928 54.3695 29.4286 54.3148 29.2097C54.2327 28.9086 54.3969 28.6076 54.6979 28.5255L55.1083 28.3887C55.2725 28.334 55.4641 28.2793 55.6283 28.2245C56.9965 26.5553 58.5289 24.9682 60.2255 23.4631C60.3623 23.3263 60.5539 23.2989 60.7454 23.3263L68.9547 25.4881C69.201 25.5428 69.3925 25.7891 69.3652 26.0627C69.3652 26.3364 69.1736 26.5553 68.9274 26.61L54.9989 29.6201C54.9168 29.6201 54.8621 29.6201 54.8073 29.6201ZM60.7454 24.503C59.5414 25.5976 58.3921 26.7469 57.3522 27.9235L66.3551 25.9807L60.7454 24.503Z" fill="#4D6C9C"/>
<path d="M36.5554 41.1408C36.3912 41.1408 36.227 41.0587 36.1449 40.8945C35.9807 40.6756 36.0081 40.3746 36.1996 40.1831C41.2621 34.7923 47.6653 30.7424 54.698 28.5258L68.6812 25.4884C68.9822 25.4337 69.2558 25.5978 69.3379 25.8715C69.42 26.1451 69.2832 26.4461 69.0369 26.583L36.8564 41.1135C36.7469 41.1135 36.6648 41.1408 36.5554 41.1408ZM63.6461 27.7323L54.9716 29.6204C49.1704 31.4812 43.7796 34.6007 39.2645 38.7601L63.6461 27.7323Z" fill="#4D6C9C"/>
<path d="M113.066 65.851C112.875 68.0401 110.959 69.682 108.77 69.4904C106.581 69.3262 104.939 67.3834 105.131 65.1942C105.322 63.0051 107.238 61.3632 109.427 61.5547C111.616 61.7463 113.258 63.6618 113.066 65.851Z" fill="#4D6C9C"/>
<path d="M108.688 70.6396C105.869 70.4206 103.762 67.9305 104.009 65.1119C104.228 62.2934 106.718 60.1864 109.536 60.4053C112.355 60.6242 114.462 63.1144 114.216 65.9329C113.969 68.7788 111.507 70.8858 108.688 70.6396ZM109.317 62.7039C107.758 62.5671 106.389 63.7437 106.253 65.3035C106.116 66.8633 107.292 68.2315 108.852 68.3683C110.412 68.5051 111.808 67.3285 111.917 65.7687C112.054 64.2089 110.905 62.8133 109.317 62.7039Z" fill="#4D6C9C"/>
<path d="M140.595 34.3269C140.431 36.5161 138.488 38.1579 136.299 37.9664C134.11 37.8022 132.468 35.8593 132.66 33.6702C132.824 31.481 134.767 29.8392 136.956 30.0307C139.145 30.2223 140.76 32.1378 140.595 34.3269Z" fill="#4D6C9C"/>
<path d="M136.217 39.1158C133.398 38.8969 131.291 36.4067 131.538 33.5882C131.757 30.7696 134.247 28.6626 137.065 28.9089C139.884 29.1278 141.991 31.6179 141.772 34.4365C141.498 37.255 139.008 39.362 136.217 39.1158ZM136.846 31.1801C135.287 31.0433 133.891 32.2199 133.782 33.7797C133.645 35.3395 134.821 36.7351 136.381 36.8445C137.941 36.9814 139.309 35.8047 139.446 34.2449C139.583 32.6851 138.406 31.3169 136.846 31.1801Z" fill="#4D6C9C"/>
<path d="M127.323 26.6924C127.213 28.1153 125.982 29.1552 124.559 29.0457C123.163 28.9362 122.096 27.7048 122.206 26.2819C122.315 24.8589 123.546 23.8191 124.969 23.9286C126.365 24.038 127.432 25.2968 127.323 26.6924Z" fill="#4D6C9C"/>
<path d="M124.45 30.1675C122.425 30.0033 120.892 28.2247 121.057 26.1723C121.221 24.1474 122.999 22.615 125.052 22.7791C127.077 22.9433 128.609 24.722 128.445 26.7744C128.281 28.8267 126.502 30.3317 124.45 30.1675ZM124.86 25.0778C124.067 25.023 123.383 25.5977 123.328 26.3913C123.273 27.1848 123.848 27.8689 124.641 27.9237C125.435 27.9784 126.119 27.4037 126.174 26.6102C126.228 25.8166 125.654 25.1325 124.86 25.0778Z" fill="#4D6C9C"/>
<path d="M209.28 30.195C209.143 31.919 207.638 33.2051 205.914 33.0683C204.19 32.9315 202.904 31.4264 203.041 29.7025C203.178 27.9785 204.683 26.6924 206.407 26.8292C208.131 26.966 209.417 28.4711 209.28 30.195Z" fill="#4D6C9C"/>
<path d="M205.805 34.2177C203.451 34.0261 201.7 31.9738 201.892 29.6204C202.083 27.2671 204.135 25.5158 206.489 25.7073C208.842 25.8989 210.593 27.9512 210.402 30.3045C210.238 32.6305 208.158 34.4092 205.805 34.2177ZM206.325 27.9512C205.23 27.8691 204.272 28.69 204.19 29.7846C204.108 30.8792 204.929 31.8369 206.024 31.919C207.118 32.0011 208.076 31.1802 208.185 30.0856C208.24 29.0184 207.419 28.0607 206.325 27.9512Z" fill="#4D6C9C"/>
<path d="M194.776 28.7174C194.612 30.9066 192.669 32.5484 190.48 32.3569C188.291 32.1927 186.649 30.2498 186.813 28.0607C187.005 25.8715 188.92 24.2297 191.11 24.4212C193.326 24.5854 194.968 26.5283 194.776 28.7174Z" fill="#4D6C9C"/>
<path d="M190.398 33.5063C187.58 33.2873 185.472 30.7972 185.691 27.9787C185.91 25.1601 188.4 23.0531 191.219 23.272C194.038 23.4909 196.145 25.9811 195.898 28.7996C195.707 31.6181 193.217 33.7252 190.398 33.5063ZM191.055 25.5432C189.495 25.4064 188.099 26.5831 187.99 28.1428C187.853 29.7026 189.03 31.0982 190.59 31.2076C192.149 31.3445 193.518 30.1678 193.654 28.608C193.791 27.0483 192.615 25.68 191.055 25.5432Z" fill="#4D6C9C"/>
<path d="M177.291 51.6487C177.099 53.8378 175.184 55.4797 172.995 55.2881C170.805 55.0966 169.164 53.1811 169.355 50.9919C169.547 48.8028 171.462 47.1609 173.651 47.3525C175.841 47.5167 177.482 49.4322 177.291 51.6487Z" fill="#4D6C9C"/>
<path d="M172.913 56.4101C170.094 56.1912 167.987 53.701 168.206 50.8825C168.425 48.064 170.915 45.9569 173.734 46.2032C176.552 46.4221 178.659 48.9122 178.413 51.7308C178.194 54.5493 175.731 56.6564 172.913 56.4101ZM173.542 48.4744C171.982 48.3376 170.614 49.5143 170.477 51.074C170.34 52.6338 171.517 54.002 173.077 54.1388C174.637 54.2757 176.005 53.099 176.142 51.5392C176.278 49.9795 175.129 48.6112 173.542 48.4744Z" fill="#4D6C9C"/>
<path d="M186.239 102.929C186.047 105.119 184.132 106.76 181.943 106.569C179.754 106.405 178.112 104.462 178.303 102.273C178.495 100.084 180.41 98.4417 182.599 98.6332C184.789 98.7974 186.403 100.74 186.239 102.929Z" fill="#4D6C9C"/>
<path d="M181.833 107.718C179.015 107.499 176.908 105.009 177.126 102.191C177.345 99.3722 179.836 97.2651 182.654 97.484C185.473 97.7029 187.58 100.193 187.333 103.012C187.142 105.83 184.652 107.937 181.833 107.718ZM182.49 99.7552C180.93 99.6184 179.562 100.795 179.425 102.355C179.288 103.915 180.465 105.283 182.025 105.42C183.584 105.557 184.98 104.38 185.09 102.82C185.226 101.26 184.05 99.8921 182.49 99.7552Z" fill="#4D6C9C"/>
<path d="M239.709 126.682C239.518 128.871 237.602 130.513 235.413 130.321C233.224 130.157 231.582 128.214 231.774 126.025C231.965 123.836 233.881 122.194 236.07 122.385C238.259 122.577 239.901 124.492 239.709 126.682Z" fill="#4D6C9C"/>
<path d="M235.331 131.47C232.512 131.252 230.405 128.761 230.624 125.943C230.843 123.124 233.333 121.017 236.152 121.236C238.97 121.455 241.077 123.945 240.831 126.764C240.612 129.61 238.149 131.717 235.331 131.47ZM235.96 123.535C234.4 123.398 233.005 124.575 232.895 126.134C232.758 127.694 233.935 129.062 235.495 129.199C237.055 129.336 238.423 128.159 238.56 126.6C238.697 125.04 237.547 123.672 235.96 123.535Z" fill="#4D6C9C"/>
<path d="M232.731 87.2772C232.539 89.4664 230.624 91.1082 228.435 90.9167C226.245 90.7525 224.604 88.8096 224.795 86.6205C224.959 84.4313 226.902 82.7895 229.091 82.981C231.28 83.1726 232.895 85.0881 232.731 87.2772Z" fill="#4D6C9C"/>
<path d="M228.325 92.0658C225.507 91.8469 223.4 89.3568 223.619 86.5382C223.838 83.7197 226.328 81.6126 229.146 81.8589C231.965 82.0778 234.072 84.568 233.853 87.3865C233.634 90.1777 231.144 92.2848 228.325 92.0658ZM228.982 84.1302C227.422 83.9933 226.027 85.17 225.917 86.7298C225.78 88.2896 226.957 89.6851 228.517 89.7946C230.077 89.9314 231.445 88.7547 231.582 87.195C231.719 85.6352 230.542 84.2396 228.982 84.1302Z" fill="#4D6C9C"/>
<path d="M148.284 87.934C148.12 90.1231 146.177 91.765 143.988 91.5734C141.799 91.4093 140.157 89.4664 140.349 87.2772C140.54 85.0881 142.456 83.4462 144.645 83.6378C146.834 83.8293 148.449 85.7448 148.284 87.934Z" fill="#4D6C9C"/>
<path d="M143.879 92.7227C141.06 92.5038 138.953 90.0136 139.172 87.1951C139.391 84.3766 141.881 82.2695 144.699 82.5158C147.518 82.7347 149.625 85.2249 149.406 88.0434C149.187 90.8619 146.697 92.969 143.879 92.7227ZM144.535 84.787C142.976 84.6502 141.58 85.8269 141.47 87.3867C141.334 88.9464 142.51 90.342 144.07 90.4515C145.63 90.5883 146.998 89.4116 147.135 87.8518C147.272 86.2921 146.095 84.9239 144.535 84.787Z" fill="#4D6C9C"/>
<path d="M203.643 53.3179C203.452 55.507 201.536 57.1489 199.347 56.9573C197.158 56.7658 195.516 54.8503 195.707 52.6611C195.899 50.472 197.815 48.8301 200.004 49.0217C202.193 49.1859 203.835 51.1014 203.643 53.3179Z" fill="#4D6C9C"/>
<path d="M199.265 58.0793C196.446 57.8603 194.339 55.3702 194.585 52.5516C194.804 49.7331 197.294 47.6261 200.113 47.845C202.932 48.0639 205.039 50.554 204.792 53.3726C204.546 56.2185 202.083 58.3255 199.265 58.0793ZM199.894 50.1436C198.334 50.0068 196.939 51.1834 196.829 52.7432C196.692 54.303 197.869 55.6986 199.429 55.808C200.989 55.9448 202.384 54.7682 202.494 53.2084C202.63 51.6486 201.454 50.2804 199.894 50.1436Z" fill="#4D6C9C"/>
<path d="M232.376 35.23C232.212 37.1182 230.57 38.5137 228.682 38.3496C226.793 38.1854 225.398 36.5435 225.562 34.6554C225.726 32.7672 227.368 31.3716 229.256 31.5358C231.144 31.7 232.54 33.3419 232.376 35.23Z" fill="#4D6C9C"/>
<path d="M228.626 39.4715C226.136 39.2799 224.248 37.0634 224.467 34.5733C224.658 32.0831 226.875 30.195 229.365 30.4139C231.882 30.6054 233.743 32.8219 233.524 35.3121C233.333 37.8023 231.116 39.6904 228.626 39.4715ZM229.173 32.6851C227.915 32.5757 226.82 33.5334 226.711 34.7648C226.601 36.0236 227.532 37.1182 228.79 37.2276C230.049 37.3371 231.144 36.3793 231.253 35.1479C231.363 33.8892 230.405 32.7672 229.173 32.6851Z" fill="#4D6C9C"/>
<path d="M112.629 13.366C112.438 15.5551 110.522 17.197 108.333 17.0054C106.144 16.8139 104.502 14.8984 104.694 12.7092C104.858 10.5201 106.801 8.87821 108.99 9.06976C111.179 9.23395 112.821 11.1768 112.629 13.366Z" fill="#4D6C9C"/>
<path d="M108.251 18.1547C105.432 17.9358 103.325 15.4456 103.571 12.6271C103.79 9.80858 106.28 7.70152 109.099 7.94779C111.917 8.16671 114.025 10.6569 113.806 13.4754C113.532 16.2666 111.069 18.3736 108.251 18.1547ZM108.88 10.1917C107.32 10.0549 105.952 11.2315 105.815 12.7913C105.678 14.3511 106.855 15.7467 108.415 15.8561C109.975 15.9929 111.343 14.8163 111.48 13.2565C111.616 11.6967 110.44 10.3285 108.88 10.1917Z" fill="#4D6C9C"/>
<path d="M124.067 51.9769C123.876 54.1661 121.96 55.808 119.771 55.6164C117.582 55.4522 115.94 53.5093 116.132 51.3202C116.323 49.131 118.239 47.4892 120.428 47.6807C122.617 47.8723 124.231 49.7878 124.067 51.9769Z" fill="#4D6C9C"/>
<path d="M119.662 56.7657C116.843 56.5468 114.736 54.0566 114.955 51.2381C115.174 48.4195 117.664 46.3125 120.482 46.5588C123.301 46.7777 125.408 49.2678 125.162 52.0864C124.97 54.9049 122.48 57.012 119.662 56.7657ZM120.318 48.83C118.758 48.6932 117.39 49.8698 117.253 51.4296C117.117 52.9894 118.293 54.385 119.853 54.4944C121.413 54.6313 122.781 53.4546 122.918 51.8948C123.055 50.335 121.878 48.9668 120.318 48.83Z" fill="#4D6C9C"/>
<path d="M203.834 157.549C203.67 159.738 201.727 161.38 199.537 161.188C197.348 160.997 195.706 159.081 195.898 156.892C196.062 154.703 198.005 153.061 200.194 153.253C202.383 153.417 204.025 155.332 203.834 157.549Z" fill="#4D6C9C"/>
<path d="M199.456 162.31C196.637 162.091 194.53 159.601 194.749 156.783C194.968 153.964 197.458 151.857 200.277 152.076C203.095 152.295 205.202 154.785 204.983 157.604C204.737 160.45 202.274 162.557 199.456 162.31ZM200.085 154.375C198.525 154.238 197.13 155.415 197.02 156.974C196.883 158.534 198.06 159.93 199.62 160.039C201.18 160.176 202.548 158.999 202.685 157.439C202.822 155.88 201.645 154.511 200.085 154.375Z" fill="#4D6C9C"/>
<path d="M176.798 159.929C176.634 162.119 174.691 163.761 172.502 163.569C170.313 163.377 168.671 161.462 168.863 159.273C169.054 157.084 170.97 155.442 173.159 155.606C175.348 155.797 176.963 157.713 176.798 159.929Z" fill="#4D6C9C"/>
<path d="M172.42 164.691C169.602 164.472 167.495 161.982 167.714 159.163C167.932 156.345 170.423 154.238 173.241 154.457C176.06 154.676 178.167 157.166 177.92 159.984C177.702 162.83 175.239 164.937 172.42 164.691ZM173.05 156.755C171.49 156.618 170.094 157.795 169.985 159.355C169.848 160.915 171.025 162.283 172.584 162.42C174.144 162.557 175.512 161.38 175.649 159.82C175.786 158.26 174.609 156.892 173.05 156.755Z" fill="#4D6C9C"/>
<path d="M125.928 166.306C125.763 168.495 123.821 170.137 121.631 169.945C119.442 169.753 117.8 167.838 117.992 165.649C118.184 163.46 120.099 161.818 122.288 162.009C124.477 162.174 126.119 164.089 125.928 166.306Z" fill="#4D6C9C"/>
<path d="M121.549 171.094C118.731 170.875 116.624 168.385 116.843 165.567C117.061 162.748 119.552 160.641 122.37 160.887C125.189 161.106 127.296 163.596 127.077 166.415C126.858 169.206 124.368 171.313 121.549 171.094ZM122.206 163.131C120.646 162.994 119.278 164.171 119.141 165.731C119.004 167.291 120.181 168.659 121.741 168.796C123.301 168.933 124.696 167.756 124.806 166.196C124.942 164.636 123.766 163.268 122.206 163.131Z" fill="#4D6C9C"/>
<path d="M240.639 153.608C240.475 155.797 238.532 157.439 236.343 157.275C234.154 157.084 232.512 155.168 232.703 152.979C232.895 150.79 234.81 149.148 236.999 149.339C239.189 149.504 240.83 151.419 240.639 153.608Z" fill="#4D6C9C"/>
<path d="M236.261 158.397C233.442 158.178 231.335 155.688 231.554 152.87C231.773 150.051 234.263 147.944 237.082 148.19C239.9 148.409 242.007 150.899 241.761 153.718C241.542 156.536 239.079 158.616 236.261 158.397ZM236.917 150.461C235.358 150.325 233.962 151.501 233.853 153.061C233.716 154.621 234.892 156.016 236.452 156.126C238.012 156.263 239.408 155.086 239.517 153.526C239.626 151.967 238.477 150.571 236.917 150.461Z" fill="#4D6C9C"/>
<path d="M101.217 147.151C101.053 149.34 99.1103 150.982 96.9211 150.79C94.732 150.626 93.0901 148.683 93.2817 146.494C93.4459 144.305 95.3887 142.663 97.5779 142.854C99.767 143.046 101.382 144.961 101.217 147.151Z" fill="#4D6C9C"/>
<path d="M96.8391 151.939C94.0206 151.72 91.9135 149.23 92.1324 146.412C92.3514 143.593 94.8415 141.486 97.66 141.732C100.479 141.951 102.586 144.441 102.339 147.26C102.12 150.051 99.6577 152.158 96.8391 151.939ZM97.4685 144.004C95.9087 143.867 94.5405 145.043 94.4037 146.603C94.2669 148.163 95.4435 149.559 97.0033 149.668C98.5631 149.805 99.9313 148.628 100.068 147.068C100.205 145.509 99.0283 144.113 97.4685 144.004Z" fill="#4D6C9C"/>
<path d="M116.022 132.647C115.831 134.836 113.915 136.478 111.726 136.287C109.537 136.095 107.895 134.18 108.087 131.99C108.278 129.801 110.194 128.159 112.383 128.351C114.572 128.543 116.214 130.458 116.022 132.647Z" fill="#4D6C9C"/>
<path d="M111.644 137.436C108.825 137.217 106.718 134.727 106.965 131.908C107.183 129.09 109.674 126.983 112.492 127.229C115.311 127.448 117.418 129.938 117.199 132.757C116.925 135.548 114.462 137.655 111.644 137.436ZM112.301 129.5C110.741 129.363 109.373 130.54 109.236 132.1C109.099 133.66 110.276 135.028 111.835 135.165C113.395 135.302 114.763 134.125 114.9 132.565C115.01 130.978 113.86 129.61 112.301 129.5Z" fill="#4D6C9C"/>
<path d="M77.7668 102.136C77.6026 104.325 75.6597 105.967 73.4706 105.776C71.2814 105.611 69.6396 103.669 69.8311 101.479C70.0227 99.2902 71.9382 97.6484 74.1273 97.8399C76.3165 98.0041 77.931 99.9196 77.7668 102.136Z" fill="#4D6C9C"/>
<path d="M73.3611 106.898C70.5426 106.679 68.4355 104.188 68.6544 101.37C68.8733 98.5514 71.3635 96.4443 74.182 96.6906C77.0006 96.9095 79.1076 99.3997 78.8887 102.218C78.6698 105.037 76.1796 107.144 73.3611 106.898ZM74.0178 98.9618C72.4581 98.825 71.0899 100.002 70.953 101.561C70.8162 103.121 71.9929 104.489 73.5526 104.626C75.1124 104.763 76.4806 103.586 76.6175 102.027C76.7543 100.467 75.5776 99.0987 74.0178 98.9618Z" fill="#4D6C9C"/>
<path d="M27.6076 105.283C27.4161 107.472 25.5006 109.114 23.3114 108.922C21.1223 108.731 19.4804 106.815 19.6719 104.626C19.8361 102.437 21.779 100.795 23.9681 100.987C26.1573 101.178 27.7992 103.094 27.6076 105.283Z" fill="#4D6C9C"/>
<path d="M23.2293 110.072C20.4107 109.853 18.3037 107.363 18.5226 104.544C18.7415 101.726 21.2317 99.6186 24.0502 99.8649C26.8687 100.084 28.9758 102.574 28.7569 105.393C28.5106 108.184 26.0478 110.291 23.2293 110.072ZM23.8586 102.136C22.2989 101.999 20.9306 103.176 20.7938 104.736C20.657 106.296 21.8337 107.664 23.3934 107.801C24.9532 107.937 26.3488 106.761 26.4583 105.201C26.5951 103.641 25.4458 102.246 23.8586 102.136Z" fill="#4D6C9C"/>
<path d="M72.4849 26.282C72.2934 28.4711 70.3779 30.113 68.1887 29.9215C65.9996 29.7573 64.3577 27.8144 64.5493 25.6252C64.7408 23.4361 66.6563 21.7942 68.8455 21.9858C71.0346 22.1773 72.6765 24.0928 72.4849 26.282Z" fill="#4D6C9C"/>
<path d="M68.1066 31.0707C65.2881 30.8518 63.181 28.3616 63.4273 25.5431C63.6462 22.7246 66.1364 20.6175 68.9549 20.8364C71.7734 21.0553 73.8805 23.5455 73.6616 26.364C73.3879 29.2099 70.9251 31.317 68.1066 31.0707ZM68.736 23.135C67.1762 22.9982 65.808 24.1749 65.6712 25.7347C65.5343 27.2944 66.711 28.6626 68.2708 28.7995C69.8306 28.9363 71.1988 27.7596 71.3356 26.1998C71.4724 24.6401 70.3231 23.2719 68.736 23.135Z" fill="#4D6C9C"/>
</svg>
