<svg width="42" height="43" viewBox="0 0 42 43" fill="none" xmlns="http://www.w3.org/2000/svg">
<path d="M27.8712 19.6855C25.5304 19.6855 25.2064 22.0183 25.2064 22.0183H30.1796C30.1796 22.0183 30.212 19.6855 27.8712 19.6855ZM16.5883 22.0183H12.182V26.0681H16.3696C17.0013 26.0519 18.1839 25.8737 18.1839 24.0999C18.1839 21.994 16.5883 22.0183 16.5883 22.0183Z" fill="white"/>
<path d="M20.7353 3.35669C10.7159 3.35669 2.59192 11.4807 2.59192 21.5001C2.59192 31.5194 10.7159 39.6435 20.7353 39.6435C30.7547 39.6435 38.8787 31.5194 38.8787 21.5001C38.8787 11.4807 30.7547 3.35669 20.7353 3.35669ZM24.5584 14.5019H30.8033V16.3648H24.5584V14.5019ZM21.3995 24.2864C21.3995 28.9032 16.5882 28.7574 16.5882 28.7574H8.71531V13.6109H16.5882C18.9858 13.6109 20.873 14.9312 20.873 17.6446C20.873 20.358 18.5646 20.5281 18.5646 20.5281C21.6101 20.5281 21.3995 24.2864 21.3995 24.2864ZM33.0793 24.0353H25.2306C25.2306 26.8459 27.8955 26.6677 27.8955 26.6677C30.4145 26.6677 30.3254 25.0397 30.3254 25.0397H32.9902C32.9902 29.3649 27.8064 29.0652 27.8064 29.0652C21.5939 29.0652 21.9908 23.2739 21.9908 23.2739C21.9908 23.2739 21.9827 17.4583 27.8064 17.4583C33.9379 17.4664 33.0793 24.0353 33.0793 24.0353Z" fill="white"/>
<path d="M17.6574 17.8795C17.6574 16.3081 16.5883 16.3081 16.5883 16.3081H12.182V19.6857H16.3129C17.0256 19.6857 17.6574 19.4508 17.6574 17.8795Z" fill="white"/>
</svg>
