<svg width="152" height="71" viewBox="0 0 152 71" fill="none" xmlns="http://www.w3.org/2000/svg">
<path d="M87.6207 0.628584C88.5564 0.628584 89.3249 0.895903 89.9264 1.43054C90.5278 1.96517 90.8286 2.70029 90.8286 3.63591L90.6281 4.93908L68.4741 69.0954C68.2736 69.6968 67.9061 70.1646 67.3714 70.4988C66.9036 70.8329 66.369 71 65.7675 71C64.2304 71 63.228 70.3651 62.7602 69.0954L45.4179 26.2911L28.0757 69.0954C27.4742 70.3651 26.4718 71 25.0684 71C24.4669 71 23.8989 70.8329 23.3642 70.4988C22.8964 70.1646 22.5957 69.6968 22.462 69.0954L0.308058 4.93908C0.10757 4.53811 0.00732548 4.13713 0.00732548 3.73616C0.00732548 2.80054 0.341473 2.06541 1.00977 1.53078C1.74489 0.929317 2.51343 0.628584 3.31538 0.628584C3.98368 0.628584 4.58514 0.795658 5.11978 1.1298C5.65441 1.46395 6.02198 1.93176 6.22247 2.53322L25.8703 59.8729L42.7113 17.8706C43.3128 16.534 44.2484 15.8991 45.5182 15.9659C46.1865 15.8991 46.7545 16.0662 47.2223 16.4672C47.757 16.8013 48.1579 17.2691 48.4253 17.8706L65.166 59.8729L84.6134 2.53322C85.1481 1.26346 86.1505 0.628584 87.6207 0.628584ZM148.929 0.82907C149.797 0.82907 150.499 1.09639 151.034 1.63103C151.635 2.16566 151.936 2.86737 151.936 3.73616C151.936 4.60494 151.635 5.30664 151.034 5.84128C150.499 6.30909 149.797 6.54299 148.929 6.54299H128.178V67.9927C128.178 68.8615 127.877 69.5966 127.276 70.198C126.674 70.7327 125.939 71 125.071 71C124.135 71 123.366 70.7327 122.765 70.198C122.23 69.5966 121.963 68.8615 121.963 67.9927V6.54299H101.212C100.344 6.54299 99.6085 6.27567 99.0071 5.74104C98.4724 5.2064 98.2051 4.50469 98.2051 3.63591C98.2051 2.83396 98.4724 2.16566 99.0071 1.63103C99.6085 1.09639 100.344 0.82907 101.212 0.82907H148.929Z" fill="black"/>
</svg>
