<svg width="440" height="440" viewBox="0 0 440 440" fill="none" xmlns="http://www.w3.org/2000/svg">
<circle cx="220" cy="220" r="220" fill="#002356"/>
<path fill-rule="evenodd" clip-rule="evenodd" d="M105.353 174.536C101.86 206.986 102.016 244.41 106.876 276.728C109.565 294.61 124.159 308.319 142.174 309.885L161.002 311.522C200.26 314.934 239.74 314.934 278.998 311.522L297.826 309.885C315.841 308.319 330.435 294.61 333.124 276.728C337.984 244.41 338.14 206.988 334.648 174.538C334.196 170.776 333.688 167.019 333.124 163.269C330.435 145.387 315.841 131.678 297.826 130.112L278.998 128.475C239.74 125.062 200.26 125.062 161.002 128.475L142.174 130.112C124.159 131.678 109.565 145.387 106.876 163.269C106.312 167.019 105.804 170.775 105.353 174.536ZM162.621 147.105C200.802 143.786 239.198 143.786 277.379 147.105L296.206 148.741C305.61 149.559 313.228 156.715 314.632 166.049C314.778 167.019 314.92 167.989 315.058 168.959L245.73 207.474C229.728 216.364 210.271 216.364 194.268 207.474L124.942 168.959C125.08 167.989 125.222 167.019 125.368 166.049C126.771 156.715 134.39 149.559 143.794 148.741L162.621 147.105ZM317.346 189.08C319.764 217.351 318.86 245.835 314.632 273.947C313.228 283.282 305.61 290.438 296.206 291.255L277.379 292.892C239.198 296.211 200.802 296.211 162.621 292.892L143.794 291.255C134.39 290.438 126.771 283.282 125.368 273.947C121.14 245.836 120.236 217.351 122.654 189.08L185.187 223.821C206.837 235.848 233.162 235.848 254.812 223.821L317.346 189.08Z" fill="white"/>
</svg>
