<svg width="154" height="156" viewBox="0 0 154 156" fill="none" xmlns="http://www.w3.org/2000/svg">
<g filter="url(#filter0_d_3_1195)">
<path d="M43.3787 130.135C39.9787 131.405 36.2858 131.673 32.7379 130.908C29.1899 130.144 25.9355 128.378 23.3603 125.82C21.5856 124.067 20.1791 121.978 19.2234 119.673C18.2677 117.369 17.782 114.897 17.7948 112.403C17.8139 110.65 18.0752 108.907 18.5714 107.226C16.7011 103.728 15.2528 100.021 14.2571 96.1812C10.2922 101.65 8.46954 108.382 9.13395 115.104C9.79836 121.826 12.9038 128.072 17.8625 132.658C22.8213 137.245 29.2893 139.855 36.0427 139.994C42.796 140.133 49.3661 137.792 54.5096 133.414C50.6843 132.758 46.9487 131.657 43.3787 130.135Z" fill="white"/>
<path d="M78.9721 112.748C72.7388 116.223 65.5433 117.572 58.4748 116.591C51.4064 115.61 44.8499 112.353 39.7982 107.312C34.7518 102.283 31.4858 95.7437 30.4968 88.6883C29.5078 81.6328 30.8499 74.4474 34.319 68.2246C33.3742 64.1902 32.8394 60.0707 32.7227 55.9288C25.3814 63.7611 21.3755 74.1424 21.5526 84.8759C21.7298 95.6094 26.0761 105.853 33.6719 113.439C41.2882 121.01 51.5406 125.338 62.2787 125.515C73.0168 125.692 83.4063 121.704 91.2679 114.388C87.1251 114.251 83.0061 113.702 78.9721 112.748Z" fill="white"/>
<path d="M92.9931 106.406C80.918 106.388 69.2224 102.185 59.8986 94.5117C50.5748 86.8386 44.1993 76.1705 41.8582 64.3244C39.517 52.4783 41.355 40.187 47.0589 29.5439C52.7629 18.9009 61.9801 10.5643 73.1407 5.95424C84.3012 1.34417 96.7148 0.745698 108.267 4.26076C119.819 7.77582 129.796 15.187 136.497 25.232C143.198 35.277 146.21 47.3346 145.02 59.3509C143.829 71.3672 138.509 82.5992 129.967 91.1337C125.109 95.9833 119.344 99.8283 113 102.449C106.655 105.069 99.8572 106.414 92.9931 106.406ZM92.9931 10.5854C87.2616 10.5798 81.585 11.7038 76.2881 13.8932C70.9912 16.0827 66.1777 19.2947 62.1229 23.3455C58.068 27.3963 54.8513 32.2066 52.6566 37.5014C50.4619 42.7962 49.3323 48.4715 49.3323 54.2031C49.3331 59.9404 50.4782 65.6198 52.7006 70.9091C54.923 76.1984 58.178 80.9913 62.2752 85.0073C70.4629 93.1929 81.5665 97.7913 93.1441 97.7913C104.722 97.7913 115.825 93.1929 124.013 85.0073C130.111 78.8946 134.257 71.1097 135.927 62.6386C137.597 54.1675 136.715 45.3914 133.393 37.4219C130.071 29.4524 124.459 22.648 117.267 17.8706C110.075 13.0932 101.627 10.5578 92.9931 10.5854Z" fill="white"/>
</g>
<defs>
<filter id="filter0_d_3_1195" x="0.8" y="0.64" width="152.674" height="154.4" filterUnits="userSpaceOnUse" color-interpolation-filters="sRGB">
<feFlood flood-opacity="0" result="BackgroundImageFix"/>
<feColorMatrix in="SourceAlpha" type="matrix" values="0 0 0 0 0 0 0 0 0 0 0 0 0 0 0 0 0 0 127 0" result="hardAlpha"/>
<feOffset dy="6.84"/>
<feGaussianBlur stdDeviation="4.1"/>
<feComposite in2="hardAlpha" operator="out"/>
<feColorMatrix type="matrix" values="0 0 0 0 0 0 0 0 0 0 0 0 0 0 0 0 0 0 0.25 0"/>
<feBlend mode="normal" in2="BackgroundImageFix" result="effect1_dropShadow_3_1195"/>
<feBlend mode="normal" in="SourceGraphic" in2="effect1_dropShadow_3_1195" result="shape"/>
</filter>
</defs>
</svg>
