<svg width="38" height="39" viewBox="0 0 38 39" fill="none" xmlns="http://www.w3.org/2000/svg">
<path d="M34.8312 0.838135H3.68184C1.97978 0.838135 0.492676 2.06281 0.492676 3.74487V34.9633C0.492676 36.6546 1.97978 38.1617 3.68184 38.1617H34.822C36.5332 38.1617 37.8162 36.6446 37.8162 34.9633V3.74487C37.8262 2.06281 36.5332 0.838135 34.8312 0.838135ZM12.0621 31.9491H6.71521V15.3243H12.0621V31.9491ZM9.57362 12.7967H9.5353C7.82408 12.7967 6.71604 11.5228 6.71604 9.92825C6.71604 8.30451 7.85324 7.06067 9.60278 7.06067C11.3523 7.06067 12.4229 8.29534 12.4612 9.92825C12.4604 11.5228 11.3523 12.7967 9.57362 12.7967ZM31.6037 31.9491H26.2567V22.859C26.2567 20.6813 25.4786 19.1933 23.5441 19.1933C22.0662 19.1933 21.1914 20.1931 20.8023 21.167C20.6565 21.5169 20.6174 21.9934 20.6174 22.4799V31.9491H15.2705V15.3243H20.6174V17.6379C21.3955 16.5298 22.611 14.9353 25.4395 14.9353C28.9494 14.9353 31.6045 17.2488 31.6045 22.2367L31.6037 31.9491Z" fill="white"/>
</svg>
