<svg width="441" height="440" viewBox="0 0 441 440" fill="none" xmlns="http://www.w3.org/2000/svg">
<circle cx="220.6" cy="220" r="220" fill="#002356"/>
<path d="M181.778 159.783C184.059 159.844 186.588 159.968 188.994 165.308C190.589 168.864 193.277 175.409 195.466 180.74C197.17 184.889 198.571 188.303 198.922 189.002C199.724 190.597 200.217 192.439 199.169 194.587C199.045 194.84 198.929 195.082 198.816 195.316C197.975 197.061 197.377 198.303 195.963 199.927C195.381 200.595 194.775 201.327 194.172 202.056C193.11 203.338 192.056 204.613 191.152 205.513C189.549 207.108 187.883 208.828 189.733 212.019C191.584 215.211 198.059 225.707 207.618 234.178C217.895 243.327 226.831 247.183 231.348 249.132C232.225 249.51 232.936 249.817 233.457 250.076C236.665 251.672 238.576 251.426 240.426 249.278C242.277 247.129 248.443 239.948 250.602 236.756C252.699 233.565 254.857 234.056 257.818 235.16C260.777 236.265 276.565 243.999 279.771 245.595C280.405 245.91 280.998 246.195 281.548 246.458C283.779 247.528 285.295 248.255 285.939 249.34C286.74 250.69 286.74 257.074 284.089 264.562C281.376 272.051 268.301 279.232 262.381 279.785C261.82 279.837 261.262 279.905 260.688 279.974C255.263 280.631 248.375 281.464 223.837 271.805C193.6 259.915 173.641 230.414 169.606 224.449C169.287 223.979 169.068 223.654 168.95 223.497L168.882 223.406C167.046 220.949 155.814 205.92 155.814 190.414C155.814 175.578 163.123 167.854 166.456 164.331C166.667 164.108 166.862 163.902 167.039 163.711C169.999 160.52 173.453 159.722 175.611 159.722C177.77 159.722 179.928 159.722 181.778 159.783Z" fill="white"/>
<path fill-rule="evenodd" clip-rule="evenodd" d="M98.2295 336.331C97.2095 340.033 100.582 343.451 104.297 342.48L161.735 327.478C179.866 337.299 200.279 342.516 221.063 342.516H221.124C289.516 342.516 345.267 287.088 345.267 218.955C345.267 185.932 332.376 154.873 308.942 131.547C285.508 108.223 254.364 95.3325 221.123 95.3325C152.732 95.3325 96.9819 150.76 96.9819 218.894C96.9741 240.569 102.695 261.865 113.571 280.643L98.2295 336.331ZM131.599 285.61C132.931 280.776 132.266 275.61 129.753 271.271C120.526 255.339 115.675 237.272 115.682 218.894C115.682 161.176 162.971 114.033 221.123 114.033C249.421 114.033 275.822 124.966 295.751 144.801C315.656 164.614 326.567 190.903 326.567 218.955C326.567 276.672 279.278 323.816 221.124 323.816H221.063C203.404 323.816 186.05 319.381 170.642 311.035C166.471 308.776 161.599 308.186 157.01 309.385L122.572 318.38L131.599 285.61Z" fill="white"/>
</svg>
